<?xml version="1.0" standalone="no"?>
<!DOCTYPE svg PUBLIC "-//W3C//DTD SVG 1.1//EN" "http://www.w3.org/Graphics/SVG/1.1/DTD/svg11.dtd" >
<svg xmlns="http://www.w3.org/2000/svg" xmlns:xlink="http://www.w3.org/1999/xlink" version="1.1">
<metadata>
Created by FontForge 20170731 at Thu Jul 29 21:50:41 2021
 By Aleksey,,,
Copyright (c) 2011 ParaType Inc., ParaType Ltd. All rights reserved.
</metadata>
<defs>
<font id="Circe-ExtraBold" horiz-adv-x="1228" >
  <font-face 
    font-family="Circe Extra Bold"
    font-weight="800"
    font-stretch="normal"
    units-per-em="2048"
    panose-1="2 11 8 2 2 2 3 2 2 3"
    ascent="1583"
    descent="-465"
    x-height="922"
    cap-height="1434"
    bbox="-1092 -930 3422 2089"
    underline-thickness="102"
    underline-position="-307"
    unicode-range="U+0020-FB02"
  />
<missing-glyph horiz-adv-x="409" 
 />
    <glyph glyph-name="uniF350.var.accented" unicode="&#xf350;`" horiz-adv-x="1294" 
d="M0 0l500 1075h295l499 -1075h-350l-67 154h-480l-67 -154h-330zM639 696l-104 -235h206zM928 1374l-332 -225l-145 170l288 291z" />
    <glyph glyph-name="uniF355.var.accented" unicode="&#xf355;`" horiz-adv-x="1040" 
d="M147 0v1075h777v-307h-449v-76h397v-307h-397v-78h467v-307h-795zM795 1374l-332 -225l-146 170l289 291z" />
    <glyph glyph-name="uniF358.var.accented" unicode="&#xf358;`" horiz-adv-x="1374" 
d="M434 0h-287v1075h328v-553l465 553h287v-1075h-328v553zM958 1374l-331 -225l-146 170l289 291z" />
    <glyph glyph-name="uniF35E.var.accented" unicode="&#xf35e;`" horiz-adv-x="1359" 
d="M63 535q0 116 44 218t122.5 177t195.5 118.5t255 43.5q179 0 317.5 -65t218.5 -192.5t80 -299.5q0 -163 -79.5 -291.5t-220 -198.5t-316.5 -70q-179 0 -317.5 65.5t-219 193.5t-80.5 301zM412 535q0 -107 77.5 -179.5t190.5 -72.5q137 0 202.5 69.5t65.5 182.5
q0 116 -75.5 182.5t-192.5 66.5q-121 0 -194.5 -66t-73.5 -183zM979 1374l-332 -225l-145 170l289 291z" />
    <glyph glyph-name="uniF363.var.accented" unicode="&#xf363;`" horiz-adv-x="1202" 
d="M1194 1075l-403 -805q-133 -270 -385 -270q-101 0 -177 53l115 279q20 -11 28.5 -15t21.5 -7t30 -3q38 0 57 25l17 24l-484 719h412l240 -395l192 395h336zM948 1374l-332 -225l-145 170l289 291z" />
    <glyph glyph-name="uniF36B.var.accented" unicode="&#xf36b;`" horiz-adv-x="1568" 
d="M1094 0v1075h327v-1075h-327zM532 481q-32 0 -57 -2v-172q25 -4 57 -4q123 0 123 92q0 86 -123 86zM475 1075v-291q35 4 88 4q217 0 329 -102.5t112 -282.5t-134.5 -293.5t-375.5 -113.5q-74 0 -196.5 2t-150.5 2v1075h328zM1044 1374l-331 -225l-146 170l289 291z" />
    <glyph glyph-name="uniF36D.var.accented" unicode="&#xf36d;`" horiz-adv-x="1161" 
d="M307 395v307h412q-74 86 -250 86q-202 0 -315 -71l-125 246q74 55 188.5 94t265.5 39q173 0 313 -69.5t221 -198t81 -293.5q0 -265 -177 -410t-485 -145q-128 0 -244 34t-167 78l139 277q113 -82 315 -82q99 0 164 22.5t98 85.5h-434zM774 1374l-332 -225l-145 170
l289 291z" />
    <glyph glyph-name="uniF36E.var.accented" unicode="&#xf36e;`" horiz-adv-x="1810" 
d="M147 0v1075h328v-373h115q46 179 190 286.5t367 107.5q284 0 442 -146.5t158 -410.5q0 -253 -160 -406t-440 -153q-220 0 -371 109t-192 306h-109v-395h-328zM918 539q0 -110 64.5 -181t174.5 -71q125 0 183.5 69.5t58.5 182.5q0 119 -63.5 184t-178.5 65
q-109 0 -174 -66t-65 -183zM1042 1374l-331 -225l-146 170l289 291z" />
    <glyph glyph-name="uniF36F.var.accented" unicode="&#xf36f;`" horiz-adv-x="1196" 
d="M721 0v287h-146l-180 -287h-387l252 367q-154 103 -154 295q0 82 29 154.5t88.5 133.5t163 97t240.5 36q90 0 243.5 -4t178.5 -4v-1075h-328zM549 594h172v174q-20 8 -125 8q-65 0 -103 -23.5t-38 -68.5q0 -72 94 -90zM918 1374l-332 -225l-146 170l289 291z" />
    <glyph glyph-name="uniF371.var.accented" unicode="&#xf371;`" horiz-adv-x="1040" 
d="M152 1305q0 70 48 111.5t119 41.5q59 0 105.5 -42.5t46.5 -110.5q0 -74 -46 -118t-106 -44q-72 0 -119.5 43.5t-47.5 118.5zM604 1305q0 69 48 111t116 42q63 0 109.5 -42t46.5 -111q0 -74 -46 -118t-110 -44q-68 0 -116 43.5t-48 118.5zM147 0v1075h777v-307h-449v-76
h397v-307h-397v-78h467v-307h-795zM856 1599l-332 -225l-145 170l289 291z" />
    <glyph glyph-name="afii10017.var.accented" unicode="&#x410;`" horiz-adv-x="1484" 
d="M0 0l596 1434h293l596 -1434h-350l-119 301h-567l-119 -301h-330zM733 1014l-162 -406h322zM1120 1651l-510 -160l-84 182l480 242z" />
    <glyph glyph-name="afii10022.var.accented" unicode="&#x415;`" horiz-adv-x="1177" 
d="M184 0v1434h850v-308h-522v-252h461v-307h-461v-260h543v-307h-871zM1059 1651l-510 -160l-84 182l479 242z" />
    <glyph glyph-name="afii10026.var.accented" unicode="&#x418;`" horiz-adv-x="1617" 
d="M471 0h-287v1434h328v-891l635 891h287v-1434h-328v891zM1243 1651l-510 -160l-84 182l479 242z" />
    <glyph glyph-name="afii10032.var.accented" unicode="&#x41e;`" horiz-adv-x="1687" 
d="M82 717q0 155 55.5 291t153.5 235.5t241.5 157t311.5 57.5q218 0 390.5 -89t272 -258.5t99.5 -393.5q0 -160 -58 -298.5t-159 -235.5t-242 -152.5t-303 -55.5q-163 0 -303 52t-241.5 147t-159.5 235t-58 308zM430 717q0 -183 120.5 -308.5t293.5 -125.5q132 0 227 58.5
t140.5 155.5t45.5 220q0 193 -118 313.5t-295 120.5q-181 0 -297.5 -120t-116.5 -314zM1264 1651l-510 -160l-84 182l479 242z" />
    <glyph glyph-name="afii10037.var.accented" unicode="&#x423;`" horiz-adv-x="1435" 
d="M1415 1434l-481 -1094q-76 -171 -176 -255.5t-244 -84.5q-60 0 -123 19t-94 44l115 279q30 -21 50 -28t50 -7q81 0 106 58l19 43l-617 1026h371l404 -701l290 701h330zM1161 1651l-510 -160l-84 182l480 242z" />
    <glyph glyph-name="afii10045.var.accented" unicode="&#x42b;`" horiz-adv-x="1812" 
d="M1300 0v1434h328v-1434h-328zM610 686q-30 0 -98 -10v-365q74 -8 96 -8q205 0 205 199q0 92 -54.5 138t-148.5 46zM512 1434v-449q68 8 127 8q258 0 390 -128.5t132 -354.5q0 -234 -156 -374t-436 -140q-81 0 -216 2t-169 2v1434h328zM1284 1651l-510 -160l-84 182
l479 242z" />
    <glyph glyph-name="afii10047.var.accented" unicode="&#x42d;`" horiz-adv-x="1372" 
d="M371 578v307h563q-47 129 -164.5 197.5t-282.5 68.5q-172 0 -311 -104l-125 245q81 71 213.5 118.5t302.5 47.5q207 0 371 -91.5t258 -261t94 -388.5q0 -345 -206.5 -543.5t-559.5 -198.5q-149 0 -282 43.5t-201 106.5l139 276q62 -51 150 -84.5t188 -33.5
q154 0 271.5 73t156.5 222h-575zM977 1651l-510 -160l-84 182l479 242z" />
    <glyph glyph-name="afii10048.var.accented" unicode="&#x42e;`" horiz-adv-x="2220" 
d="M184 0v1434h328v-549h180q51 255 239.5 414t465.5 159q217 0 384.5 -89t262 -258t94.5 -394q0 -161 -55 -299t-152 -235.5t-235 -152.5t-299 -55q-177 0 -327.5 71.5t-252.5 209.5t-131 322h-174v-578h-328zM1024 717q0 -183 112.5 -308.5t270.5 -125.5q99 0 174 33.5
t120 93.5t67 137t22 170q0 196 -105 315t-278 119q-165 0 -274 -120t-109 -314zM1571 1651l-510 -160l-84 182l479 242z" />
    <glyph glyph-name="afii10049.var.accented" unicode="&#x42f;`" horiz-adv-x="1316" 
d="M805 0v461h-146l-272 -461h-367l336 532q-100 59 -160.5 157t-60.5 235q0 105 35 195.5t106 164t193 116t283 42.5q46 0 193 -4t188 -4v-1434h-328zM633 768h172v358q-45 9 -119 9q-85 0 -144 -51.5t-59 -137.5q0 -75 43 -120t107 -58zM1141 1651l-510 -160l-84 182
l479 242z" />
    <glyph glyph-name="afii10023.var.accented" unicode="&#x401;`" horiz-adv-x="1177" 
d="M143 1712q0 74 43.5 118t108.5 44q57 0 100 -44.5t43 -117.5q0 -82 -42.5 -128t-100.5 -46q-66 0 -109 45.5t-43 128.5zM809 1712q0 74 45 118t109 44q58 0 99.5 -44t41.5 -118q0 -82 -41 -128t-100 -46q-65 0 -109.5 46t-44.5 128zM815 1845l-256 -329l-108 47l98 352z
M184 0v1434h850v-308h-522v-252h461v-307h-461v-260h543v-307h-871z" />
    <glyph glyph-name="afii10065.var.accented" unicode="&#x430;`" horiz-adv-x="952" 
d="M211 633l-76 223q60 37 155.5 63.5t186.5 26.5q204 0 293.5 -98t89.5 -293v-555h-266v84q-33 -46 -98.5 -71t-143.5 -25q-128 0 -209.5 77.5t-81.5 213.5q0 150 93.5 227.5t238.5 77.5q56 0 105.5 -16t74.5 -36q4 80 -29.5 119t-97.5 39q-23 0 -44 -1.5t-41 -6
t-34.5 -7.5t-34.5 -10t-28 -10t-28.5 -11.5t-24.5 -10.5zM457 244q82 0 116 47v57q-45 31 -116 31q-39 0 -63.5 -18.5t-24.5 -51.5q0 -30 24.5 -47.5t63.5 -17.5zM786 1329l-268 -299l-182 129l211 352z" />
    <glyph glyph-name="afii10070.var.accented" unicode="&#x435;`" horiz-adv-x="1048" 
d="M836 297l84 -217q-140 -105 -359 -105q-227 0 -363.5 133.5t-136.5 352.5q0 134 61 244t176 175.5t263 65.5q119 0 220.5 -53t164 -153.5t62.5 -227.5q0 -89 -19 -154h-610q21 -63 78.5 -95t136.5 -32q138 0 242 66zM551 690q-74 0 -116.5 -31.5t-65.5 -95.5h331
q0 51 -40 89t-109 38zM836 1329l-269 -299l-182 129l211 352z" />
    <glyph glyph-name="afii10074.var.accented" unicode="&#x438;`" horiz-adv-x="1167" 
d="M420 0h-307v922h307v-482l328 482h307v-922h-307v481zM858 1329l-268 -299l-182 129l210 352z" />
    <glyph glyph-name="afii10080.var.accented" unicode="&#x43e;`" horiz-adv-x="1146" 
d="M61 461q0 211 140 348t372 137t372 -137t140 -348t-140 -348.5t-372 -137.5t-372 137.5t-140 348.5zM389 461q0 -87 52.5 -143t131.5 -56q80 0 132.5 54t52.5 145q0 88 -53.5 143t-131.5 55q-77 0 -130.5 -54t-53.5 -144zM868 1329l-268 -299l-182 129l211 352z" />
    <glyph glyph-name="afii10085.var.accented" unicode="&#x443;`" horiz-adv-x="1056" 
d="M1057 922l-359 -922q-67 -165 -123.5 -254t-110.5 -122.5t-128 -33.5q-118 0 -219 86l98 232q49 -33 88 -33q58 0 88 76l21 49l-412 922h371l157 -422q15 -39 35 -127q8 77 23 129l121 420h350zM807 1329l-268 -299l-183 129l211 352z" />
    <glyph glyph-name="afii10093.var.accented" unicode="&#x44b;`" horiz-adv-x="1443" 
d="M113 0v922h307v-215h96q116 0 201 -28t131 -77t67 -105t21 -122q0 -57 -14.5 -109t-48 -101.5t-83.5 -85.5t-126 -57.5t-170 -21.5h-381zM1024 0v922h307v-922h-307zM489 461h-69v-195h67q60 0 90.5 25.5t30.5 70.5q0 99 -119 99zM950 1329l-268 -299l-182 129l211 352z
" />
    <glyph glyph-name="afii10095.var.accented" unicode="&#x44d;`" horiz-adv-x="1015" 
d="M264 362v205h363q-25 58 -76.5 85.5t-116.5 27.5q-69 0 -123 -20t-123 -62l-125 213q65 66 167.5 100.5t197.5 34.5q245 0 385.5 -130.5t140.5 -354.5q0 -136 -56.5 -244.5t-173.5 -175t-278 -66.5q-254 0 -395 148l144 201q36 -32 97.5 -57t135.5 -25q167 0 205 120
h-369zM727 1329l-268 -299l-183 129l211 352z" />
    <glyph glyph-name="afii10096.var.accented" unicode="&#x44e;`" horiz-adv-x="1607" 
d="M113 0v922h327v-297h125q45 146 168.5 233.5t300.5 87.5q230 0 371 -137.5t141 -347.5q0 -209 -143 -347.5t-369 -138.5q-184 0 -309 93t-166 249h-119v-317h-327zM891 461q0 -87 42.5 -132.5t110.5 -45.5q69 0 111.5 46t42.5 132q0 85 -40.5 131.5t-113.5 46.5
q-68 0 -110.5 -47t-42.5 -131zM1104 1329l-268 -299l-183 129l211 352z" />
    <glyph glyph-name="afii10097.var.accented" unicode="&#x44f;`" horiz-adv-x="1030" 
d="M600 922h318v-922h-308v236h-73l-146 -236h-350l219 303q-62 33 -108 100t-46 172q0 73 28.5 134t86 109.5t154.5 76t225 27.5zM434 551q0 -37 35 -63.5t86 -26.5h55v194h-59q-52 0 -84.5 -32t-32.5 -72zM842 1329l-269 -299l-182 129l211 352z" />
    <glyph glyph-name="afii10071.var.accented" unicode="&#x451;`" horiz-adv-x="1048" 
d="M96 1176q0 63 39 99t98 36q51 0 89 -37t38 -98q0 -67 -38 -105.5t-89 -38.5q-59 0 -98 38t-39 106zM739 1176q0 62 40 98.5t98 36.5q52 0 89.5 -36.5t37.5 -98.5q0 -67 -37 -105.5t-90 -38.5q-58 0 -98 38t-40 106zM795 1329l-269 -299l-141 100l211 353zM836 297
l84 -217q-140 -105 -359 -105q-227 0 -363.5 133.5t-136.5 352.5q0 134 61 244t176 175.5t263 65.5q119 0 220.5 -53t164 -153.5t62.5 -227.5q0 -89 -19 -154h-610q21 -63 78.5 -95t136.5 -32q138 0 242 66zM551 690q-74 0 -116.5 -31.5t-65.5 -95.5h331q0 51 -40 89
t-109 38z" />
    <glyph glyph-name="fi" unicode="fi" horiz-adv-x="1120" 
d="M700 0v635h-280v-635h-307v1024q0 219 117.5 326.5t320.5 107.5q316 0 450 -231l-223 -172q-22 49 -68 82.5t-104 33.5q-97 0 -141.5 -36.5t-44.5 -130.5v-82h588v-922h-308z" />
    <glyph glyph-name="fl" unicode="fl" horiz-adv-x="1185" 
d="M666 264v862q-65 45 -125 45q-121 0 -121 -118v-131h123v-287h-123v-635h-307v1071q0 188 89.5 287.5t246.5 99.5q155 0 243 -57h281v-1020q0 -119 51 -119q6 0 12 0.5t12.5 3t10.5 3.5t11.5 5.5l10 6t12 7.5t11.5 7l61 -234q-104 -86 -270 -86q-229 0 -229 289z" />
    <glyph glyph-name=".notdef" horiz-adv-x="409" 
 />
    <glyph glyph-name=".null" horiz-adv-x="0" 
 />
    <glyph glyph-name="nonmarkingreturn" horiz-adv-x="682" 
 />
    <glyph glyph-name="space" unicode=" " horiz-adv-x="409" 
 />
    <glyph glyph-name="exclam" unicode="!" horiz-adv-x="634" 
d="M154 553v881h327v-881h-327zM117 197q0 74 58 133t151 59q82 0 137 -59.5t55 -132.5q0 -85 -54 -147t-138 -62q-95 0 -152 61.5t-57 147.5z" />
    <glyph glyph-name="quotedbl" unicode="&#x22;" horiz-adv-x="921" 
d="M512 901v533h307v-533h-307zM102 901v533h308v-533h-308z" />
    <glyph glyph-name="numbersign" unicode="#" horiz-adv-x="1523" 
d="M633 59l102 279h-246l-135 -363l-237 82l104 281h-139v266h237l84 225h-321v267h420l135 362l237 -86l-102 -276h242l135 362l237 -82l-104 -280h160v-267h-258l-84 -225h342v-266h-441l-133 -363zM672 829l-84 -225h246l81 225h-243z" />
    <glyph glyph-name="dollar" unicode="$" 
d="M752 393q0 43 -33 79t-85.5 64t-116.5 57.5t-128 68.5t-116.5 87.5t-85.5 124.5t-33 170q0 132 86 240t231 150v184h307v-174q178 -34 281 -144l-176 -245q-55 51 -99.5 73.5t-117.5 22.5q-164 0 -164 -107q0 -42 25.5 -77t67.5 -59t96 -50.5t110 -51t110 -62.5t96 -82.5
t67.5 -112.5t25.5 -152q0 -151 -87 -258.5t-235 -144.5v-199h-307v199q-114 25 -202.5 80.5t-125.5 136.5l187 223q58 -74 142 -112.5t165 -38.5q62 0 88.5 28t26.5 82z" />
    <glyph glyph-name="percent" unicode="%" horiz-adv-x="1935" 
d="M369 96l1017 1362l173 -129l-1014 -1354zM61 1077q0 173 121 277t312 104t311.5 -104t120.5 -277t-120.5 -279t-311.5 -106t-312 106t-121 279zM348 1077q0 -65 40.5 -102t105.5 -37q67 0 106 37t39 102q0 62 -40 98.5t-105 36.5t-105.5 -36.5t-40.5 -98.5zM1010 360
q0 173 120.5 277t311.5 104t311.5 -104t120.5 -277t-120.5 -279t-311.5 -106t-311.5 106t-120.5 279zM1296 360q0 -65 40.5 -102t105.5 -37q67 0 106 37t39 102q0 62 -40 99t-105 37t-105.5 -37t-40.5 -99z" />
    <glyph glyph-name="ampersand" unicode="&#x26;" horiz-adv-x="1560" 
d="M1098 0l-92 113q-153 -138 -402 -138q-228 0 -365 116t-137 298q0 87 20.5 155t65.5 124t90 94t121 92q-141 97 -141 279q0 149 108.5 237t256.5 88q96 0 178 -36.5t135 -112.5t53 -176q0 -88 -46.5 -167t-111.5 -114l207 -277q76 167 76 347h305q0 -167 -52.5 -322
t-143.5 -270l256 -330h-381zM614 283q144 0 207 75l-221 320q-91 -78 -120 -124.5t-29 -100.5q0 -68 46.5 -119t116.5 -51zM545 1133q0 -32 22 -55t56 -23q35 0 57 23t22 55q0 33 -23 56t-56 23q-34 0 -56 -22t-22 -57z" />
    <glyph glyph-name="quotesingle" unicode="'" horiz-adv-x="512" 
d="M102 901v533h308v-533h-308z" />
    <glyph glyph-name="parenleft" unicode="(" horiz-adv-x="690" 
d="M690 -254l-194 -168q-414 357 -414 883q0 242 96.5 461t319.5 421l190 -167q-152 -155 -225.5 -325t-73.5 -390q0 -213 86 -402t215 -313z" />
    <glyph glyph-name="parenright" unicode=")" horiz-adv-x="690" 
d="M195 -422l-195 168q129 124 215 313t86 402q0 220 -73.5 390t-225.5 325l191 167q223 -202 319 -421t96 -461q0 -527 -413 -883z" />
    <glyph glyph-name="asterisk" unicode="*" horiz-adv-x="1056" 
d="M381 1307q0 62 43 105.5t104 43.5q62 0 106 -44t44 -105t-44 -104.5t-106 -43.5q-61 0 -104 43t-43 105zM377 625q0 62 43 105.5t104 43.5q62 0 106 -44t44 -105t-44 -104.5t-106 -43.5q-61 0 -104 43t-43 105zM678 1141q0 62 43 105.5t104 43.5q62 0 106 -44t44 -105
t-44 -104.5t-106 -43.5q-61 0 -104 43t-43 105zM678 801q0 62 43 105.5t104 43.5q62 0 106 -44t44 -105t-44 -104.5t-106 -43.5q-61 0 -104 43t-43 105zM82 801q0 62 43 105.5t104 43.5q62 0 106 -44t44 -105t-44 -104.5t-106 -43.5q-61 0 -104 43t-43 105zM82 1141
q0 62 43 105.5t104 43.5q62 0 106 -44t44 -105t-44 -104.5t-106 -43.5q-61 0 -104 43t-43 105z" />
    <glyph glyph-name="plus" unicode="+" 
d="M129 604v266h340v351h287v-351h344v-266h-344v-354h-287v354h-340z" />
    <glyph glyph-name="comma" unicode="," horiz-adv-x="575" 
d="M82 166q0 86 51.5 138t147.5 52q99 0 156 -72.5t57 -185.5q0 -145 -76 -247.5t-217 -145.5l-84 141q31 13 44.5 19.5t35 22.5t39.5 38q46 53 40 88q-14 -14 -63 -14q-52 0 -91.5 48t-39.5 118z" />
    <glyph glyph-name="hyphen" unicode="-" horiz-adv-x="745" 
d="M102 420v287h541v-287h-541z" />
    <glyph glyph-name="period" unicode="." horiz-adv-x="565" 
d="M82 197q0 74 58 133t151 59q82 0 137 -59.5t55 -132.5q0 -85 -54 -147t-138 -62q-95 0 -152 61.5t-57 147.5z" />
    <glyph glyph-name="slash" unicode="/" horiz-adv-x="782" 
d="M-61 -338l669 1796l236 -88l-668 -1796z" />
    <glyph glyph-name="zero" unicode="0" horiz-adv-x="1114" 
d="M61 717q0 343 125.5 538t370.5 195t370.5 -195t125.5 -538q0 -344 -124 -538.5t-368 -194.5q-245 0 -372.5 195t-127.5 538zM389 717q0 -447 172 -447q89 0 126.5 99t37.5 348q0 248 -39 347t-129 99q-88 0 -128 -102t-40 -344z" />
    <glyph glyph-name="one" unicode="1" horiz-adv-x="815" 
d="M20 1151l390 283h221v-1434h-307v997l-144 -100z" />
    <glyph glyph-name="two" unicode="2" horiz-adv-x="1069" 
d="M61 0v246q25 24 89.5 86.5t96 94t89 91.5t88.5 98t72 94.5t62 100t36.5 94t15.5 96.5q0 142 -131 142q-61 0 -95.5 -39.5t-61.5 -114.5l-256 117q35 158 151 251t299 93q199 0 310.5 -112.5t111.5 -274.5q0 -405 -479 -776h528v-287h-926z" />
    <glyph glyph-name="three" unicode="3" horiz-adv-x="1083" 
d="M494 -25q-170 0 -291 66.5t-183 171.5l170 227q138 -157 283 -157q89 0 134.5 39.5t45.5 99.5q0 158 -243 158h-91v307h82q87 0 142 36.5t55 106.5q0 51 -32 86t-99 35q-143 0 -248 -129l-168 221q134 215 445 215q191 0 310.5 -99.5t119.5 -266.5q0 -126 -52 -206
t-161 -130v-6q129 -26 198.5 -117t69.5 -223q0 -198 -138 -316.5t-349 -118.5z" />
    <glyph glyph-name="four" unicode="4" horiz-adv-x="1187" 
d="M672 0v307h-652v230l512 897h353l-469 -820h256v308h307v-308h168v-307h-168v-307h-307z" />
    <glyph glyph-name="five" unicode="5" horiz-adv-x="1048" 
d="M129 631l98 803h709v-308h-438l-29 -182h49q125 0 226 -54.5t162 -162.5t61 -250q0 -157 -70 -272t-187.5 -172.5t-265.5 -57.5q-120 0 -241 52t-183 141l173 235q42 -51 115.5 -85.5t144.5 -34.5q83 0 134.5 50t51.5 130q0 91 -69.5 148t-194.5 57q-71 0 -143 -11.5
t-103 -25.5z" />
    <glyph glyph-name="six" unicode="6" horiz-adv-x="1155" 
d="M82 508q0 152 44.5 292.5t117.5 246.5t167 192t191.5 140t192.5 79l125 -231q-163 -56 -288 -162t-186 -250q45 42 104 60t148 18q103 0 193 -53.5t146.5 -154.5t56.5 -228q0 -93 -27.5 -172.5t-74.5 -135.5t-109.5 -96t-131.5 -59t-141 -19q-117 0 -216.5 42
t-167.5 114.5t-106 170t-38 206.5zM410 506q0 -103 53 -163t149 -60q76 0 115 44.5t39 106.5q0 76 -45.5 124t-128.5 48q-112 0 -182 -100z" />
    <glyph glyph-name="seven" unicode="7" horiz-adv-x="1044" 
d="M41 1126v308h942v-209l-485 -1225h-336l454 1126h-575z" />
    <glyph glyph-name="eight" unicode="8" horiz-adv-x="1239" 
d="M608 891h27q67 0 103 40t36 93q0 61 -40.5 94t-117.5 33q-75 0 -113 -36t-38 -91q0 -53 36.5 -93t106.5 -40zM635 584h-25q-74 0 -127 -40t-53 -112q0 -65 46.5 -107t141.5 -42q195 0 191 149q-1 74 -49 113t-125 39zM621 -25q-228 0 -373.5 108t-145.5 288q0 136 62 228
t158 134v6q-79 43 -132 129.5t-53 210.5q0 166 138.5 272.5t342.5 106.5t344 -106.5t140 -272.5q0 -106 -55 -199t-150 -139v-6q101 -27 170.5 -116.5t69.5 -221.5q0 -198 -143 -310t-373 -112z" />
    <glyph glyph-name="nine" unicode="9" horiz-adv-x="1144" 
d="M1063 905q0 -164 -38.5 -306.5t-107 -250t-163 -187.5t-207 -126t-238.5 -60l-100 244q199 44 318 138t171 241q-83 -78 -223 -78q-116 0 -215 56.5t-159 159.5t-60 231q0 93 28.5 173.5t77.5 137.5t112.5 98.5t133.5 61.5t142 20q239 0 383.5 -151t144.5 -402zM735 907
q0 105 -54.5 174.5t-148.5 69.5q-76 0 -119.5 -50t-43.5 -112q0 -76 50 -129t134 -53q112 0 182 100z" />
    <glyph glyph-name="colon" unicode=":" horiz-adv-x="647" 
d="M123 754q0 74 58 133t151 59q82 0 137 -59.5t55 -132.5q0 -85 -54 -147t-138 -62q-95 0 -152 61.5t-57 147.5zM123 197q0 74 58 133t151 59q82 0 137 -59.5t55 -132.5q0 -85 -54 -147t-138 -62q-95 0 -152 61.5t-57 147.5z" />
    <glyph glyph-name="semicolon" unicode=";" horiz-adv-x="661" 
d="M123 754q0 74 58 133t151 59q82 0 137 -59.5t55 -132.5q0 -85 -54 -147t-138 -62q-95 0 -152 61.5t-57 147.5zM127 166q0 86 51.5 138t147.5 52q99 0 156 -72.5t57 -185.5q0 -145 -76 -247.5t-217 -145.5l-84 141q31 13 44.5 19.5t35 22.5t39.5 38q46 54 41 88
q-14 -14 -64 -14q-52 0 -91.5 48t-39.5 118z" />
    <glyph glyph-name="less" unicode="&#x3c;" 
d="M1085 111l-1003 565v131l1003 561v-332l-581 -295l581 -299v-331z" />
    <glyph glyph-name="equal" unicode="=" 
d="M129 809v266h971v-266h-971zM129 399v267h971v-267h-971z" />
    <glyph glyph-name="greater" unicode="&#x3e;" 
d="M1147 676l-1004 -565v331l582 299l-582 295v332l1004 -561v-131z" />
    <glyph glyph-name="question" unicode="?" horiz-adv-x="985" 
d="M614 1024q0 50 -39.5 88.5t-95.5 38.5q-75 0 -123 -25.5t-94 -85.5l-180 207q58 94 166.5 152.5t247.5 58.5q206 0 327 -105t121 -261q0 -81 -21 -148t-53.5 -112t-72.5 -83.5t-78 -69t-69 -60.5t-47 -66t-11 -78h-279q-10 69 1.5 125t37.5 93t59.5 68t69 58t65.5 55
t49 66t19 84zM260 197q0 74 58 133t151 59q83 0 138 -59.5t55 -132.5q0 -85 -54.5 -147t-138.5 -62q-95 0 -152 61.5t-57 147.5z" />
    <glyph glyph-name="at" unicode="@" horiz-adv-x="2019" 
d="M1165 0v47q-92 -72 -219 -72q-207 0 -328.5 133.5t-121.5 352.5q0 205 150.5 345t387.5 140q120 0 240.5 -33t198.5 -82v-544h38q47 0 83 72.5t36 205.5q0 102 -40 194.5t-114 164.5t-189.5 114.5t-256.5 42.5q-129 0 -244 -40.5t-204 -116t-141 -195.5t-52 -268
q0 -136 52 -253.5t140 -197.5t204.5 -125t244.5 -45q112 0 221 25l11 -285q-120 -26 -232 -26q-197 0 -368.5 67t-294.5 185.5t-194 288t-71 366.5q0 189 71 356.5t193.5 288.5t295.5 191.5t368 70.5q187 0 349.5 -57.5t281.5 -160t187.5 -254t68.5 -331.5
q0 -143 -49.5 -265t-152.5 -205.5t-242 -94.5h-308zM1001 262q93 0 164 68v297q-69 32 -133 32q-109 0 -159 -60.5t-50 -152.5q0 -88 50 -136t128 -48z" />
    <glyph glyph-name="A" unicode="A" horiz-adv-x="1484" 
d="M0 0l596 1434h293l596 -1434h-350l-119 301h-567l-119 -301h-330zM733 1014l-162 -406h322z" />
    <glyph glyph-name="B" unicode="B" horiz-adv-x="1263" 
d="M184 4v1426q240 12 434 12q125 0 219 -27.5t150.5 -77t84.5 -112.5t28 -140q0 -211 -164 -319v-4q87 -33 146 -116t59 -212q0 -146 -72.5 -247.5t-193 -148t-279.5 -46.5q-286 0 -412 12zM639 580h-127v-269q46 -12 111 -12q94 0 142 39.5t48 112.5q0 129 -174 129z
M614 1135q-19 0 -102 -9v-260h109q69 0 110 33.5t41 106.5q0 61 -46.5 95t-111.5 34z" />
    <glyph glyph-name="C" unicode="C" horiz-adv-x="1341" 
d="M1176 387l124 -246q-65 -73 -193.5 -119.5t-272.5 -46.5q-220 0 -391 92t-266 261t-95 389q0 124 30 235t91.5 204t150 160t210.5 104.5t267 37.5q138 0 255 -41.5t184 -107.5l-146 -246q-71 43 -136 65.5t-157 22.5q-173 0 -287 -114.5t-114 -319.5q0 -191 120.5 -312.5
t313.5 -121.5q173 0 312 104z" />
    <glyph glyph-name="D" unicode="D" horiz-adv-x="1523" 
d="M184 0v1434h29q36 0 205.5 3t218.5 3q167 0 303 -37.5t228.5 -103t155 -156t90.5 -194t28 -220.5q0 -152 -52.5 -284t-152 -232.5t-258.5 -158.5t-358 -58q-30 0 -178 2t-224 2h-35zM633 1133q-73 0 -121 -7v-819q43 -4 119 -4q215 0 339 112t124 314q0 193 -127.5 298.5
t-333.5 105.5z" />
    <glyph glyph-name="E" unicode="E" horiz-adv-x="1177" 
d="M184 0v1434h850v-308h-522v-252h461v-307h-461v-260h543v-307h-871z" />
    <glyph glyph-name="F" unicode="F" horiz-adv-x="1095" 
d="M184 0v1434h830v-308h-502v-303h440v-307h-440v-516h-328z" />
    <glyph glyph-name="G" unicode="G" horiz-adv-x="1488" 
d="M774 510v307h612v-639q-92 -92 -244.5 -147.5t-291.5 -55.5q-182 0 -327 53t-241.5 150.5t-148 234.5t-51.5 304q0 154 51 289.5t143 235.5t230 158t303 58q152 0 264 -38t205 -111l-137 -265q-43 46 -126.5 76.5t-166.5 30.5q-121 0 -213.5 -46t-148.5 -145.5
t-56 -242.5q0 -198 116 -316t308 -118q61 0 129.5 23t95.5 48v156h-305z" />
    <glyph glyph-name="H" unicode="H" horiz-adv-x="1546" 
d="M1034 0v578h-522v-578h-328v1434h328v-549h522v549h328v-1434h-328z" />
    <glyph glyph-name="I" unicode="I" horiz-adv-x="737" 
d="M205 0v1434h327v-1434h-327z" />
    <glyph glyph-name="J" unicode="J" horiz-adv-x="833" 
d="M649 1434v-1084q0 -183 -98 -279t-281 -96q-87 0 -163.5 31t-106.5 70l106 250q57 -43 119 -43q44 0 70.5 33t26.5 94v1024h327z" />
    <glyph glyph-name="K" unicode="K" horiz-adv-x="1417" 
d="M184 0v1434h328v-625l469 625h393l-538 -662l581 -772h-416l-489 682v-682h-328z" />
    <glyph glyph-name="L" unicode="L" horiz-adv-x="1116" 
d="M184 0v1434h328v-1127h584v-307h-912z" />
    <glyph glyph-name="M" unicode="M" horiz-adv-x="1867" 
d="M184 0v1434h330l442 -605l418 605h309v-1434h-327v913l-400 -559h-47l-397 553v-907h-328z" />
    <glyph glyph-name="N" unicode="N" horiz-adv-x="1617" 
d="M1434 0h-263l-679 860v-860h-308v1434h262l680 -865v865h308v-1434z" />
    <glyph glyph-name="O" unicode="O" horiz-adv-x="1687" 
d="M82 717q0 155 55.5 291t153.5 235.5t241.5 157t311.5 57.5q218 0 390.5 -89t272 -258.5t99.5 -393.5q0 -160 -58 -298.5t-159 -235.5t-242 -152.5t-303 -55.5q-163 0 -303 52t-241.5 147t-159.5 235t-58 308zM430 717q0 -183 120.5 -308.5t293.5 -125.5q132 0 227 58.5
t140.5 155.5t45.5 220q0 193 -118 313.5t-295 120.5q-181 0 -297.5 -120t-116.5 -314z" />
    <glyph glyph-name="P" unicode="P" horiz-adv-x="1284" 
d="M512 0h-328v1434q36 0 208 2t231 2q127 0 227.5 -26t165.5 -69.5t107.5 -105.5t60.5 -129.5t18 -144.5q0 -96 -36.5 -183t-103 -153.5t-168 -106t-222.5 -39.5q-109 0 -160 6v-487zM655 1130q-7 0 -143 -4v-327q86 -11 150 -11q35 0 66.5 8.5t61 27.5t47 55t17.5 86
q0 90 -52 127.5t-147 37.5z" />
    <glyph glyph-name="Q" unicode="Q" horiz-adv-x="1687" 
d="M82 717q0 155 55.5 291t153.5 235.5t241.5 157t311.5 57.5q218 0 390.5 -89t272 -258.5t99.5 -393.5q0 -291 -179 -492l195 -225h-379l-45 51q-161 -76 -354 -76q-163 0 -303 52t-241.5 147t-159.5 235t-58 308zM430 717q0 -183 120.5 -308.5t293.5 -125.5q74 0 139 18
l-113 131l215 193l119 -140q53 100 53 232q0 193 -118 313.5t-295 120.5q-181 0 -297.5 -120t-116.5 -314z" />
    <glyph glyph-name="R" unicode="R" horiz-adv-x="1378" 
d="M512 0h-328v1434q45 0 258.5 2t229.5 2q143 0 247 -34t165 -97t89.5 -144t28.5 -184q0 -76 -18 -141.5t-43.5 -108t-61.5 -78.5t-62.5 -54t-55.5 -32l417 -565h-397l-348 502h-121v-502zM655 1130q-7 0 -143 -4v-317h119q101 0 162 40t61 126q0 155 -199 155z" />
    <glyph glyph-name="S" unicode="S" horiz-adv-x="1140" 
d="M711 393q0 43 -33 79t-85.5 64t-116.5 57.5t-128 68.5t-116.5 87.5t-85.5 124.5t-33 170q0 172 127 293t335 121q135 0 244 -42t178 -116l-176 -245q-55 51 -99.5 73.5t-117.5 22.5q-67 0 -105 -28.5t-38 -78.5q0 -42 25.5 -77t67.5 -59t96 -50.5t110 -51t110 -62.5
t96 -82.5t67.5 -112.5t25.5 -152q0 -185 -141 -303.5t-351 -118.5q-155 0 -295 63t-190 173l186 223q58 -74 142 -112.5t165 -38.5q64 0 100 29.5t36 80.5z" />
    <glyph glyph-name="T" unicode="T" 
d="M20 1126v308h1188v-308h-430v-1126h-327v1126h-431z" />
    <glyph glyph-name="U" unicode="U" horiz-adv-x="1538" 
d="M1374 1434v-842q0 -128 -31.5 -232t-86 -174.5t-129.5 -119t-160 -70t-179 -21.5q-139 0 -253 40t-197 117.5t-128.5 198t-45.5 275.5v828h328v-758q0 -88 14.5 -156t47 -123t92 -84.5t142.5 -29.5q142 0 200.5 95t58.5 279v777h327z" />
    <glyph glyph-name="V" unicode="V" horiz-adv-x="1343" 
d="M1364 1434l-559 -1434h-252l-573 1434h350l360 -947l344 947h330z" />
    <glyph glyph-name="W" unicode="W" horiz-adv-x="2048" 
d="M2048 1434l-403 -1434h-314l-299 922l-295 -922h-313l-424 1434h371l241 -906l269 906h329l277 -906l246 906h315z" />
    <glyph glyph-name="X" unicode="X" horiz-adv-x="1380" 
d="M1362 1434l-459 -703l477 -731h-385l-307 481l-303 -481h-385l477 731l-454 703h385l290 -461l279 461h385z" />
    <glyph glyph-name="Y" unicode="Y" horiz-adv-x="1339" 
d="M1339 1434l-508 -850v-584h-327v584l-504 850h375l307 -543l303 543h354z" />
    <glyph glyph-name="Z" unicode="Z" horiz-adv-x="1331" 
d="M123 1126v308h1106v-230l-711 -897h731v-307h-1167v229l709 897h-668z" />
    <glyph glyph-name="bracketleft" unicode="[" horiz-adv-x="778" 
d="M123 -410v1741h614v-287h-307v-1167h307v-287h-614z" />
    <glyph glyph-name="backslash" unicode="\" horiz-adv-x="782" 
d="M174 1458l670 -1796l-238 -88l-667 1796z" />
    <glyph glyph-name="bracketright" unicode="]" horiz-adv-x="778" 
d="M655 1331v-1741h-614v287h307v1167h-307v287h614z" />
    <glyph glyph-name="asciicircum" unicode="^" horiz-adv-x="1069" 
d="M41 922l389 528h213l385 -528h-332l-161 225l-162 -225h-332z" />
    <glyph glyph-name="underscore" unicode="_" horiz-adv-x="768" 
d="M0 -410v308h768v-308h-768z" />
    <glyph glyph-name="grave" unicode="`" horiz-adv-x="700" 
d="M395 1030l-272 295l244 182l211 -348z" />
    <glyph glyph-name="a" unicode="a" horiz-adv-x="952" 
d="M211 633l-76 223q60 37 155.5 63.5t186.5 26.5q204 0 293.5 -98t89.5 -293v-555h-266v84q-33 -46 -98.5 -71t-143.5 -25q-128 0 -209.5 77.5t-81.5 213.5q0 150 93.5 227.5t238.5 77.5q56 0 105.5 -16t74.5 -36q4 80 -29.5 119t-97.5 39q-23 0 -44 -1.5t-41 -6
t-34.5 -7.5t-34.5 -10t-28 -10t-28.5 -11.5t-24.5 -10.5zM457 244q82 0 116 47v57q-45 31 -116 31q-39 0 -63.5 -18.5t-24.5 -51.5q0 -30 24.5 -47.5t63.5 -17.5z" />
    <glyph glyph-name="b" unicode="b" horiz-adv-x="1120" 
d="M113 74v1360h307v-537q93 49 203 49q200 0 318 -131.5t118 -339.5q0 -229 -144 -364.5t-395 -135.5q-108 0 -222.5 30.5t-184.5 68.5zM549 659q-70 0 -129 -59v-311q52 -27 115 -27q86 0 141 51.5t55 143.5q0 101 -54 151.5t-128 50.5z" />
    <glyph glyph-name="c" unicode="c" horiz-adv-x="993" 
d="M801 365l143 -226q-58 -79 -157 -121.5t-220 -42.5q-230 0 -368 133.5t-138 352.5q0 134 60.5 244t173 175.5t254.5 65.5q252 0 377 -131l-142 -242q-86 86 -196 86q-79 0 -139 -53t-60 -145q0 -89 62.5 -144t140.5 -55q113 0 209 103z" />
    <glyph glyph-name="d" unicode="d" horiz-adv-x="1140" 
d="M721 0v76q-95 -92 -234 -92q-195 0 -310.5 127t-115.5 338q0 220 141.5 358.5t366.5 138.5q91 0 152 -28v516h307v-1434h-307zM551 270q95 0 170 68v283q-65 38 -137 38q-79 0 -137 -52t-58 -148q0 -88 49 -138.5t113 -50.5z" />
    <glyph glyph-name="e" unicode="e" horiz-adv-x="1048" 
d="M836 297l84 -217q-140 -105 -359 -105q-227 0 -363.5 133.5t-136.5 352.5q0 134 61 244t176 175.5t263 65.5q119 0 220.5 -53t164 -153.5t62.5 -227.5q0 -89 -19 -154h-610q21 -63 78.5 -95t136.5 -32q138 0 242 66zM551 690q-74 0 -116.5 -31.5t-65.5 -95.5h331
q0 51 -40 89t-109 38z" />
    <glyph glyph-name="f" unicode="f" horiz-adv-x="655" 
d="M113 0v1071q0 188 89.5 287.5t246.5 99.5q83 0 157 -25t111 -65l-103 -233q-33 36 -110 36q-34 0 -59 -30.5t-25 -87.5v-131h194v-287h-194v-635h-307z" />
    <glyph glyph-name="g" unicode="g" horiz-adv-x="1032" 
d="M0 -119q0 115 82 188.5t223 102.5q-12 24 -12 51q0 31 14 53q-107 42 -167 127.5t-60 188.5q0 145 111.5 249.5t295.5 104.5q137 0 236 -61l289 57l10 -246l-137 -26q10 -45 10 -78q0 -136 -103 -236t-272 -110q-2 -8 -2 -23q0 -17 6 -35q131 -4 230.5 -36.5t162 -102
t62.5 -168.5q0 -103 -68 -173.5t-175.5 -102t-246.5 -31.5q-104 0 -190 17.5t-154.5 53.5t-106.5 96t-38 140zM287 -119q0 -61 202 -61q203 0 203 61q0 64 -203 64q-101 0 -151.5 -17.5t-50.5 -46.5zM367 592q0 -44 31.5 -72t88.5 -28q54 0 87.5 26t33.5 74q0 46 -30.5 77
t-90.5 31q-56 0 -88 -32t-32 -76z" />
    <glyph glyph-name="h" unicode="h" horiz-adv-x="1114" 
d="M113 0v1434h307v-576q90 80 227 80q83 0 149 -22t118 -68t80 -124t28 -183v-541h-307v502q0 68 -41.5 108.5t-106.5 40.5q-88 0 -147 -59v-592h-307z" />
    <glyph glyph-name="i" unicode="i" horiz-adv-x="585" 
d="M139 0v922h307v-922h-307zM113 1239q0 79 54 126.5t132 47.5q70 0 122 -48t52 -126q0 -86 -51.5 -136t-122.5 -50q-79 0 -132.5 49.5t-53.5 136.5z" />
    <glyph glyph-name="j" unicode="j" horiz-adv-x="575" 
d="M463 922v-990q0 -358 -289 -358q-79 0 -147 20.5t-99 49.5l80 243q48 -26 90 -26q58 0 58 100v961h307zM131 1239q0 79 54 126.5t132 47.5q70 0 122.5 -48t52.5 -126q0 -86 -52 -136t-123 -50q-79 0 -132.5 49.5t-53.5 136.5z" />
    <glyph glyph-name="k" unicode="k" horiz-adv-x="1099" 
d="M113 0v1434h307v-912l252 400h385l-299 -416l342 -506h-393l-287 440v-440h-307z" />
    <glyph glyph-name="l" unicode="l" horiz-adv-x="632" 
d="M113 264v1170h307v-1053q0 -119 51 -119q6 0 12 0.5t12.5 3t10.5 3.5t11.5 5.5l10 6t12 7.5t11.5 7l61 -234q-104 -86 -270 -86q-229 0 -229 289z" />
    <glyph glyph-name="m" unicode="m" horiz-adv-x="1634" 
d="M1542 602v-602h-307v520q0 131 -115 131q-47 0 -85.5 -22.5t-53.5 -57.5v-571h-307v522q0 60 -27.5 94.5t-81.5 34.5q-94 0 -145 -73v-578h-307v922h307v-86q102 102 272 102q101 0 168.5 -38t93.5 -97q109 135 297 135q134 0 212.5 -79t78.5 -257z" />
    <glyph glyph-name="n" unicode="n" horiz-adv-x="1114" 
d="M113 0v922h307v-72q40 38 99.5 63t127.5 25q83 0 149 -20.5t118 -65t80 -121.5t28 -182v-549h-307v496q0 77 -41 116t-111 39q-80 0 -143 -63v-588h-307z" />
    <glyph glyph-name="o" unicode="o" horiz-adv-x="1146" 
d="M61 461q0 211 140 348t372 137t372 -137t140 -348t-140 -348.5t-372 -137.5t-372 137.5t-140 348.5zM389 461q0 -87 52.5 -143t131.5 -56q80 0 132.5 54t52.5 145q0 88 -53.5 143t-131.5 55q-77 0 -130.5 -54t-53.5 -144z" />
    <glyph glyph-name="p" unicode="p" horiz-adv-x="1148" 
d="M113 -410v1332h307v-70q41 41 108.5 67.5t147.5 26.5q184 0 297.5 -132.5t113.5 -338.5q0 -140 -60.5 -253.5t-174.5 -180t-260 -66.5q-103 0 -172 29v-414h-307zM580 659q-88 0 -160 -81v-281q34 -20 64 -27.5t79 -7.5q95 0 146 58.5t51 148.5q0 83 -47.5 136.5
t-132.5 53.5z" />
    <glyph glyph-name="q" unicode="q" horiz-adv-x="1150" 
d="M731 -410v428q-93 -43 -184 -43q-224 0 -355 133t-131 353q0 205 151 345t388 140q120 0 240 -33t198 -82v-1241h-307zM588 262q87 0 143 53v312q-69 32 -133 32q-109 0 -159 -60.5t-50 -152.5q0 -76 55.5 -130t143.5 -54z" />
    <glyph glyph-name="r" unicode="r" horiz-adv-x="753" 
d="M113 0v922h307v-74q31 44 74 67t116 23q97 0 144 -35l-109 -287q-58 35 -113 35q-77 0 -112 -65v-586h-307z" />
    <glyph glyph-name="s" unicode="s" horiz-adv-x="940" 
d="M571 272q0 19 -27 33.5t-70 25t-94.5 23t-103.5 34.5t-95 53t-70 83.5t-27 120.5q0 143 102.5 222t257.5 79q243 0 387 -125l-114 -217q-48 34 -117 60t-137 26q-32 0 -52 -12.5t-20 -28.5q0 -19 27 -32.5t70 -24t95 -22.5t104 -33.5t95 -51t70 -80.5t27 -118
q0 -141 -107.5 -226.5t-290.5 -85.5q-135 0 -259 56.5t-161 113.5l146 201q44 -42 135.5 -78.5t159.5 -36.5q69 0 69 41z" />
    <glyph glyph-name="t" unicode="t" horiz-adv-x="749" 
d="M92 350v828h307v-256h256v-287h-256v-270q0 -44 15.5 -73.5t44.5 -29.5q31 0 58.5 9t42 18t36.5 26l92 -235q-51 -44 -132 -74.5t-177 -30.5q-152 0 -219.5 95.5t-67.5 279.5z" />
    <glyph glyph-name="u" unicode="u" horiz-adv-x="1085" 
d="M973 922v-922h-307v92q-92 -117 -265 -117q-60 0 -114.5 22t-98.5 65.5t-70 115.5t-26 164v580h307v-514q0 -62 28.5 -104t90.5 -42q81 0 148 84v576h307z" />
    <glyph glyph-name="v" unicode="v" horiz-adv-x="995" 
d="M1016 922l-387 -922h-232l-417 922h364l119 -291q41 -95 61 -213q20 115 60 215l108 289h324z" />
    <glyph glyph-name="w" unicode="w" horiz-adv-x="1507" 
d="M1507 922l-284 -922h-281l-164 426q-6 15 -10.5 31.5t-9 40t-6.5 32.5q-8 -56 -29 -108l-164 -422h-264l-295 922h330l112 -422q8 -29 21 -117q13 77 26 117l140 422h274l144 -420q10 -27 28 -121q11 77 23 125l100 416h309z" />
    <glyph glyph-name="x" unicode="x" horiz-adv-x="1099" 
d="M1059 922l-287 -439l307 -483h-374l-160 291l-170 -291h-355l306 467l-285 455h375l141 -263l148 263h354z" />
    <glyph glyph-name="y" unicode="y" horiz-adv-x="1056" 
d="M1057 922l-359 -922q-67 -165 -123.5 -254t-110.5 -122.5t-128 -33.5q-118 0 -219 86l98 232q49 -33 88 -33q58 0 88 76l21 49l-412 922h371l157 -422q15 -39 35 -127q8 77 23 129l121 420h350z" />
    <glyph glyph-name="z" unicode="z" horiz-adv-x="1013" 
d="M113 635v287h819v-226l-424 -409h414v-287h-840v225l422 410h-391z" />
    <glyph glyph-name="braceleft" unicode="{" horiz-adv-x="798" 
d="M225 -88v215q0 58 -16.5 99.5t-45 63t-58.5 30.5t-64 8v266q31 0 60.5 10t58.5 33.5t47 70t18 111.5v174q0 176 82.5 257t280.5 81h170v-287h-92q-77 0 -105.5 -31.5t-28.5 -127.5v-189q0 -99 -41.5 -161.5t-111.5 -71.5q70 -8 111.5 -65t41.5 -169v-188q0 -90 32 -127
t114 -37h80v-287h-195q-168 0 -253 74.5t-85 247.5z" />
    <glyph glyph-name="bar" unicode="|" horiz-adv-x="716" 
d="M205 0v1434h307v-1434h-307z" />
    <glyph glyph-name="braceright" unicode="}" horiz-adv-x="798" 
d="M573 127v-215q0 -173 -85 -247.5t-252 -74.5h-195v287h80q82 0 113.5 36.5t31.5 127.5v188q0 112 42 169t112 65q-70 9 -112 71.5t-42 161.5v189q0 96 -28 127.5t-105 31.5h-92v287h170q198 0 280 -81t82 -257v-174q0 -65 18 -111.5t47.5 -70t59 -33.5t60.5 -10v-266
q-34 1 -64 -8t-58.5 -30.5t-45.5 -63t-17 -99.5z" />
    <glyph glyph-name="asciitilde" unicode="~" 
d="M199 551l-131 197q67 82 153 133t168 51q56 0 123 -21t119.5 -46.5t118 -46.5t118.5 -21q45 0 94.5 28t79.5 64l119 -211q-66 -63 -144.5 -105.5t-150.5 -42.5q-55 0 -121 21t-117 47t-112 47t-106 21q-96 0 -211 -115z" />
    <glyph glyph-name="uni00A0" unicode="&#xa0;" horiz-adv-x="409" 
 />
    <glyph glyph-name="exclamdown" unicode="&#xa1;" horiz-adv-x="634" 
d="M481 381v-881h-327v881h327zM518 737q0 -74 -58 -133t-151 -59q-82 0 -137 59.5t-55 132.5q0 85 54 147t138 62q95 0 152 -61.5t57 -147.5z" />
    <glyph glyph-name="cent" unicode="&#xa2;" 
d="M913 365l144 -226q-86 -118 -248 -149v-236h-307v246q-154 46 -241 167t-87 294q0 162 89 288t239 173v231h307v-221q143 -28 229 -117l-141 -242q-86 86 -197 86q-79 0 -138.5 -53t-59.5 -145q0 -89 62.5 -144t140.5 -55q112 0 208 103z" />
    <glyph glyph-name="sterling" unicode="&#xa3;" 
d="M125 522v246h164q-4 7 -20 36t-21.5 39.5t-18.5 36.5t-18 42l-12.5 40t-10 46.5t-2.5 46.5q0 176 136 285.5t348 109.5q253 0 411 -168l-168 -242q-63 55 -113.5 79t-115.5 24q-67 0 -108 -30t-41 -83q0 -42 19.5 -83t50.5 -90.5t46 -88.5h281v-246h-283
q-35 -76 -102 -147q25 -8 74 -24.5t79 -26t71.5 -17.5t76.5 -8q64 0 112.5 17.5t104.5 70.5l133 -240q-67 -72 -160.5 -113.5t-193.5 -41.5q-79 0 -233.5 53t-233.5 53q-99 0 -207 -112l-121 245q94 117 213 154q64 82 78 137h-215z" />
    <glyph glyph-name="currency" unicode="&#xa4;" 
d="M135 696q0 126 60 234l-146 147l189 189l149 -152q96 47 227 47q124 0 226 -47l151 150l189 -189l-146 -145q60 -108 60 -234q0 -121 -58 -231l144 -141l-189 -189l-147 146q-106 -50 -230 -50q-127 0 -229 50l-147 -148l-189 189l144 143q-58 104 -58 231zM422 696
q0 -87 51.5 -142.5t140.5 -55.5q95 0 144 54.5t49 143.5q0 95 -51 147t-142 52q-88 0 -140 -53t-52 -146z" />
    <glyph glyph-name="yen" unicode="&#xa5;" 
d="M129 584v245h190l-313 605h375l246 -543l241 543h355l-318 -605h195v-245h-324v-123h324v-246h-324v-215h-327v215h-320v246h320v123h-320z" />
    <glyph glyph-name="brokenbar" unicode="&#xa6;" horiz-adv-x="716" 
d="M512 901h-307v533h307v-533zM205 532h307v-532h-307v532z" />
    <glyph glyph-name="section" unicode="&#xa7;" horiz-adv-x="1073" 
d="M102 510q0 119 57.5 211t168.5 137q-58 43 -90.5 115.5t-32.5 163.5q0 124 96 210.5t274 86.5q92 0 174 -42t136 -112l-183 -205q-33 37 -58.5 54.5t-55.5 17.5q-29 0 -52.5 -22.5t-23.5 -51.5q0 -105 117 -184q166 -24 254 -128t88 -251q0 -119 -58.5 -211t-169.5 -137
q57 -44 89 -115t32 -160q0 -124 -96 -210.5t-274 -86.5q-92 0 -174 42t-136 112l183 205q33 -37 58.5 -54.5t55.5 -17.5q29 0 52.5 22.5t23.5 51.5q0 58 -28 99.5t-91 80.5q-163 25 -249.5 129t-86.5 250zM410 510q0 -43 29.5 -81t97.5 -38q72 0 99.5 36.5t27.5 82.5
q0 44 -30 82.5t-97 38.5q-66 0 -96.5 -38t-30.5 -83z" />
    <glyph glyph-name="dieresis" unicode="&#xa8;" horiz-adv-x="964" 
d="M123 1206q0 76 48.5 121t119.5 45q62 0 108.5 -45.5t46.5 -120.5q0 -82 -46 -129t-109 -47q-72 0 -120 46.5t-48 129.5zM518 1206q0 75 49 120.5t119 45.5q63 0 109.5 -45.5t46.5 -120.5q0 -82 -46 -129t-110 -47q-71 0 -119.5 46.5t-48.5 129.5z" />
    <glyph glyph-name="copyright" unicode="&#xa9;" horiz-adv-x="2084" 
d="M143 453q0 187 70 353.5t189.5 286t286 189.5t353.5 70t353.5 -70t286.5 -189.5t190 -286t70 -353.5t-70 -353.5t-190 -286t-286.5 -189.5t-353.5 -70t-353.5 70t-286 189.5t-189.5 286t-70 353.5zM410 451q0 -172 81 -316t227 -229.5t326 -85.5q177 0 322.5 85.5
t227 230t81.5 315.5q0 173 -81.5 318.5t-227 230.5t-322.5 85q-135 0 -253.5 -50t-201.5 -135.5t-131 -202t-48 -246.5zM1290 365l144 -226q-58 -79 -157 -121.5t-220 -42.5q-230 0 -368 133.5t-138 352.5q0 205 136.5 345t350.5 140q252 0 377 -131l-141 -242
q-86 86 -197 86q-79 0 -138.5 -53t-59.5 -145q0 -89 62 -144t140 -55q113 0 209 103z" />
    <glyph glyph-name="ordfeminine" unicode="&#xaa;" horiz-adv-x="952" 
d="M262 1090l-104 180q143 78 334 78q49 0 96.5 -10.5t91.5 -33.5t76.5 -56.5t52.5 -83t20 -109.5v-461h-266v78q-41 -46 -98 -68t-156 -22q-102 0 -164.5 68t-62.5 167q0 125 70 188.5t200 63.5q120 0 207 -35q-19 88 -121 88q-114 0 -176 -32zM451 807q53 0 112 29v30
q-70 19 -114 19q-80 0 -80 -39q0 -19 16.5 -29t65.5 -10z" />
    <glyph glyph-name="guillemotleft" unicode="&#xab;" horiz-adv-x="1212" 
d="M942 27l-410 481v8l420 481l199 -178l-264 -307l264 -311zM471 27l-410 481v8l420 481l199 -178l-264 -307l264 -311z" />
    <glyph glyph-name="logicalnot" unicode="&#xac;" 
d="M88 604v266h1053v-534h-267v268h-786z" />
    <glyph glyph-name="uni00AD" unicode="&#xad;" horiz-adv-x="745" 
d="M102 420v287h541v-287h-541z" />
    <glyph glyph-name="registered" unicode="&#xae;" horiz-adv-x="1449" 
d="M82 1020q0 174 85.5 320.5t234.5 232.5t327 86q130 0 248 -50.5t204 -136.5t136.5 -204t50.5 -248q0 -178 -86 -327.5t-233 -235.5t-320 -86q-133 0 -253 51t-206.5 137.5t-137 206.5t-50.5 254zM328 1016q0 -164 116.5 -281t280.5 -117t280.5 117t116.5 281
t-116.5 280.5t-280.5 116.5t-280.5 -116.5t-116.5 -280.5zM678 737h-205v574h279q122 0 183.5 -53t61.5 -148q0 -60 -28 -105.5t-66 -64.5l88 -203h-233l-47 156h-33v-156zM721 1167h-43v-131h39q76 0 76 70q0 61 -72 61z" />
    <glyph glyph-name="macron" unicode="&#xaf;" horiz-adv-x="847" 
d="M123 1065v246h602v-246h-602z" />
    <glyph glyph-name="degree" unicode="&#xb0;" horiz-adv-x="901" 
d="M82 1163q0 159 106.5 266t257.5 107q157 0 265 -100t108 -258q0 -157 -109.5 -268t-263.5 -111q-151 0 -257.5 104.5t-106.5 259.5zM348 1167q0 -41 31 -71.5t72 -30.5t71.5 30.5t30.5 71.5t-30.5 72t-71.5 31t-72 -31t-31 -72z" />
    <glyph glyph-name="plusminus" unicode="&#xb1;" 
d="M129 809v266h340v350h287v-350h344v-266h-344v-170h-287v170h-340zM129 297v266h971v-266h-971z" />
    <glyph glyph-name="twosuperior" unicode="&#xb2;" horiz-adv-x="770" 
d="M51 717v192q198 111 251 147q101 69 101 113q0 48 -53 48q-31 0 -51.5 -29t-26.5 -60l-219 80q19 108 102.5 171t225.5 63q147 0 227 -63t80 -171q0 -34 -11.5 -65t-28 -54t-44 -44.5t-50 -35t-56.5 -28.5t-53 -22t-50 -17h324v-225h-668z" />
    <glyph glyph-name="threesuperior" unicode="&#xb3;" horiz-adv-x="761" 
d="M371 702q-117 0 -211.5 42t-139.5 118l152 144q20 -32 62.5 -60t89.5 -28q90 0 90 36q0 31 -92 31h-56v184h51q74 0 74 37q0 10 -15.5 18.5t-43.5 8.5q-86 0 -164 -74l-125 146q105 143 344 143q127 0 209 -50.5t82 -133.5q0 -68 -44 -110t-120 -56v-2q90 -4 138 -50.5
t48 -115.5q0 -103 -97 -165.5t-232 -62.5z" />
    <glyph glyph-name="acute" unicode="&#xb4;" horiz-adv-x="696" 
d="M573 1329l-268 -299l-182 129l211 352z" />
    <glyph glyph-name="mu" unicode="&#xb5;" horiz-adv-x="1105" 
d="M993 922v-922h-307v92q-92 -117 -264 -117h-2v-385h-307v1332h307v-514q0 -62 28.5 -104t90.5 -42q80 0 147 84v576h307z" />
    <glyph glyph-name="mu" unicode="&#x3bc;" horiz-adv-x="1105" 
d="M993 922v-922h-307v92q-92 -117 -264 -117h-2v-385h-307v1332h307v-514q0 -62 28.5 -104t90.5 -42q80 0 147 84v576h307z" />
    <glyph glyph-name="paragraph" unicode="&#xb6;" horiz-adv-x="1067" 
d="M61 985q0 136 63.5 239.5t169 156.5t236.5 53h496v-287h-192v-1090q0 -242 -111 -362.5t-317 -120.5q-87 0 -172 34.5t-130 82.5l121 221q67 -51 158 -51q143 0 143 209v469q-119 1 -223.5 52.5t-173 155t-68.5 238.5z" />
    <glyph glyph-name="periodcentered" unicode="&#xb7;" horiz-adv-x="409" 
d="M4 627q0 74 58 133t151 59q83 0 138 -59.5t55 -132.5q0 -85 -54.5 -147t-138.5 -62q-95 0 -152 61.5t-57 147.5z" />
    <glyph glyph-name="cedilla" unicode="&#xb8;" horiz-adv-x="827" 
d="M123 -330l90 142q23 -23 62 -40.5t77 -17.5q45 0 45 27q0 19 -11.5 27t-39.5 8h-12v184h153v-53q104 -9 161 -56t57 -129q0 -88 -79.5 -140t-230.5 -52q-55 0 -101 9.5t-79 27t-51.5 30.5t-40.5 33z" />
    <glyph glyph-name="onesuperior" unicode="&#xb9;" horiz-adv-x="583" 
d="M20 1266l248 164h193v-713h-266v409l-78 -41z" />
    <glyph glyph-name="ordmasculine" unicode="&#xba;" horiz-adv-x="1069" 
d="M102 967q0 173 121 277t312 104t311.5 -104t120.5 -277t-120.5 -279t-311.5 -106t-312 106t-121 279zM389 967q0 -65 41 -102.5t105 -37.5q67 0 106 37.5t39 102.5q0 62 -40 98.5t-105 36.5t-105.5 -36.5t-40.5 -98.5z" />
    <glyph glyph-name="guillemotright" unicode="&#xbb;" horiz-adv-x="1212" 
d="M1151 508l-410 -481l-209 174l265 311l-265 307l199 178l420 -481v-8zM680 508l-410 -481l-209 174l265 311l-265 307l199 178l420 -481v-8z" />
    <glyph glyph-name="onequarter" unicode="&#xbc;" horiz-adv-x="1460" 
d="M20 1266l248 164h193v-713h-266v409l-78 -41zM82 96l1018 1362l172 -129l-1014 -1354zM1067 0v125h-391v178l289 414h252l-275 -387h125v131h246v-131h106v-205h-106v-125h-246z" />
    <glyph glyph-name="onehalf" unicode="&#xbd;" horiz-adv-x="1497" 
d="M20 1266l248 164h193v-713h-266v409l-78 -41zM82 96l1018 1362l172 -129l-1014 -1354zM748 0v193q198 111 251 147q101 69 101 113q0 47 -53 47q-31 0 -51.5 -28.5t-26.5 -59.5l-219 80q19 108 102 170.5t225 62.5q147 0 227 -62.5t80 -170.5q0 -47 -21.5 -88t-49.5 -67
t-74.5 -51t-75 -35.5t-71.5 -25.5h323v-225h-667z" />
    <glyph glyph-name="threequarters" unicode="&#xbe;" horiz-adv-x="1603" 
d="M246 96l1018 1362l172 -129l-1014 -1354zM1210 0v125h-391v178l289 414h252l-275 -387h125v131h246v-131h107v-205h-107v-125h-246zM391 702q-117 0 -211 42t-139 118l152 144q20 -33 62 -60.5t89 -27.5q90 0 90 36q0 31 -92 31h-55v184h51q74 0 74 37q0 10 -16 18.5
t-44 8.5q-86 0 -164 -74l-125 146q105 143 345 143q127 0 208.5 -50.5t81.5 -133.5q0 -68 -43.5 -110t-119.5 -56v-2q90 -4 138 -50.5t48 -115.5q0 -103 -97.5 -165.5t-232.5 -62.5z" />
    <glyph glyph-name="questiondown" unicode="&#xbf;" horiz-adv-x="985" 
d="M371 -90q0 -50 39.5 -88.5t95.5 -38.5q75 0 123 25.5t94 85.5l180 -207q-58 -94 -166.5 -152.5t-247.5 -58.5q-206 0 -327 105t-121 261q0 81 21 148t53.5 112t72.5 83.5t78 69t69 60.5t47 66t11 78h279q10 -69 -1.5 -125t-37.5 -93t-59.5 -68t-69 -58t-65.5 -55t-49 -66
t-19 -84zM725 737q0 -74 -58 -133t-151 -59q-82 0 -137 59.5t-55 132.5q0 85 54 147t138 62q95 0 152 -61.5t57 -147.5z" />
    <glyph glyph-name="Agrave" unicode="&#xc0;" horiz-adv-x="1484" 
d="M0 0l596 1434h293l596 -1434h-350l-119 301h-567l-119 -301h-330zM733 1014l-162 -406h322zM872 1491l-510 160l115 264l479 -242z" />
    <glyph glyph-name="Aacute" unicode="&#xc1;" horiz-adv-x="1484" 
d="M0 0l596 1434h293l596 -1434h-350l-119 301h-567l-119 -301h-330zM733 1014l-162 -406h322zM1120 1651l-510 -160l-84 182l480 242z" />
    <glyph glyph-name="Acircumflex" unicode="&#xc2;" horiz-adv-x="1484" 
d="M0 0l596 1434h293l596 -1434h-350l-119 301h-567l-119 -301h-330zM733 1014l-162 -406h322zM367 1651l364 243h8l377 -239l-119 -174l-262 135l-262 -135z" />
    <glyph glyph-name="Atilde" unicode="&#xc3;" horiz-adv-x="1484" 
d="M0 0l596 1434h293l596 -1434h-350l-119 301h-567l-119 -301h-330zM733 1014l-162 -406h322zM451 1528l-95 192q46 57 116.5 93t139.5 36q63 0 143 -30.5t134 -30.5q103 0 160 61l77 -192q-84 -135 -258 -135q-49 0 -135.5 30.5t-146.5 30.5q-69 0 -135 -55z" />
    <glyph glyph-name="Adieresis" unicode="&#xc4;" horiz-adv-x="1484" 
d="M0 0l596 1434h293l596 -1434h-350l-119 301h-567l-119 -301h-330zM733 1014l-162 -406h322zM311 1714q0 73 57.5 116.5t143.5 43.5q75 0 130.5 -44t55.5 -116q0 -80 -55 -126t-131 -46q-87 0 -144 45t-57 127zM784 1714q0 73 58 116.5t143 43.5q76 0 131 -44t55 -116
q0 -81 -54.5 -126.5t-131.5 -45.5q-86 0 -143.5 45.5t-57.5 126.5z" />
    <glyph glyph-name="Aring" unicode="&#xc5;" horiz-adv-x="1484" 
d="M420 1657q0 121 88.5 181t228.5 60q146 0 237 -60t91 -181q0 -84 -47 -140.5t-129 -84.5l596 -1432h-350l-119 301h-567l-119 -301h-330l594 1430q-80 28 -127 85.5t-47 141.5zM733 1014l-162 -406h322zM645 1657q0 -41 26.5 -62.5t69.5 -21.5q44 0 71.5 21.5t27.5 62.5
q0 39 -27.5 58.5t-71.5 19.5t-70 -19.5t-26 -58.5z" />
    <glyph glyph-name="AE" unicode="&#xc6;" horiz-adv-x="1937" 
d="M1794 1434v-308h-522v-252h461v-307h-461v-260h543v-307h-871v301h-440l-207 -301h-379l1030 1434h846zM944 936l-227 -328h227v328z" />
    <glyph glyph-name="Ccedilla" unicode="&#xc7;" horiz-adv-x="1341" 
d="M477 -322l98 152q26 -26 71 -51t81 -25q45 0 45 27q0 19 -11.5 27t-39.5 8h-12v168q-285 37 -456 235t-171 498q0 124 30 235t91.5 204t150 160t210.5 104.5t267 37.5q138 0 255 -41.5t184 -107.5l-146 -246q-71 43 -136 65.5t-157 22.5q-173 0 -287 -114.5t-114 -319.5
q0 -191 120.5 -312.5t313.5 -121.5q173 0 312 104l124 -246q-62 -70 -181.5 -116t-256.5 -50v-28q238 -17 238 -185q0 -87 -78.5 -139.5t-218.5 -52.5q-207 0 -326 108z" />
    <glyph glyph-name="Egrave" unicode="&#xc8;" horiz-adv-x="1177" 
d="M184 0v1434h850v-308h-522v-252h461v-307h-461v-260h543v-307h-871zM750 1491l-510 160l114 264l480 -242z" />
    <glyph glyph-name="Eacute" unicode="&#xc9;" horiz-adv-x="1177" 
d="M184 0v1434h850v-308h-522v-252h461v-307h-461v-260h543v-307h-871zM1018 1651l-510 -160l-84 182l479 242z" />
    <glyph glyph-name="Ecircumflex" unicode="&#xca;" horiz-adv-x="1177" 
d="M184 0v1434h850v-308h-522v-252h461v-307h-461v-260h543v-307h-871zM236 1651l364 243h8l377 -239l-119 -174l-262 135l-262 -135z" />
    <glyph glyph-name="Edieresis" unicode="&#xcb;" horiz-adv-x="1177" 
d="M184 0v1434h850v-308h-522v-252h461v-307h-461v-260h543v-307h-871zM188 1714q0 73 57.5 116.5t143.5 43.5q75 0 130.5 -44t55.5 -116q0 -80 -55 -126t-131 -46q-87 0 -144 45t-57 127zM662 1714q0 73 57.5 116.5t142.5 43.5q76 0 131.5 -44t55.5 -116q0 -81 -55 -126.5
t-132 -45.5q-86 0 -143 45.5t-57 126.5z" />
    <glyph glyph-name="Igrave" unicode="&#xcc;" horiz-adv-x="737" 
d="M205 0v1434h327v-1434h-327zM483 1491l-510 160l115 264l479 -242z" />
    <glyph glyph-name="Iacute" unicode="&#xcd;" horiz-adv-x="737" 
d="M205 0v1434h327v-1434h-327zM772 1651l-510 -160l-84 182l479 242z" />
    <glyph glyph-name="Icircumflex" unicode="&#xce;" horiz-adv-x="737" 
d="M205 0v1434h327v-1434h-327zM-6 1651l364 243h9l376 -239l-118 -174l-263 135l-262 -135z" />
    <glyph glyph-name="Idieresis" unicode="&#xcf;" horiz-adv-x="737" 
d="M205 0v1434h327v-1434h-327zM-61 1714q0 73 57 116.5t143 43.5q75 0 131 -44t56 -116q0 -80 -55.5 -126t-131.5 -46q-87 0 -143.5 45t-56.5 127zM412 1714q0 73 57.5 116.5t142.5 43.5q76 0 131.5 -44t55.5 -116q0 -81 -55 -126.5t-132 -45.5q-86 0 -143 45.5t-57 126.5z
" />
    <glyph glyph-name="Eth" unicode="&#xd0;" horiz-adv-x="1523" 
d="M20 569v287h164v578h29q36 0 205.5 3t218.5 3q167 0 303 -37.5t228.5 -103t155 -156t90.5 -194t28 -220.5q0 -152 -52.5 -284t-152 -232.5t-258.5 -158.5t-358 -58q-30 0 -178 2t-224 2h-35v569h-164zM633 1133q-73 0 -121 -7v-270h336v-287h-336v-262q43 -4 119 -4
q215 0 339 112t124 314q0 193 -127.5 298.5t-333.5 105.5z" />
    <glyph glyph-name="Ntilde" unicode="&#xd1;" horiz-adv-x="1617" 
d="M1434 0h-263l-679 860v-860h-308v1434h262l680 -865v865h308v-1434zM535 1528l-95 192q46 57 116.5 93t139.5 36q63 0 143 -30.5t134 -30.5q103 0 160 61l77 -192q-84 -135 -258 -135q-49 0 -135.5 30.5t-146.5 30.5q-69 0 -135 -55z" />
    <glyph glyph-name="Ograve" unicode="&#xd2;" horiz-adv-x="1687" 
d="M82 717q0 155 55.5 291t153.5 235.5t241.5 157t311.5 57.5q218 0 390.5 -89t272 -258.5t99.5 -393.5q0 -160 -58 -298.5t-159 -235.5t-242 -152.5t-303 -55.5q-163 0 -303 52t-241.5 147t-159.5 235t-58 308zM430 717q0 -183 120.5 -308.5t293.5 -125.5q132 0 227 58.5
t140.5 155.5t45.5 220q0 193 -118 313.5t-295 120.5q-181 0 -297.5 -120t-116.5 -314zM995 1491l-510 160l115 264l479 -242z" />
    <glyph glyph-name="Oacute" unicode="&#xd3;" horiz-adv-x="1687" 
d="M82 717q0 155 55.5 291t153.5 235.5t241.5 157t311.5 57.5q218 0 390.5 -89t272 -258.5t99.5 -393.5q0 -160 -58 -298.5t-159 -235.5t-242 -152.5t-303 -55.5q-163 0 -303 52t-241.5 147t-159.5 235t-58 308zM430 717q0 -183 120.5 -308.5t293.5 -125.5q132 0 227 58.5
t140.5 155.5t45.5 220q0 193 -118 313.5t-295 120.5q-181 0 -297.5 -120t-116.5 -314zM1264 1651l-510 -160l-84 182l479 242z" />
    <glyph glyph-name="Ocircumflex" unicode="&#xd4;" horiz-adv-x="1687" 
d="M82 717q0 155 55.5 291t153.5 235.5t241.5 157t311.5 57.5q218 0 390.5 -89t272 -258.5t99.5 -393.5q0 -160 -58 -298.5t-159 -235.5t-242 -152.5t-303 -55.5q-163 0 -303 52t-241.5 147t-159.5 235t-58 308zM430 717q0 -183 120.5 -308.5t293.5 -125.5q132 0 227 58.5
t140.5 155.5t45.5 220q0 193 -118 313.5t-295 120.5q-181 0 -297.5 -120t-116.5 -314zM475 1651l365 243h8l377 -239l-119 -174l-262 135l-262 -135z" />
    <glyph glyph-name="Otilde" unicode="&#xd5;" horiz-adv-x="1687" 
d="M82 717q0 155 55.5 291t153.5 235.5t241.5 157t311.5 57.5q218 0 390.5 -89t272 -258.5t99.5 -393.5q0 -160 -58 -298.5t-159 -235.5t-242 -152.5t-303 -55.5q-163 0 -303 52t-241.5 147t-159.5 235t-58 308zM430 717q0 -183 120.5 -308.5t293.5 -125.5q132 0 227 58.5
t140.5 155.5t45.5 220q0 193 -118 313.5t-295 120.5q-181 0 -297.5 -120t-116.5 -314zM539 1528l-95 192q46 57 116.5 93t139.5 36q63 0 143 -30.5t134 -30.5q103 0 160 61l77 -192q-84 -135 -258 -135q-49 0 -135.5 30.5t-146.5 30.5q-69 0 -135 -55z" />
    <glyph glyph-name="Odieresis" unicode="&#xd6;" horiz-adv-x="1687" 
d="M82 717q0 155 55.5 291t153.5 235.5t241.5 157t311.5 57.5q218 0 390.5 -89t272 -258.5t99.5 -393.5q0 -160 -58 -298.5t-159 -235.5t-242 -152.5t-303 -55.5q-163 0 -303 52t-241.5 147t-159.5 235t-58 308zM430 717q0 -183 120.5 -308.5t293.5 -125.5q132 0 227 58.5
t140.5 155.5t45.5 220q0 193 -118 313.5t-295 120.5q-181 0 -297.5 -120t-116.5 -314zM403 1714q0 73 57.5 116.5t143.5 43.5q75 0 131 -44t56 -116q0 -80 -55.5 -126t-131.5 -46q-87 0 -144 45t-57 127zM877 1714q0 73 57.5 116.5t142.5 43.5q76 0 131.5 -44t55.5 -116
q0 -81 -55 -126.5t-132 -45.5q-86 0 -143 45.5t-57 126.5z" />
    <glyph glyph-name="multiply" unicode="&#xd7;" 
d="M178 985l189 189l247 -248l248 248l189 -189l-248 -248l250 -250l-189 -188l-250 250l-249 -250l-189 188l250 250z" />
    <glyph glyph-name="Oslash" unicode="&#xd8;" horiz-adv-x="1687" 
d="M82 717q0 155 55.5 291t153.5 235.5t241.5 157t311.5 57.5q244 0 432 -115l76 74l176 -180l-64 -63q142 -188 142 -457q0 -160 -58 -298.5t-159 -235.5t-242 -152.5t-303 -55.5q-271 0 -467 136l-82 -80l-176 180l82 80q-119 183 -119 426zM1257 717q0 119 -47 211
l-589 -578q98 -67 223 -67q132 0 227 58.5t140.5 155.5t45.5 220zM430 717q0 -91 31 -170l573 559q-88 45 -190 45q-181 0 -297.5 -120t-116.5 -314z" />
    <glyph glyph-name="Ugrave" unicode="&#xd9;" horiz-adv-x="1538" 
d="M1374 1434v-842q0 -128 -31.5 -232t-86 -174.5t-129.5 -119t-160 -70t-179 -21.5q-139 0 -253 40t-197 117.5t-128.5 198t-45.5 275.5v828h328v-758q0 -88 14.5 -156t47 -123t92 -84.5t142.5 -29.5q142 0 200.5 95t58.5 279v777h327zM893 1491l-510 160l115 264l479 -242
z" />
    <glyph glyph-name="Uacute" unicode="&#xda;" horiz-adv-x="1538" 
d="M1374 1434v-842q0 -128 -31.5 -232t-86 -174.5t-129.5 -119t-160 -70t-179 -21.5q-139 0 -253 40t-197 117.5t-128.5 198t-45.5 275.5v828h328v-758q0 -88 14.5 -156t47 -123t92 -84.5t142.5 -29.5q142 0 200.5 95t58.5 279v777h327zM1182 1651l-510 -160l-84 182
l479 242z" />
    <glyph glyph-name="Ucircumflex" unicode="&#xdb;" horiz-adv-x="1538" 
d="M1374 1434v-842q0 -128 -31.5 -232t-86 -174.5t-129.5 -119t-160 -70t-179 -21.5q-139 0 -253 40t-197 117.5t-128.5 198t-45.5 275.5v828h328v-758q0 -88 14.5 -156t47 -123t92 -84.5t142.5 -29.5q142 0 200.5 95t58.5 279v777h327zM391 1651l365 243h8l377 -239
l-119 -174l-262 135l-262 -135z" />
    <glyph glyph-name="Udieresis" unicode="&#xdc;" horiz-adv-x="1538" 
d="M1374 1434v-842q0 -128 -31.5 -232t-86 -174.5t-129.5 -119t-160 -70t-179 -21.5q-139 0 -253 40t-197 117.5t-128.5 198t-45.5 275.5v828h328v-758q0 -88 14.5 -156t47 -123t92 -84.5t142.5 -29.5q142 0 200.5 95t58.5 279v777h327zM322 1714q0 73 57 116.5t143 43.5
q75 0 131 -44t56 -116q0 -80 -55.5 -126t-131.5 -46q-87 0 -143.5 45t-56.5 127zM795 1714q0 73 57.5 116.5t142.5 43.5q76 0 131.5 -44t55.5 -116q0 -81 -55 -126.5t-132 -45.5q-86 0 -143 45.5t-57 126.5z" />
    <glyph glyph-name="Yacute" unicode="&#xdd;" horiz-adv-x="1339" 
d="M1339 1434l-508 -850v-584h-327v584l-504 850h375l307 -543l303 543h354zM1079 1651l-510 -160l-84 182l480 242z" />
    <glyph glyph-name="Thorn" unicode="&#xde;" horiz-adv-x="1284" 
d="M512 0h-328v1434h328v-205q7 0 53 2t58 2q127 0 227.5 -26t165.5 -69.5t107.5 -105.5t60.5 -129.5t18 -144.5q0 -96 -36.5 -183t-103 -153.5t-168 -106t-222.5 -39.5q-100 0 -160 7v-283zM627 926q-57 0 -115 -8v-324q78 -10 150 -10q35 0 66.5 8.5t61 27t47 54.5
t17.5 86q0 90 -59 128t-168 38z" />
    <glyph glyph-name="germandbls" unicode="&#xdf;" horiz-adv-x="1138" 
d="M770 342q0 33 -21.5 64t-54.5 54.5t-70.5 53t-70.5 59.5t-54.5 75t-21.5 97q0 62 14.5 112t35.5 80t41.5 54t35 50t14.5 53q0 33 -27.5 55t-72.5 22q-59 0 -83.5 -44t-24.5 -140v-987h-308v1010q0 230 120 339t341 109q165 0 274 -89t109 -216q0 -57 -14.5 -101t-35 -71
t-41.5 -51t-35.5 -54.5t-14.5 -68.5q0 -35 16 -64.5t42 -51.5t57 -44t62.5 -50t57.5 -62t42 -86t16 -117q0 -145 -93.5 -251t-242.5 -106q-196 0 -305 109l94 235q68 -57 135 -57q84 0 84 80z" />
    <glyph glyph-name="agrave" unicode="&#xe0;" horiz-adv-x="952" 
d="M211 633l-76 223q60 37 155.5 63.5t186.5 26.5q204 0 293.5 -98t89.5 -293v-555h-266v84q-33 -46 -98.5 -71t-143.5 -25q-128 0 -209.5 77.5t-81.5 213.5q0 150 93.5 227.5t238.5 77.5q56 0 105.5 -16t74.5 -36q4 80 -29.5 119t-97.5 39q-23 0 -44 -1.5t-41 -6
t-34.5 -7.5t-34.5 -10t-28 -10t-28.5 -11.5t-24.5 -10.5zM457 244q82 0 116 47v57q-45 31 -116 31q-39 0 -63.5 -18.5t-24.5 -51.5q0 -30 24.5 -47.5t63.5 -17.5zM500 1030l-273 295l244 182l211 -348z" />
    <glyph glyph-name="aacute" unicode="&#xe1;" horiz-adv-x="952" 
d="M211 633l-76 223q60 37 155.5 63.5t186.5 26.5q204 0 293.5 -98t89.5 -293v-555h-266v84q-33 -46 -98.5 -71t-143.5 -25q-128 0 -209.5 77.5t-81.5 213.5q0 150 93.5 227.5t238.5 77.5q56 0 105.5 -16t74.5 -36q4 80 -29.5 119t-97.5 39q-23 0 -44 -1.5t-41 -6
t-34.5 -7.5t-34.5 -10t-28 -10t-28.5 -11.5t-24.5 -10.5zM457 244q82 0 116 47v57q-45 31 -116 31q-39 0 -63.5 -18.5t-24.5 -51.5q0 -30 24.5 -47.5t63.5 -17.5zM745 1329l-268 -299l-182 129l211 352z" />
    <glyph glyph-name="acircumflex" unicode="&#xe2;" horiz-adv-x="952" 
d="M211 633l-76 223q60 37 155.5 63.5t186.5 26.5q204 0 293.5 -98t89.5 -293v-555h-266v84q-33 -46 -98.5 -71t-143.5 -25q-128 0 -209.5 77.5t-81.5 213.5q0 150 93.5 227.5t238.5 77.5q56 0 105.5 -16t74.5 -36q4 80 -29.5 119t-97.5 39q-23 0 -44 -1.5t-41 -6
t-34.5 -7.5t-34.5 -10t-28 -10t-28.5 -11.5t-24.5 -10.5zM457 244q82 0 116 47v57q-45 31 -116 31q-39 0 -63.5 -18.5t-24.5 -51.5q0 -30 24.5 -47.5t63.5 -17.5zM479 1446l338 -279l-143 -180l-201 166l-205 -162l-137 178l340 277h8z" />
    <glyph glyph-name="atilde" unicode="&#xe3;" horiz-adv-x="952" 
d="M211 633l-76 223q60 37 155.5 63.5t186.5 26.5q204 0 293.5 -98t89.5 -293v-555h-266v84q-33 -46 -98.5 -71t-143.5 -25q-128 0 -209.5 77.5t-81.5 213.5q0 150 93.5 227.5t238.5 77.5q56 0 105.5 -16t74.5 -36q4 80 -29.5 119t-97.5 39q-23 0 -44 -1.5t-41 -6
t-34.5 -7.5t-34.5 -10t-28 -10t-28.5 -11.5t-24.5 -10.5zM457 244q82 0 116 47v57q-45 31 -116 31q-39 0 -63.5 -18.5t-24.5 -51.5q0 -30 24.5 -47.5t63.5 -17.5zM213 1063l-123 137q56 80 127.5 120t142.5 40q50 0 126 -40t116 -40q20 0 34.5 2t29.5 8.5t21 10t24.5 17
t25.5 17.5l101 -153q-57 -68 -125.5 -108t-134.5 -40q-45 0 -121.5 40t-122.5 40q-14 0 -32.5 -6t-30 -12t-33 -18.5t-25.5 -14.5z" />
    <glyph glyph-name="adieresis" unicode="&#xe4;" horiz-adv-x="952" 
d="M211 633l-76 223q60 37 155.5 63.5t186.5 26.5q204 0 293.5 -98t89.5 -293v-555h-266v84q-33 -46 -98.5 -71t-143.5 -25q-128 0 -209.5 77.5t-81.5 213.5q0 150 93.5 227.5t238.5 77.5q56 0 105.5 -16t74.5 -36q4 80 -29.5 119t-97.5 39q-23 0 -44 -1.5t-41 -6
t-34.5 -7.5t-34.5 -10t-28 -10t-28.5 -11.5t-24.5 -10.5zM457 244q82 0 116 47v57q-45 31 -116 31q-39 0 -63.5 -18.5t-24.5 -51.5q0 -30 24.5 -47.5t63.5 -17.5zM137 1206q0 76 48.5 121t119.5 45q62 0 109 -46t47 -120q0 -82 -46.5 -129t-109.5 -47q-72 0 -120 46.5
t-48 129.5zM532 1206q0 75 49 120.5t119 45.5q63 0 109.5 -45.5t46.5 -120.5q0 -82 -46 -129t-110 -47q-71 0 -119.5 46.5t-48.5 129.5z" />
    <glyph glyph-name="aring" unicode="&#xe5;" horiz-adv-x="952" 
d="M211 633l-76 223q60 37 155.5 63.5t186.5 26.5q204 0 293.5 -98t89.5 -293v-555h-266v84q-33 -46 -98.5 -71t-143.5 -25q-128 0 -209.5 77.5t-81.5 213.5q0 150 93.5 227.5t238.5 77.5q56 0 105.5 -16t74.5 -36q4 80 -29.5 119t-97.5 39q-23 0 -44 -1.5t-41 -6
t-34.5 -7.5t-34.5 -10t-28 -10t-28.5 -11.5t-24.5 -10.5zM457 244q82 0 116 47v57q-45 31 -116 31q-39 0 -63.5 -18.5t-24.5 -51.5q0 -30 24.5 -47.5t63.5 -17.5zM219 1251q0 110 80 187.5t201 77.5q123 0 203.5 -77.5t80.5 -187.5q0 -109 -80.5 -184.5t-203.5 -75.5
q-121 0 -201 75.5t-80 184.5zM414 1255q0 -42 25 -71t65 -29q39 0 62.5 29t23.5 71q0 41 -23.5 69t-62.5 28q-40 0 -65 -28t-25 -69z" />
    <glyph glyph-name="ae" unicode="&#xe6;" horiz-adv-x="1519" 
d="M477 946q181 0 271 -78q124 78 284 78q119 0 220.5 -53t164 -153.5t62.5 -227.5q0 -89 -19 -154h-600v-28q21 -43 76.5 -71t128.5 -28q138 0 242 66l84 -217q-154 -105 -351 -105q-209 0 -340 103q-61 -43 -121 -66t-95 -27.5t-78 -4.5q-169 0 -257 81t-88 234
q0 130 91.5 209.5t240.5 79.5q47 0 102 -17t78 -35q9 71 -27 115.5t-87 44.5q-30 0 -58 -3t-47 -6.5t-44.5 -11.5t-35.5 -12t-34 -14t-29 -12l-76 223q62 36 157 63t185 27zM858 604q0 -6 1 -20t1 -21h311q-5 55 -44 91.5t-115 35.5q-42 0 -85.5 -20.5t-68.5 -65.5zM457 244
q57 0 112 41l4 63q-45 31 -116 31q-41 0 -64.5 -21t-23.5 -49q0 -25 21.5 -45t66.5 -20z" />
    <glyph glyph-name="ccedilla" unicode="&#xe7;" horiz-adv-x="993" 
d="M244 -330l90 142q23 -23 62 -40.5t77 -17.5q45 0 45 27q0 19 -11.5 27t-39.5 8h-12v170q-182 31 -288 158t-106 317q0 134 60.5 244t173 175.5t254.5 65.5q252 0 377 -131l-142 -242q-86 86 -196 86q-79 0 -139 -53t-60 -145q0 -89 62.5 -144t140.5 -55q113 0 209 103
l143 -226q-53 -73 -141 -114.5t-195 -47.5v-30q104 -9 160.5 -56t56.5 -129q0 -88 -79 -140t-230 -52q-55 0 -101 9.5t-79 27t-51.5 30.5t-40.5 33z" />
    <glyph glyph-name="egrave" unicode="&#xe8;" horiz-adv-x="1048" 
d="M836 297l84 -217q-140 -105 -359 -105q-227 0 -363.5 133.5t-136.5 352.5q0 134 61 244t176 175.5t263 65.5q119 0 220.5 -53t164 -153.5t62.5 -227.5q0 -89 -19 -154h-610q21 -63 78.5 -95t136.5 -32q138 0 242 66zM551 690q-74 0 -116.5 -31.5t-65.5 -95.5h331
q0 51 -40 89t-109 38zM592 1030l-273 295l244 182l211 -348z" />
    <glyph glyph-name="eacute" unicode="&#xe9;" horiz-adv-x="1048" 
d="M836 297l84 -217q-140 -105 -359 -105q-227 0 -363.5 133.5t-136.5 352.5q0 134 61 244t176 175.5t263 65.5q119 0 220.5 -53t164 -153.5t62.5 -227.5q0 -89 -19 -154h-610q21 -63 78.5 -95t136.5 -32q138 0 242 66zM551 690q-74 0 -116.5 -31.5t-65.5 -95.5h331
q0 51 -40 89t-109 38zM838 1329l-269 -299l-182 129l211 352z" />
    <glyph glyph-name="ecircumflex" unicode="&#xea;" horiz-adv-x="1048" 
d="M836 297l84 -217q-140 -105 -359 -105q-227 0 -363.5 133.5t-136.5 352.5q0 134 61 244t176 175.5t263 65.5q119 0 220.5 -53t164 -153.5t62.5 -227.5q0 -89 -19 -154h-610q21 -63 78.5 -95t136.5 -32q138 0 242 66zM551 690q-74 0 -116.5 -31.5t-65.5 -95.5h331
q0 51 -40 89t-109 38zM551 1446l338 -279l-144 -180l-200 166l-205 -162l-137 178l340 277h8z" />
    <glyph glyph-name="edieresis" unicode="&#xeb;" horiz-adv-x="1048" 
d="M836 297l84 -217q-140 -105 -359 -105q-227 0 -363.5 133.5t-136.5 352.5q0 134 61 244t176 175.5t263 65.5q119 0 220.5 -53t164 -153.5t62.5 -227.5q0 -89 -19 -154h-610q21 -63 78.5 -95t136.5 -32q138 0 242 66zM551 690q-74 0 -116.5 -31.5t-65.5 -95.5h331
q0 51 -40 89t-109 38zM195 1206q0 76 48 121t119 45q62 0 109 -46t47 -120q0 -82 -46.5 -129t-109.5 -47q-72 0 -119.5 46.5t-47.5 129.5zM590 1206q0 75 49 120.5t119 45.5q63 0 109 -45.5t46 -120.5q0 -82 -45.5 -129t-109.5 -47q-71 0 -119.5 46.5t-48.5 129.5z" />
    <glyph glyph-name="igrave" unicode="&#xec;" horiz-adv-x="585" 
d="M139 0v922h307v-922h-307zM244 1030l-273 295l244 182l211 -348z" />
    <glyph glyph-name="iacute" unicode="&#xed;" horiz-adv-x="585" 
d="M139 0v922h307v-922h-307zM551 1329l-268 -299l-183 129l211 352z" />
    <glyph glyph-name="icircumflex" unicode="&#xee;" horiz-adv-x="585" 
d="M139 0v922h307v-922h-307zM299 1446l338 -279l-143 -180l-201 166l-205 -162l-137 178l340 277h8z" />
    <glyph glyph-name="idieresis" unicode="&#xef;" horiz-adv-x="585" 
d="M139 0v922h307v-922h-307zM-66 1206q0 76 48.5 121t119.5 45q62 0 109 -46t47 -120q0 -82 -46.5 -129t-109.5 -47q-72 0 -120 46.5t-48 129.5zM330 1206q0 75 49 120.5t119 45.5q63 0 109 -45.5t46 -120.5q0 -82 -45.5 -129t-109.5 -47q-71 0 -119.5 46.5t-48.5 129.5z
" />
    <glyph glyph-name="eth" unicode="&#xf0;" horiz-adv-x="1146" 
d="M371 969l-86 274l135 41q-57 54 -146 129l347 45q60 -40 104 -82l205 64l84 -275l-96 -30q81 -138 124 -295t43 -293q0 -270 -137 -421t-375 -151q-232 0 -372 137.5t-140 348.5t140 348t372 137q57 0 111 -24q-23 55 -66 122zM389 461q0 -87 52.5 -143t131.5 -56
q93 0 145.5 80.5t39.5 216.5q-44 100 -185 100q-77 0 -130.5 -54t-53.5 -144z" />
    <glyph glyph-name="ntilde" unicode="&#xf1;" horiz-adv-x="1114" 
d="M113 0v922h307v-72q40 38 99.5 63t127.5 25q83 0 149 -20.5t118 -65t80 -121.5t28 -182v-549h-307v496q0 77 -41 116t-111 39q-80 0 -143 -63v-588h-307zM301 1063l-123 137q56 80 128 120t143 40q49 0 125 -40t116 -40q20 0 34.5 2t29.5 8.5t21 10t24.5 17t25.5 17.5
l101 -153q-57 -68 -125.5 -108t-134.5 -40q-45 0 -121.5 40t-122.5 40q-14 0 -32.5 -6t-30 -12t-33 -18.5t-25.5 -14.5z" />
    <glyph glyph-name="ograve" unicode="&#xf2;" horiz-adv-x="1146" 
d="M61 461q0 211 140 348t372 137t372 -137t140 -348t-140 -348.5t-372 -137.5t-372 137.5t-140 348.5zM389 461q0 -87 52.5 -143t131.5 -56q80 0 132.5 54t52.5 145q0 88 -53.5 143t-131.5 55q-77 0 -130.5 -54t-53.5 -144zM565 1030l-272 295l244 182l211 -348z" />
    <glyph glyph-name="oacute" unicode="&#xf3;" horiz-adv-x="1146" 
d="M61 461q0 211 140 348t372 137t372 -137t140 -348t-140 -348.5t-372 -137.5t-372 137.5t-140 348.5zM389 461q0 -87 52.5 -143t131.5 -56q80 0 132.5 54t52.5 145q0 88 -53.5 143t-131.5 55q-77 0 -130.5 -54t-53.5 -144zM852 1329l-268 -299l-183 129l211 352z" />
    <glyph glyph-name="ocircumflex" unicode="&#xf4;" horiz-adv-x="1146" 
d="M61 461q0 211 140 348t372 137t372 -137t140 -348t-140 -348.5t-372 -137.5t-372 137.5t-140 348.5zM389 461q0 -87 52.5 -143t131.5 -56q80 0 132.5 54t52.5 145q0 88 -53.5 143t-131.5 55q-77 0 -130.5 -54t-53.5 -144zM584 1446l338 -279l-144 -180l-200 166
l-205 -162l-137 178l339 277h9z" />
    <glyph glyph-name="otilde" unicode="&#xf5;" horiz-adv-x="1146" 
d="M61 461q0 211 140 348t372 137t372 -137t140 -348t-140 -348.5t-372 -137.5t-372 137.5t-140 348.5zM389 461q0 -87 52.5 -143t131.5 -56q80 0 132.5 54t52.5 145q0 88 -53.5 143t-131.5 55q-77 0 -130.5 -54t-53.5 -144zM317 1063l-122 137q56 80 127.5 120t142.5 40
q49 0 125 -40t117 -40q20 0 34.5 2t29.5 8.5t21 10t24.5 17t25.5 17.5l100 -153q-57 -68 -125.5 -108t-134.5 -40q-45 0 -121.5 40t-122.5 40q-14 0 -32.5 -6t-30 -12t-33 -18.5t-25.5 -14.5z" />
    <glyph glyph-name="odieresis" unicode="&#xf6;" horiz-adv-x="1146" 
d="M61 461q0 211 140 348t372 137t372 -137t140 -348t-140 -348.5t-372 -137.5t-372 137.5t-140 348.5zM389 461q0 -87 52.5 -143t131.5 -56q80 0 132.5 54t52.5 145q0 88 -53.5 143t-131.5 55q-77 0 -130.5 -54t-53.5 -144zM231 1206q0 76 48.5 121t119.5 45q62 0 109 -46
t47 -120q0 -82 -46.5 -129t-109.5 -47q-72 0 -120 46.5t-48 129.5zM627 1206q0 75 49 120.5t119 45.5q63 0 109 -45.5t46 -120.5q0 -82 -45.5 -129t-109.5 -47q-71 0 -119.5 46.5t-48.5 129.5z" />
    <glyph glyph-name="divide" unicode="&#xf7;" 
d="M436 1126q0 67 47.5 118.5t130.5 51.5q79 0 126.5 -52t47.5 -118q0 -73 -47.5 -127.5t-126.5 -54.5q-83 0 -130.5 54t-47.5 128zM436 352q0 66 48 118t130 52q76 0 125 -53t49 -117q0 -75 -47 -128.5t-127 -53.5q-84 0 -131 53.5t-47 128.5zM129 604v266h971v-266h-971z
" />
    <glyph glyph-name="oslash" unicode="&#xf8;" horiz-adv-x="1187" 
d="M90 137l55 49q-84 116 -84 275q0 209 149.5 347t383.5 138q177 0 315 -88l70 62l108 -127l-53 -48q92 -125 92 -284q0 -209 -149 -347.5t-383 -138.5q-190 0 -326 93l-67 -60zM799 461q0 30 -11 67l-282 -252q35 -14 88 -14q94 0 149.5 53t55.5 146zM389 461q0 -28 6 -55
l275 241q-35 12 -76 12q-91 0 -148 -53t-57 -145z" />
    <glyph glyph-name="ugrave" unicode="&#xf9;" horiz-adv-x="1085" 
d="M973 922v-922h-307v92q-92 -117 -265 -117q-60 0 -114.5 22t-98.5 65.5t-70 115.5t-26 164v580h307v-514q0 -62 28.5 -104t90.5 -42q81 0 148 84v576h307zM524 1030l-272 295l244 182l211 -348z" />
    <glyph glyph-name="uacute" unicode="&#xfa;" horiz-adv-x="1085" 
d="M973 922v-922h-307v92q-92 -117 -265 -117q-60 0 -114.5 22t-98.5 65.5t-70 115.5t-26 164v580h307v-514q0 -62 28.5 -104t90.5 -42q81 0 148 84v576h307zM831 1329l-268 -299l-182 129l211 352z" />
    <glyph glyph-name="ucircumflex" unicode="&#xfb;" horiz-adv-x="1085" 
d="M973 922v-922h-307v92q-92 -117 -265 -117q-60 0 -114.5 22t-98.5 65.5t-70 115.5t-26 164v580h307v-514q0 -62 28.5 -104t90.5 -42q81 0 148 84v576h307zM549 1446l338 -279l-144 -180l-200 166l-205 -162l-137 178l340 277h8z" />
    <glyph glyph-name="udieresis" unicode="&#xfc;" horiz-adv-x="1085" 
d="M973 922v-922h-307v92q-92 -117 -265 -117q-60 0 -114.5 22t-98.5 65.5t-70 115.5t-26 164v580h307v-514q0 -62 28.5 -104t90.5 -42q81 0 148 84v576h307zM176 1206q0 76 48.5 121t119.5 45q62 0 109 -46t47 -120q0 -82 -46.5 -129t-109.5 -47q-72 0 -120 46.5t-48 129.5
zM571 1206q0 75 49 120.5t119 45.5q63 0 109.5 -45.5t46.5 -120.5q0 -82 -46 -129t-110 -47q-71 0 -119.5 46.5t-48.5 129.5z" />
    <glyph glyph-name="yacute" unicode="&#xfd;" horiz-adv-x="1056" 
d="M1057 922l-359 -922q-67 -165 -123.5 -254t-110.5 -122.5t-128 -33.5q-118 0 -219 86l98 232q49 -33 88 -33q58 0 88 76l21 49l-412 922h371l157 -422q15 -39 35 -127q8 77 23 129l121 420h350zM797 1329l-269 -299l-182 129l211 352z" />
    <glyph glyph-name="thorn" unicode="&#xfe;" horiz-adv-x="1148" 
d="M113 -410v1844h307v-566q103 78 256 78q184 0 297.5 -132.5t113.5 -338.5q0 -140 -60.5 -253.5t-174.5 -180t-260 -66.5q-103 0 -172 29v-414h-307zM580 659q-88 0 -160 -81v-281q34 -20 64 -27.5t79 -7.5q95 0 146 58.5t51 148.5q0 83 -47.5 136.5t-132.5 53.5z" />
    <glyph glyph-name="ydieresis" unicode="&#xff;" horiz-adv-x="1056" 
d="M1057 922l-359 -922q-67 -165 -123.5 -254t-110.5 -122.5t-128 -33.5q-118 0 -219 86l98 232q49 -33 88 -33q58 0 88 76l21 49l-412 922h371l157 -422q15 -39 35 -127q8 77 23 129l121 420h350zM188 1206q0 76 48.5 121t119.5 45q62 0 109 -46t47 -120q0 -82 -46.5 -129
t-109.5 -47q-72 0 -120 46.5t-48 129.5zM584 1206q0 75 49 120.5t119 45.5q63 0 109 -45.5t46 -120.5q0 -82 -45.5 -129t-109.5 -47q-71 0 -119.5 46.5t-48.5 129.5z" />
    <glyph glyph-name="Amacron" unicode="&#x100;" horiz-adv-x="1484" 
d="M0 0l596 1434h293l596 -1434h-350l-119 301h-567l-119 -301h-330zM733 1014l-162 -406h322zM420 1536v246h643v-246h-643z" />
    <glyph glyph-name="amacron" unicode="&#x101;" horiz-adv-x="952" 
d="M211 633l-76 223q60 37 155.5 63.5t186.5 26.5q204 0 293.5 -98t89.5 -293v-555h-266v84q-33 -46 -98.5 -71t-143.5 -25q-128 0 -209.5 77.5t-81.5 213.5q0 150 93.5 227.5t238.5 77.5q56 0 105.5 -16t74.5 -36q4 80 -29.5 119t-97.5 39q-23 0 -44 -1.5t-41 -6
t-34.5 -7.5t-34.5 -10t-28 -10t-28.5 -11.5t-24.5 -10.5zM457 244q82 0 116 47v57q-45 31 -116 31q-39 0 -63.5 -18.5t-24.5 -51.5q0 -30 24.5 -47.5t63.5 -17.5zM186 1065v246h602v-246h-602z" />
    <glyph glyph-name="Abreve" unicode="&#x102;" horiz-adv-x="1484" 
d="M0 0l596 1434h293l596 -1434h-350l-119 301h-567l-119 -301h-330zM733 1014l-162 -406h322zM330 1726l131 158q119 -123 293 -123q175 0 286 123l113 -160q-57 -96 -166.5 -162.5t-232.5 -66.5q-136 0 -251.5 69.5t-172.5 161.5z" />
    <glyph glyph-name="abreve" unicode="&#x103;" horiz-adv-x="952" 
d="M211 633l-76 223q60 37 155.5 63.5t186.5 26.5q204 0 293.5 -98t89.5 -293v-555h-266v84q-33 -46 -98.5 -71t-143.5 -25q-128 0 -209.5 77.5t-81.5 213.5q0 150 93.5 227.5t238.5 77.5q56 0 105.5 -16t74.5 -36q4 80 -29.5 119t-97.5 39q-23 0 -44 -1.5t-41 -6
t-34.5 -7.5t-34.5 -10t-28 -10t-28.5 -11.5t-24.5 -10.5zM457 244q82 0 116 47v57q-45 31 -116 31q-39 0 -63.5 -18.5t-24.5 -51.5q0 -30 24.5 -47.5t63.5 -17.5zM121 1243l135 154q27 -30 51 -50t68.5 -38.5t95.5 -18.5q69 0 129.5 30.5t95.5 72.5l105 -148
q-26 -40 -51.5 -69t-67 -62.5t-98.5 -51.5t-125 -18q-66 0 -125.5 21t-100.5 54t-68 63.5t-44 60.5z" />
    <glyph glyph-name="Aogonek" unicode="&#x104;" horiz-adv-x="1484" 
d="M1386 -143l93 -185q-27 -33 -97 -57.5t-149 -24.5q-129 0 -213 49.5t-84 145.5q0 144 199 215l-119 301h-567l-119 -301h-330l596 1434h293l596 -1434h-39q-85 0 -144 -35.5t-59 -75.5q0 -53 62 -53q35 0 81 21zM733 1014l-162 -406h322z" />
    <glyph glyph-name="aogonek" unicode="&#x105;" horiz-adv-x="952" 
d="M801 -143l92 -185q-27 -33 -97 -57.5t-149 -24.5q-129 0 -213 49.5t-84 145.5q0 84 66.5 141.5t177.5 87.5v70q-33 -46 -98.5 -71t-143.5 -25q-128 0 -209.5 77.5t-81.5 213.5q0 150 93.5 227.5t238.5 77.5q56 0 105.5 -16t74.5 -36q4 80 -29.5 119t-97.5 39
q-23 0 -44 -1.5t-41 -6t-34.5 -7.5t-34.5 -10t-28 -10t-28.5 -11.5t-24.5 -10.5l-76 223q60 37 155.5 63.5t186.5 26.5q204 0 293.5 -98t89.5 -293v-555h-18q-78 -4 -131.5 -39t-53.5 -72q0 -53 62 -53q36 0 82 21zM457 244q82 0 116 47v57q-45 31 -116 31
q-39 0 -63.5 -18.5t-24.5 -51.5q0 -30 24.5 -47.5t63.5 -17.5z" />
    <glyph glyph-name="Cacute" unicode="&#x106;" horiz-adv-x="1341" 
d="M1176 387l124 -246q-65 -73 -193.5 -119.5t-272.5 -46.5q-220 0 -391 92t-266 261t-95 389q0 124 30 235t91.5 204t150 160t210.5 104.5t267 37.5q138 0 255 -41.5t184 -107.5l-146 -246q-71 43 -136 65.5t-157 22.5q-173 0 -287 -114.5t-114 -319.5q0 -191 120.5 -312.5
t313.5 -121.5q173 0 312 104zM1182 1651l-510 -160l-84 182l479 242z" />
    <glyph glyph-name="cacute" unicode="&#x107;" horiz-adv-x="993" 
d="M801 365l143 -226q-58 -79 -157 -121.5t-220 -42.5q-230 0 -368 133.5t-138 352.5q0 134 60.5 244t173 175.5t254.5 65.5q252 0 377 -131l-142 -242q-86 86 -196 86q-79 0 -139 -53t-60 -145q0 -89 62.5 -144t140.5 -55q113 0 209 103zM817 1329l-268 -299l-182 129
l211 352z" />
    <glyph glyph-name="Ccircumflex" unicode="&#x108;" horiz-adv-x="1341" 
d="M1176 387l124 -246q-65 -73 -193.5 -119.5t-272.5 -46.5q-220 0 -391 92t-266 261t-95 389q0 124 30 235t91.5 204t150 160t210.5 104.5t267 37.5q138 0 255 -41.5t184 -107.5l-146 -246q-71 43 -136 65.5t-157 22.5q-173 0 -287 -114.5t-114 -319.5q0 -191 120.5 -312.5
t313.5 -121.5q173 0 312 104zM414 1651l364 243h8l377 -239l-119 -174l-262 135l-262 -135z" />
    <glyph glyph-name="ccircumflex" unicode="&#x109;" horiz-adv-x="993" 
d="M801 365l143 -226q-58 -79 -157 -121.5t-220 -42.5q-230 0 -368 133.5t-138 352.5q0 134 60.5 244t173 175.5t254.5 65.5q252 0 377 -131l-142 -242q-86 86 -196 86q-79 0 -139 -53t-60 -145q0 -89 62.5 -144t140.5 -55q113 0 209 103zM571 1446l338 -279l-143 -180
l-201 166l-205 -162l-137 178l340 277h8z" />
    <glyph glyph-name="Cdotaccent" unicode="&#x10a;" horiz-adv-x="1341" 
d="M1176 387l124 -246q-65 -73 -193.5 -119.5t-272.5 -46.5q-220 0 -391 92t-266 261t-95 389q0 124 30 235t91.5 204t150 160t210.5 104.5t267 37.5q138 0 255 -41.5t184 -107.5l-146 -246q-71 43 -136 65.5t-157 22.5q-173 0 -287 -114.5t-114 -319.5q0 -191 120.5 -312.5
t313.5 -121.5q173 0 312 104zM582 1731q0 84 60 134t146 50q79 0 138 -50.5t59 -133.5q0 -91 -58.5 -144t-138.5 -53q-87 0 -146.5 52.5t-59.5 144.5z" />
    <glyph glyph-name="cdotaccent" unicode="&#x10b;" horiz-adv-x="993" 
d="M801 365l143 -226q-58 -79 -157 -121.5t-220 -42.5q-230 0 -368 133.5t-138 352.5q0 134 60.5 244t173 175.5t254.5 65.5q252 0 377 -131l-142 -242q-86 86 -196 86q-79 0 -139 -53t-60 -145q0 -89 62.5 -144t140.5 -55q113 0 209 103zM369 1239q0 79 54 126.5t132 47.5
q70 0 122 -48t52 -126q0 -86 -51.5 -136t-122.5 -50q-79 0 -132.5 49.5t-53.5 136.5z" />
    <glyph glyph-name="Ccaron" unicode="&#x10c;" horiz-adv-x="1341" 
d="M1176 387l124 -246q-65 -73 -193.5 -119.5t-272.5 -46.5q-220 0 -391 92t-266 261t-95 389q0 124 30 235t91.5 204t150 160t210.5 104.5t267 37.5q138 0 255 -41.5t184 -107.5l-146 -246q-71 43 -136 65.5t-157 22.5q-173 0 -287 -114.5t-114 -319.5q0 -191 120.5 -312.5
t313.5 -121.5q173 0 312 104zM788 1501l-376 240l118 174l263 -156l262 156l106 -170l-364 -244h-9z" />
    <glyph glyph-name="ccaron" unicode="&#x10d;" horiz-adv-x="993" 
d="M801 365l143 -226q-58 -79 -157 -121.5t-220 -42.5q-230 0 -368 133.5t-138 352.5q0 134 60.5 244t173 175.5t254.5 65.5q252 0 377 -131l-142 -242q-86 86 -196 86q-79 0 -139 -53t-60 -145q0 -89 62.5 -144t140.5 -55q113 0 209 103zM535 999l-338 279l143 180
l201 -166l204 162l138 -178l-340 -277h-8z" />
    <glyph glyph-name="Dcaron" unicode="&#x10e;" horiz-adv-x="1523" 
d="M184 0v1434h29q36 0 205.5 3t218.5 3q167 0 303 -37.5t228.5 -103t155 -156t90.5 -194t28 -220.5q0 -152 -52.5 -284t-152 -232.5t-258.5 -158.5t-358 -58q-30 0 -178 2t-224 2h-35zM633 1133q-73 0 -121 -7v-819q43 -4 119 -4q215 0 339 112t124 314q0 193 -127.5 298.5
t-333.5 105.5zM686 1501l-377 240l119 174l262 -156l262 156l107 -170l-365 -244h-8z" />
    <glyph glyph-name="dcaron" unicode="&#x10f;" horiz-adv-x="1140" 
d="M721 0v76q-95 -92 -234 -92q-195 0 -310.5 127t-115.5 338q0 220 141.5 358.5t366.5 138.5q91 0 152 -28v516h307v-1434h-307zM551 270q95 0 170 68v283q-65 38 -137 38q-79 0 -137 -52t-58 -148q0 -88 49 -138.5t113 -50.5zM1139 1434h299q10 -25 10 -66
q0 -78 -20.5 -144.5t-56 -114.5t-73 -81t-81.5 -57l-144 129q88 101 88 231q0 51 -22 103z" />
    <glyph glyph-name="Dcroat" unicode="&#x110;" horiz-adv-x="1523" 
d="M20 569v287h164v578h29q36 0 205.5 3t218.5 3q167 0 303 -37.5t228.5 -103t155 -156t90.5 -194t28 -220.5q0 -152 -52.5 -284t-152 -232.5t-258.5 -158.5t-358 -58q-30 0 -178 2t-224 2h-35v569h-164zM633 1133q-73 0 -121 -7v-270h336v-287h-336v-262q43 -4 119 -4
q215 0 339 112t124 314q0 193 -127.5 298.5t-333.5 105.5z" />
    <glyph glyph-name="dcroat" unicode="&#x111;" horiz-adv-x="1140" 
d="M508 1038v246h213v150h307v-150h133v-246h-133v-1038h-307v76q-95 -92 -234 -92q-195 0 -310.5 127t-115.5 338q0 220 141.5 358.5t366.5 138.5q91 0 152 -28v120h-213zM551 270q95 0 170 68v283q-65 38 -137 38q-79 0 -137 -52t-58 -148q0 -88 49 -138.5t113 -50.5z" />
    <glyph glyph-name="Emacron" unicode="&#x112;" horiz-adv-x="1177" 
d="M184 0v1434h850v-308h-522v-252h461v-307h-461v-260h543v-307h-871zM287 1536v246h643v-246h-643z" />
    <glyph glyph-name="emacron" unicode="&#x113;" horiz-adv-x="1048" 
d="M836 297l84 -217q-140 -105 -359 -105q-227 0 -363.5 133.5t-136.5 352.5q0 134 61 244t176 175.5t263 65.5q119 0 220.5 -53t164 -153.5t62.5 -227.5q0 -89 -19 -154h-610q21 -63 78.5 -95t136.5 -32q138 0 242 66zM551 690q-74 0 -116.5 -31.5t-65.5 -95.5h331
q0 51 -40 89t-109 38zM240 1065v246h602v-246h-602z" />
    <glyph glyph-name="Edotaccent" unicode="&#x116;" horiz-adv-x="1177" 
d="M184 0v1434h850v-308h-522v-252h461v-307h-461v-260h543v-307h-871zM418 1731q0 83 60 133.5t147 50.5q79 0 137.5 -50.5t58.5 -133.5q0 -91 -58 -144t-138 -53q-87 0 -147 52.5t-60 144.5z" />
    <glyph glyph-name="edotaccent" unicode="&#x117;" horiz-adv-x="1048" 
d="M836 297l84 -217q-140 -105 -359 -105q-227 0 -363.5 133.5t-136.5 352.5q0 134 61 244t176 175.5t263 65.5q119 0 220.5 -53t164 -153.5t62.5 -227.5q0 -89 -19 -154h-610q21 -63 78.5 -95t136.5 -32q138 0 242 66zM551 690q-74 0 -116.5 -31.5t-65.5 -95.5h331
q0 51 -40 89t-109 38zM369 1239q0 79 54 126.5t132 47.5q70 0 122 -48t52 -126q0 -86 -51.5 -136t-122.5 -50q-79 0 -132.5 49.5t-53.5 136.5z" />
    <glyph glyph-name="Eogonek" unicode="&#x118;" horiz-adv-x="1177" 
d="M184 0v1434h850v-308h-522v-252h461v-307h-461v-260h543v-307q-85 0 -144 -35.5t-59 -75.5q0 -53 61 -53q36 0 82 21l92 -185q-27 -34 -96.5 -58t-148.5 -24q-129 0 -213 49.5t-84 145.5q0 144 198 215h-559z" />
    <glyph glyph-name="eogonek" unicode="&#x119;" horiz-adv-x="1048" 
d="M836 297l84 -217q-45 -33 -99 -55q-123 -75 -123 -136q0 -53 62 -53q36 0 82 21l92 -185q-27 -33 -97 -57.5t-149 -24.5q-129 0 -213 49.5t-84 145.5q0 54 44 103t122 87q-225 1 -360.5 134t-135.5 352q0 134 61 244t176 175.5t263 65.5q119 0 220.5 -53t164 -153.5
t62.5 -227.5q0 -89 -19 -154h-610q21 -63 78.5 -95t136.5 -32q138 0 242 66zM551 690q-74 0 -116.5 -31.5t-65.5 -95.5h331q0 51 -40 89t-109 38z" />
    <glyph glyph-name="Ecaron" unicode="&#x11a;" horiz-adv-x="1177" 
d="M184 0v1434h850v-308h-522v-252h461v-307h-461v-260h543v-307h-871zM625 1501l-377 240l119 174l262 -156l262 156l106 -170l-364 -244h-8z" />
    <glyph glyph-name="ecaron" unicode="&#x11b;" horiz-adv-x="1048" 
d="M836 297l84 -217q-140 -105 -359 -105q-227 0 -363.5 133.5t-136.5 352.5q0 134 61 244t176 175.5t263 65.5q119 0 220.5 -53t164 -153.5t62.5 -227.5q0 -89 -19 -154h-610q21 -63 78.5 -95t136.5 -32q138 0 242 66zM551 690q-74 0 -116.5 -31.5t-65.5 -95.5h331
q0 51 -40 89t-109 38zM555 999l-338 279l143 180l201 -166l205 162l137 -178l-340 -277h-8z" />
    <glyph glyph-name="Gcircumflex" unicode="&#x11c;" horiz-adv-x="1488" 
d="M774 510v307h612v-639q-92 -92 -244.5 -147.5t-291.5 -55.5q-182 0 -327 53t-241.5 150.5t-148 234.5t-51.5 304q0 154 51 289.5t143 235.5t230 158t303 58q152 0 264 -38t205 -111l-137 -265q-43 46 -126.5 76.5t-166.5 30.5q-121 0 -213.5 -46t-148.5 -145.5
t-56 -242.5q0 -198 116 -316t308 -118q61 0 129.5 23t95.5 48v156h-305zM414 1651l364 243h8l377 -239l-119 -174l-262 135l-262 -135z" />
    <glyph glyph-name="gcircumflex" unicode="&#x11d;" horiz-adv-x="1032" 
d="M0 -119q0 115 82 188.5t223 102.5q-12 24 -12 51q0 31 14 53q-107 42 -167 127.5t-60 188.5q0 145 111.5 249.5t295.5 104.5q137 0 236 -61l289 57l10 -246l-137 -26q10 -45 10 -78q0 -136 -103 -236t-272 -110q-2 -8 -2 -23q0 -17 6 -35q131 -4 230.5 -36.5t162 -102
t62.5 -168.5q0 -103 -68 -173.5t-175.5 -102t-246.5 -31.5q-104 0 -190 17.5t-154.5 53.5t-106.5 96t-38 140zM287 -119q0 -61 202 -61q203 0 203 61q0 64 -203 64q-101 0 -151.5 -17.5t-50.5 -46.5zM367 592q0 -44 31.5 -72t88.5 -28q54 0 87.5 26t33.5 74q0 46 -30.5 77
t-90.5 31q-56 0 -88 -32t-32 -76zM506 1446l338 -279l-144 -180l-200 166l-205 -162l-137 178l340 277h8z" />
    <glyph glyph-name="Gbreve" unicode="&#x11e;" horiz-adv-x="1488" 
d="M774 510v307h612v-639q-92 -92 -244.5 -147.5t-291.5 -55.5q-182 0 -327 53t-241.5 150.5t-148 234.5t-51.5 304q0 154 51 289.5t143 235.5t230 158t303 58q152 0 264 -38t205 -111l-137 -265q-43 46 -126.5 76.5t-166.5 30.5q-121 0 -213.5 -46t-148.5 -145.5
t-56 -242.5q0 -198 116 -316t308 -118q61 0 129.5 23t95.5 48v156h-305zM416 1726l131 158q119 -123 293 -123q175 0 286 123l113 -160q-57 -96 -166.5 -162.5t-232.5 -66.5q-136 0 -251.5 69.5t-172.5 161.5z" />
    <glyph glyph-name="gbreve" unicode="&#x11f;" horiz-adv-x="1032" 
d="M0 -119q0 115 82 188.5t223 102.5q-12 24 -12 51q0 31 14 53q-107 42 -167 127.5t-60 188.5q0 145 111.5 249.5t295.5 104.5q137 0 236 -61l289 57l10 -246l-137 -26q10 -45 10 -78q0 -136 -103 -236t-272 -110q-2 -8 -2 -23q0 -17 6 -35q131 -4 230.5 -36.5t162 -102
t62.5 -168.5q0 -103 -68 -173.5t-175.5 -102t-246.5 -31.5q-104 0 -190 17.5t-154.5 53.5t-106.5 96t-38 140zM287 -119q0 -61 202 -61q203 0 203 61q0 64 -203 64q-101 0 -151.5 -17.5t-50.5 -46.5zM367 592q0 -44 31.5 -72t88.5 -28q54 0 87.5 26t33.5 74q0 46 -30.5 77
t-90.5 31q-56 0 -88 -32t-32 -76zM147 1243l136 154q27 -30 51 -50t68.5 -38.5t95.5 -18.5q69 0 129.5 30.5t95.5 72.5l104 -148q-26 -40 -51.5 -69t-67 -62.5t-98.5 -51.5t-125 -18q-66 0 -125.5 21t-100.5 54t-68 63.5t-44 60.5z" />
    <glyph glyph-name="Gdotaccent" unicode="&#x120;" horiz-adv-x="1488" 
d="M774 510v307h612v-639q-92 -92 -244.5 -147.5t-291.5 -55.5q-182 0 -327 53t-241.5 150.5t-148 234.5t-51.5 304q0 154 51 289.5t143 235.5t230 158t303 58q152 0 264 -38t205 -111l-137 -265q-43 46 -126.5 76.5t-166.5 30.5q-121 0 -213.5 -46t-148.5 -145.5
t-56 -242.5q0 -198 116 -316t308 -118q61 0 129.5 23t95.5 48v156h-305zM561 1731q0 83 60 133.5t147 50.5q79 0 138 -50.5t59 -133.5q0 -91 -58.5 -144t-138.5 -53q-87 0 -147 52.5t-60 144.5z" />
    <glyph glyph-name="gdotaccent" unicode="&#x121;" horiz-adv-x="1032" 
d="M0 -119q0 115 82 188.5t223 102.5q-12 24 -12 51q0 31 14 53q-107 42 -167 127.5t-60 188.5q0 145 111.5 249.5t295.5 104.5q137 0 236 -61l289 57l10 -246l-137 -26q10 -45 10 -78q0 -136 -103 -236t-272 -110q-2 -8 -2 -23q0 -17 6 -35q131 -4 230.5 -36.5t162 -102
t62.5 -168.5q0 -103 -68 -173.5t-175.5 -102t-246.5 -31.5q-104 0 -190 17.5t-154.5 53.5t-106.5 96t-38 140zM287 -119q0 -61 202 -61q203 0 203 61q0 64 -203 64q-101 0 -151.5 -17.5t-50.5 -46.5zM367 592q0 -44 31.5 -72t88.5 -28q54 0 87.5 26t33.5 74q0 46 -30.5 77
t-90.5 31q-56 0 -88 -32t-32 -76zM307 1239q0 79 54.5 126.5t132.5 47.5q70 0 122 -48t52 -126q0 -86 -51.5 -136t-122.5 -50q-79 0 -133 49.5t-54 136.5z" />
    <glyph glyph-name="Gcommaaccent" unicode="&#x122;" horiz-adv-x="1488" 
d="M774 510v307h612v-639q-92 -92 -244.5 -147.5t-291.5 -55.5q-182 0 -327 53t-241.5 150.5t-148 234.5t-51.5 304q0 154 51 289.5t143 235.5t230 158t303 58q152 0 264 -38t205 -111l-137 -265q-43 46 -126.5 76.5t-166.5 30.5q-121 0 -213.5 -46t-148.5 -145.5
t-56 -242.5q0 -198 116 -316t308 -118q61 0 129.5 23t95.5 48v156h-305zM668 -102l305 59q26 -36 26 -98q0 -76 -49 -141t-116 -100.5t-136 -43.5l-90 131q49 22 66.5 50.5t17.5 68.5q0 43 -24 74z" />
    <glyph glyph-name="gcommaaccent" unicode="&#x123;" horiz-adv-x="1032" 
d="M0 -119q0 115 82 188.5t223 102.5q-12 24 -12 51q0 31 14 53q-107 42 -167 127.5t-60 188.5q0 145 111.5 249.5t295.5 104.5q137 0 236 -61l289 57l10 -246l-137 -26q10 -45 10 -78q0 -136 -103 -236t-272 -110q-2 -8 -2 -23q0 -17 6 -35q131 -4 230.5 -36.5t162 -102
t62.5 -168.5q0 -103 -68 -173.5t-175.5 -102t-246.5 -31.5q-104 0 -190 17.5t-154.5 53.5t-106.5 96t-38 140zM287 -119q0 -61 202 -61q203 0 203 61q0 64 -203 64q-101 0 -151.5 -17.5t-50.5 -46.5zM367 592q0 -44 31.5 -72t88.5 -28q54 0 87.5 26t33.5 74q0 46 -30.5 77
t-90.5 31q-56 0 -88 -32t-32 -76zM647 1120l-305 -59q-27 38 -27 98q0 76 49 141t116 100.5t136 43.5l91 -131q-49 -22 -66.5 -50.5t-17.5 -68.5q0 -43 24 -74z" />
    <glyph glyph-name="Hcircumflex" unicode="&#x124;" horiz-adv-x="1546" 
d="M1034 0v578h-522v-578h-328v1434h328v-549h522v549h328v-1434h-328zM403 1651l365 243h8l377 -239l-119 -174l-262 135l-262 -135z" />
    <glyph glyph-name="hcircumflex" unicode="&#x125;" horiz-adv-x="1114" 
d="M113 0v1434h307v-576q90 80 227 80q83 0 149 -22t118 -68t80 -124t28 -183v-541h-307v502q0 68 -41.5 108.5t-106.5 40.5q-88 0 -147 -59v-592h-307zM-68 1651l365 243h8l377 -239l-119 -174l-262 135l-262 -135z" />
    <glyph glyph-name="Hbar" unicode="&#x126;" horiz-adv-x="1566" 
d="M41 1018v287h154v129h327v-129h522v129h328v-129h154v-287h-154v-1018h-328v578h-522v-578h-327v1018h-154zM522 885h522v133h-522v-133z" />
    <glyph glyph-name="hbar" unicode="&#x127;" horiz-adv-x="1216" 
d="M20 1004v286h195v144h307v-144h275v-286h-275v-146q90 80 228 80q171 0 272.5 -95.5t101.5 -301.5v-541h-307v502q0 68 -41 108.5t-106 40.5q-89 0 -148 -59v-592h-307v1004h-195z" />
    <glyph glyph-name="Imacron" unicode="&#x12a;" horiz-adv-x="737" 
d="M205 0v1434h327v-1434h-327zM57 1536v246h643v-246h-643z" />
    <glyph glyph-name="imacron" unicode="&#x12b;" horiz-adv-x="585" 
d="M139 0v922h307v-922h-307zM-8 1065v246h602v-246h-602z" />
    <glyph glyph-name="Iogonek" unicode="&#x12e;" horiz-adv-x="737" 
d="M205 0v1434h327v-1434q-84 0 -143 -35.5t-59 -75.5q0 -53 61 -53q36 0 82 21l92 -185q-27 -33 -97 -57.5t-149 -24.5q-129 0 -212.5 49.5t-83.5 145.5q0 144 198 215h-16z" />
    <glyph glyph-name="iogonek" unicode="&#x12f;" horiz-adv-x="585" 
d="M387 -143l92 -185q-27 -33 -97 -57.5t-149 -24.5q-129 0 -212.5 49.5t-83.5 145.5q0 76 54.5 130t147.5 85v922h307v-922h-18q-78 -4 -131 -38.5t-53 -72.5q0 -53 61 -53q36 0 82 21zM104 1239q0 79 54.5 126.5t132.5 47.5q70 0 122 -48t52 -126q0 -86 -51.5 -136
t-122.5 -50q-79 0 -133 49.5t-54 136.5z" />
    <glyph glyph-name="Idotaccent" unicode="&#x130;" horiz-adv-x="737" 
d="M205 0v1434h327v-1434h-327zM168 1731q0 83 60 133.5t147 50.5q79 0 137.5 -50.5t58.5 -133.5q0 -91 -58 -144t-138 -53q-87 0 -147 52.5t-60 144.5z" />
    <glyph glyph-name="dotlessi" unicode="&#x131;" horiz-adv-x="585" 
d="M139 0v922h307v-922h-307z" />
    <glyph glyph-name="Jcircumflex" unicode="&#x134;" horiz-adv-x="833" 
d="M649 1434v-1084q0 -183 -98 -279t-281 -96q-87 0 -163.5 31t-106.5 70l106 250q57 -43 119 -43q44 0 70.5 33t26.5 94v1024h327zM113 1651l364 243h8l377 -239l-119 -174l-262 135l-262 -135z" />
    <glyph glyph-name="jcircumflex" unicode="&#x135;" horiz-adv-x="575" 
d="M463 922v-990q0 -358 -289 -358q-79 0 -147 20.5t-99 49.5l80 243q48 -26 90 -26q58 0 58 100v961h307zM315 1446l338 -279l-143 -180l-201 166l-205 -162l-137 178l340 277h8z" />
    <glyph glyph-name="Kcommaaccent" unicode="&#x136;" horiz-adv-x="1417" 
d="M184 0v1434h328v-625l469 625h393l-538 -662l581 -772h-416l-489 682v-682h-328zM545 -102l305 59q27 -38 27 -98q0 -58 -28.5 -110t-73.5 -87.5t-97 -58.5t-103 -29l-90 131q49 22 66.5 50.5t17.5 68.5q0 43 -24 74z" />
    <glyph glyph-name="kcommaaccent" unicode="&#x137;" horiz-adv-x="1099" 
d="M113 0v1434h307v-912l252 400h385l-299 -416l342 -506h-393l-287 440v-440h-307zM354 -102l305 59q27 -38 27 -98q0 -76 -49 -141t-116 -100.5t-136 -43.5l-90 131q49 22 66.5 50.5t17.5 68.5q0 42 -25 74z" />
    <glyph glyph-name="Lacute" unicode="&#x139;" horiz-adv-x="1116" 
d="M184 0v1434h328v-1127h584v-307h-912zM956 1651l-510 -160l-84 182l480 242z" />
    <glyph glyph-name="lacute" unicode="&#x13a;" horiz-adv-x="632" 
d="M113 264v1170h307v-1053q0 -119 51 -119q6 0 12 0.5t12.5 3t10.5 3.5t11.5 5.5l10 6t12 7.5t11.5 7l61 -234q-104 -86 -270 -86q-229 0 -229 289zM741 1651l-510 -160l-84 182l480 242z" />
    <glyph glyph-name="Lcommaaccent" unicode="&#x13b;" horiz-adv-x="1116" 
d="M184 0v1434h328v-1127h584v-307h-912zM463 -102l305 59q27 -38 27 -98q0 -76 -49 -141t-116 -100.5t-136 -43.5l-91 131q49 22 66.5 50.5t17.5 68.5q0 43 -24 74z" />
    <glyph glyph-name="lcommaaccent" unicode="&#x13c;" horiz-adv-x="632" 
d="M113 264v1170h307v-1053q0 -119 51 -119q6 0 12 0.5t12.5 3t10.5 3.5t11.5 5.5l10 6t12 7.5t11.5 7l61 -234q-104 -86 -270 -86q-229 0 -229 289zM207 -102l305 59q27 -38 27 -98q0 -76 -49 -141t-116 -100.5t-136 -43.5l-91 131q49 22 66.5 50.5t17.5 68.5q0 43 -24 74z
" />
    <glyph glyph-name="Lcaron" unicode="&#x13d;" horiz-adv-x="1116" 
d="M184 0v1434h328v-1127h584v-307h-912zM729 1434h299q10 -25 10 -66q0 -78 -20.5 -144.5t-56 -114.5t-73 -81t-81.5 -57l-143 129q88 101 88 231q0 49 -23 103z" />
    <glyph glyph-name="lcaron" unicode="&#x13e;" horiz-adv-x="632" 
d="M113 264v1170h307v-1053q0 -119 51 -119q6 0 12 0.5t12.5 3t10.5 3.5t11.5 5.5l10 6t12 7.5t11.5 7l61 -234q-104 -86 -270 -86q-229 0 -229 289zM545 1434h299q10 -25 10 -66q0 -78 -20.5 -144.5t-56 -114.5t-73 -81t-81.5 -57l-144 129q88 101 88 231q0 51 -22 103z
" />
    <glyph glyph-name="Ldot" unicode="&#x13f;" horiz-adv-x="1116" 
d="M184 0v1434h328v-1127h584v-307h-912zM705 770q0 74 57.5 133.5t150.5 59.5q82 0 137.5 -60t55.5 -133q0 -85 -54.5 -147t-138.5 -62q-94 0 -151 61.5t-57 147.5z" />
    <glyph glyph-name="ldot" unicode="&#x140;" horiz-adv-x="772" 
d="M113 264v1170h307v-1053q0 -119 51 -119q6 0 12 0.5t12.5 3t10.5 3.5t11.5 5.5l10 6t12 7.5t11.5 7l61 -234q-104 -86 -270 -86q-229 0 -229 289zM473 717q0 79 54 126.5t132 47.5q70 0 122.5 -48t52.5 -126q0 -86 -52 -136.5t-123 -50.5q-79 0 -132.5 50t-53.5 137z" />
    <glyph glyph-name="Lslash" unicode="&#x141;" horiz-adv-x="1136" 
d="M41 387v315l164 72v660h327v-514l306 135v-314l-306 -137v-297h584v-307h-911v459z" />
    <glyph glyph-name="lslash" unicode="&#x142;" horiz-adv-x="694" 
d="M20 373v315l134 57v689h307v-553l172 75v-313l-172 -76v-186q0 -119 51 -119q6 0 12 0.5t12.5 3t10.5 3.5t11.5 5.5l10 6t12 7.5t11.5 7l61 -234q-104 -86 -270 -86q-229 0 -229 289v166z" />
    <glyph glyph-name="Nacute" unicode="&#x143;" horiz-adv-x="1617" 
d="M1434 0h-263l-679 860v-860h-308v1434h262l680 -865v865h308v-1434zM1223 1651l-510 -160l-84 182l479 242z" />
    <glyph glyph-name="nacute" unicode="&#x144;" horiz-adv-x="1114" 
d="M113 0v922h307v-72q40 38 99.5 63t127.5 25q83 0 149 -20.5t118 -65t80 -121.5t28 -182v-549h-307v496q0 77 -41 116t-111 39q-80 0 -143 -63v-588h-307zM856 1329l-268 -299l-182 129l210 352z" />
    <glyph glyph-name="Ncommaaccent" unicode="&#x145;" horiz-adv-x="1617" 
d="M1434 0h-263l-679 860v-860h-308v1434h262l680 -865v865h308v-1434zM647 -102l305 59q27 -38 27 -98q0 -76 -49 -141t-116 -100.5t-136 -43.5l-90 131q49 22 66.5 50.5t17.5 68.5q0 42 -25 74z" />
    <glyph glyph-name="ncommaaccent" unicode="&#x146;" horiz-adv-x="1114" 
d="M113 0v922h307v-72q40 38 99.5 63t127.5 25q83 0 149 -20.5t118 -65t80 -121.5t28 -182v-549h-307v496q0 77 -41 116t-111 39q-80 0 -143 -63v-588h-307zM383 -102l305 59q27 -38 27 -98q0 -76 -49 -141t-116 -100.5t-136 -43.5l-90 131q49 22 66.5 50.5t17.5 68.5
q0 42 -25 74z" />
    <glyph glyph-name="Ncaron" unicode="&#x147;" horiz-adv-x="1617" 
d="M1434 0h-263l-679 860v-860h-308v1434h262l680 -865v865h308v-1434zM813 1501l-377 240l119 174l262 -156l262 156l107 -170l-365 -244h-8z" />
    <glyph glyph-name="ncaron" unicode="&#x148;" horiz-adv-x="1114" 
d="M113 0v922h307v-72q40 38 99.5 63t127.5 25q83 0 149 -20.5t118 -65t80 -121.5t28 -182v-549h-307v496q0 77 -41 116t-111 39q-80 0 -143 -63v-588h-307zM551 999l-338 279l143 180l201 -166l205 162l137 -178l-340 -277h-8z" />
    <glyph glyph-name="Omacron" unicode="&#x14c;" horiz-adv-x="1687" 
d="M82 717q0 155 55.5 291t153.5 235.5t241.5 157t311.5 57.5q218 0 390.5 -89t272 -258.5t99.5 -393.5q0 -160 -58 -298.5t-159 -235.5t-242 -152.5t-303 -55.5q-163 0 -303 52t-241.5 147t-159.5 235t-58 308zM430 717q0 -183 120.5 -308.5t293.5 -125.5q132 0 227 58.5
t140.5 155.5t45.5 220q0 193 -118 313.5t-295 120.5q-181 0 -297.5 -120t-116.5 -314zM543 1536v246h643v-246h-643z" />
    <glyph glyph-name="omacron" unicode="&#x14d;" horiz-adv-x="1146" 
d="M61 461q0 211 140 348t372 137t372 -137t140 -348t-140 -348.5t-372 -137.5t-372 137.5t-140 348.5zM389 461q0 -87 52.5 -143t131.5 -56q80 0 132.5 54t52.5 145q0 88 -53.5 143t-131.5 55q-77 0 -130.5 -54t-53.5 -144zM293 1065v246h602v-246h-602z" />
    <glyph glyph-name="Ohungarumlaut" unicode="&#x150;" horiz-adv-x="1687" 
d="M82 717q0 155 55.5 291t153.5 235.5t241.5 157t311.5 57.5q218 0 390.5 -89t272 -258.5t99.5 -393.5q0 -160 -58 -298.5t-159 -235.5t-242 -152.5t-303 -55.5q-163 0 -303 52t-241.5 147t-159.5 235t-58 308zM430 717q0 -183 120.5 -308.5t293.5 -125.5q132 0 227 58.5
t140.5 155.5t45.5 220q0 193 -118 313.5t-295 120.5q-181 0 -297.5 -120t-116.5 -314zM1423 1722l-417 -231l-125 129l325 295zM973 1782l-342 -291l-131 119l207 305z" />
    <glyph glyph-name="ohungarumlaut" unicode="&#x151;" horiz-adv-x="1146" 
d="M61 461q0 211 140 348t372 137t372 -137t140 -348t-140 -348.5t-372 -137.5t-372 137.5t-140 348.5zM389 461q0 -87 52.5 -143t131.5 -56q80 0 132.5 54t52.5 145q0 88 -53.5 143t-131.5 55q-77 0 -130.5 -54t-53.5 -144zM1051 1315l-287 -285l-182 129l241 328z
M653 1352l-237 -322l-183 129l199 357z" />
    <glyph glyph-name="OE" unicode="&#x152;" horiz-adv-x="2117" 
d="M1124 0v29q-141 -54 -290 -54q-220 0 -391 92t-266 261t-95 389q0 124 30 235t91.5 204t150 160t210.5 104.5t267 37.5q159 0 293 -57v33h850v-308h-522v-252h461v-307h-461v-260h543v-307h-871zM864 283q137 0 260 69v711q-71 43 -136 65.5t-157 22.5
q-173 0 -287 -114.5t-114 -319.5q0 -191 120.5 -312.5t313.5 -121.5z" />
    <glyph glyph-name="oe" unicode="&#x153;" horiz-adv-x="1695" 
d="M1483 297l84 -217q-140 -105 -359 -105q-186 0 -315 93q-132 -93 -320 -93q-232 0 -372 137.5t-140 348.5t140 348t372 137q192 0 324 -96q133 96 311 96q119 0 220.5 -53t164 -153.5t62.5 -227.5q0 -89 -19 -154h-610q21 -63 78.5 -95t136.5 -32q138 0 242 66zM573 262
q95 0 152 57q-16 57 -16 142q0 75 18 143q-63 55 -154 55q-77 0 -130.5 -54t-53.5 -144q0 -87 52.5 -143t131.5 -56zM1198 690q-74 0 -116.5 -31.5t-65.5 -95.5h332q0 51 -40 89t-110 38z" />
    <glyph glyph-name="Racute" unicode="&#x154;" horiz-adv-x="1378" 
d="M512 0h-328v1434q45 0 258.5 2t229.5 2q143 0 247 -34t165 -97t89.5 -144t28.5 -184q0 -76 -18 -141.5t-43.5 -108t-61.5 -78.5t-62.5 -54t-55.5 -32l417 -565h-397l-348 502h-121v-502zM655 1130q-7 0 -143 -4v-317h119q101 0 162 40t61 126q0 155 -199 155zM1018 1651
l-510 -160l-84 182l479 242z" />
    <glyph glyph-name="racute" unicode="&#x155;" horiz-adv-x="753" 
d="M113 0v922h307v-74q31 44 74 67t116 23q97 0 144 -35l-109 -287q-58 35 -113 35q-77 0 -112 -65v-586h-307zM670 1329l-269 -299l-182 129l211 352z" />
    <glyph glyph-name="Rcommaaccent" unicode="&#x156;" horiz-adv-x="1378" 
d="M512 0h-328v1434q45 0 258.5 2t229.5 2q143 0 247 -34t165 -97t89.5 -144t28.5 -184q0 -76 -18 -141.5t-43.5 -108t-61.5 -78.5t-62.5 -54t-55.5 -32l417 -565h-397l-348 502h-121v-502zM655 1130q-7 0 -143 -4v-317h119q101 0 162 40t61 126q0 155 -199 155zM524 -102
l305 59q27 -38 27 -98q0 -76 -49 -141t-116 -100.5t-136 -43.5l-90 131q49 22 66.5 50.5t17.5 68.5q0 42 -25 74z" />
    <glyph glyph-name="rcommaaccent" unicode="&#x157;" horiz-adv-x="753" 
d="M113 0v922h307v-74q31 44 74 67t116 23q97 0 144 -35l-109 -287q-58 35 -113 35q-77 0 -112 -65v-586h-307zM199 -102l305 59q26 -36 26 -98q0 -76 -49 -141t-116 -100.5t-136 -43.5l-90 131q49 22 66.5 50.5t17.5 68.5q0 43 -24 74z" />
    <glyph glyph-name="Rcaron" unicode="&#x158;" horiz-adv-x="1378" 
d="M512 0h-328v1434q45 0 258.5 2t229.5 2q143 0 247 -34t165 -97t89.5 -144t28.5 -184q0 -76 -18 -141.5t-43.5 -108t-61.5 -78.5t-62.5 -54t-55.5 -32l417 -565h-397l-348 502h-121v-502zM655 1130q-7 0 -143 -4v-317h119q101 0 162 40t61 126q0 155 -199 155zM645 1501
l-377 240l119 174l262 -156l262 156l107 -170l-365 -244h-8z" />
    <glyph glyph-name="rcaron" unicode="&#x159;" horiz-adv-x="753" 
d="M113 0v922h307v-74q31 44 74 67t116 23q97 0 144 -35l-109 -287q-58 35 -113 35q-77 0 -112 -65v-586h-307zM408 999l-338 279l143 180l201 -166l204 162l138 -178l-340 -277h-8z" />
    <glyph glyph-name="Sacute" unicode="&#x15a;" horiz-adv-x="1140" 
d="M711 393q0 43 -33 79t-85.5 64t-116.5 57.5t-128 68.5t-116.5 87.5t-85.5 124.5t-33 170q0 172 127 293t335 121q135 0 244 -42t178 -116l-176 -245q-55 51 -99.5 73.5t-117.5 22.5q-67 0 -105 -28.5t-38 -78.5q0 -42 25.5 -77t67.5 -59t96 -50.5t110 -51t110 -62.5
t96 -82.5t67.5 -112.5t25.5 -152q0 -185 -141 -303.5t-351 -118.5q-155 0 -295 63t-190 173l186 223q58 -74 142 -112.5t165 -38.5q64 0 100 29.5t36 80.5zM1010 1651l-510 -160l-84 182l479 242z" />
    <glyph glyph-name="sacute" unicode="&#x15b;" horiz-adv-x="940" 
d="M571 272q0 19 -27 33.5t-70 25t-94.5 23t-103.5 34.5t-95 53t-70 83.5t-27 120.5q0 143 102.5 222t257.5 79q243 0 387 -125l-114 -217q-48 34 -117 60t-137 26q-32 0 -52 -12.5t-20 -28.5q0 -19 27 -32.5t70 -24t95 -22.5t104 -33.5t95 -51t70 -80.5t27 -118
q0 -141 -107.5 -226.5t-290.5 -85.5q-135 0 -259 56.5t-161 113.5l146 201q44 -42 135.5 -78.5t159.5 -36.5q69 0 69 41zM725 1329l-268 -299l-183 129l211 352z" />
    <glyph glyph-name="Scircumflex" unicode="&#x15c;" horiz-adv-x="1140" 
d="M711 393q0 43 -33 79t-85.5 64t-116.5 57.5t-128 68.5t-116.5 87.5t-85.5 124.5t-33 170q0 172 127 293t335 121q135 0 244 -42t178 -116l-176 -245q-55 51 -99.5 73.5t-117.5 22.5q-67 0 -105 -28.5t-38 -78.5q0 -42 25.5 -77t67.5 -59t96 -50.5t110 -51t110 -62.5
t96 -82.5t67.5 -112.5t25.5 -152q0 -185 -141 -303.5t-351 -118.5q-155 0 -295 63t-190 173l186 223q58 -74 142 -112.5t165 -38.5q64 0 100 29.5t36 80.5zM195 1651l364 243h8l377 -239l-119 -174l-262 135l-262 -135z" />
    <glyph glyph-name="scircumflex" unicode="&#x15d;" horiz-adv-x="940" 
d="M571 272q0 19 -27 33.5t-70 25t-94.5 23t-103.5 34.5t-95 53t-70 83.5t-27 120.5q0 143 102.5 222t257.5 79q243 0 387 -125l-114 -217q-48 34 -117 60t-137 26q-32 0 -52 -12.5t-20 -28.5q0 -19 27 -32.5t70 -24t95 -22.5t104 -33.5t95 -51t70 -80.5t27 -118
q0 -141 -107.5 -226.5t-290.5 -85.5q-135 0 -259 56.5t-161 113.5l146 201q44 -42 135.5 -78.5t159.5 -36.5q69 0 69 41zM475 1446l338 -279l-143 -180l-201 166l-205 -162l-137 178l340 277h8z" />
    <glyph glyph-name="Scedilla" unicode="&#x15e;" horiz-adv-x="1140" 
d="M246 -322l98 152q26 -26 71 -51t81 -25q45 0 45 27q0 35 -52 35h-12v166q-134 16 -243.5 75.5t-151.5 153.5l186 223q58 -74 142 -112.5t165 -38.5q64 0 100 29.5t36 80.5q0 43 -33 79t-85.5 64t-116.5 57.5t-128 68.5t-116.5 87.5t-85.5 124.5t-33 170q0 172 127 293
t335 121q135 0 244 -42t178 -116l-176 -245q-55 51 -99.5 73.5t-117.5 22.5q-67 0 -105 -28.5t-38 -78.5q0 -42 25.5 -77t67.5 -59t96 -50.5t110 -51t110 -62.5t96 -82.5t67.5 -112.5t25.5 -152q0 -171 -120.5 -285t-307.5 -132v-33q237 -17 237 -185q0 -87 -78.5 -139.5
t-218.5 -52.5q-206 0 -325 108z" />
    <glyph glyph-name="scedilla" unicode="&#x15f;" horiz-adv-x="940" 
d="M152 -330l90 142q23 -23 62 -40.5t77 -17.5q45 0 45 27q0 19 -11.5 27t-39.5 8h-13v172q-103 21 -188.5 67.5t-112.5 89.5l146 201q44 -42 135.5 -78.5t159.5 -36.5q69 0 69 41q0 19 -27 33.5t-70 25t-94.5 23t-103.5 34.5t-95 53t-70 83.5t-27 120.5q0 143 102.5 222
t257.5 79q243 0 387 -125l-114 -217q-48 34 -117 60t-137 26q-32 0 -52 -12.5t-20 -28.5q0 -19 27 -32.5t70 -24t95 -22.5t104 -33.5t95 -51t70 -80.5t27 -118q0 -134 -97.5 -218.5t-265.5 -91.5v-30q104 -9 160.5 -56t56.5 -129q0 -88 -79 -140t-230 -52q-55 0 -101 9.5
t-79 27t-51.5 30.5t-40.5 33z" />
    <glyph glyph-name="Scaron" unicode="&#x160;" horiz-adv-x="1140" 
d="M711 393q0 43 -33 79t-85.5 64t-116.5 57.5t-128 68.5t-116.5 87.5t-85.5 124.5t-33 170q0 172 127 293t335 121q135 0 244 -42t178 -116l-176 -245q-55 51 -99.5 73.5t-117.5 22.5q-67 0 -105 -28.5t-38 -78.5q0 -42 25.5 -77t67.5 -59t96 -50.5t110 -51t110 -62.5
t96 -82.5t67.5 -112.5t25.5 -152q0 -185 -141 -303.5t-351 -118.5q-155 0 -295 63t-190 173l186 223q58 -74 142 -112.5t165 -38.5q64 0 100 29.5t36 80.5zM575 1501l-376 240l118 174l263 -156l262 156l106 -170l-364 -244h-9z" />
    <glyph glyph-name="scaron" unicode="&#x161;" horiz-adv-x="940" 
d="M571 272q0 19 -27 33.5t-70 25t-94.5 23t-103.5 34.5t-95 53t-70 83.5t-27 120.5q0 143 102.5 222t257.5 79q243 0 387 -125l-114 -217q-48 34 -117 60t-137 26q-32 0 -52 -12.5t-20 -28.5q0 -19 27 -32.5t70 -24t95 -22.5t104 -33.5t95 -51t70 -80.5t27 -118
q0 -141 -107.5 -226.5t-290.5 -85.5q-135 0 -259 56.5t-161 113.5l146 201q44 -42 135.5 -78.5t159.5 -36.5q69 0 69 41zM463 999l-338 279l143 180l201 -166l205 162l137 -178l-340 -277h-8z" />
    <glyph glyph-name="Tcedilla" unicode="&#x162;" 
d="M309 -322l99 152q27 -27 71 -51.5t80 -24.5q45 0 45 27q0 19 -11.5 27t-39.5 8h-12v184h-90v1126h-431v308h1188v-308h-430v-1126h-84v-53q238 -17 238 -185q0 -87 -78.5 -139.5t-218.5 -52.5q-207 0 -326 108z" />
    <glyph glyph-name="tcedilla" unicode="&#x163;" horiz-adv-x="749" 
d="M61 -330l91 142q23 -23 62 -40.5t77 -17.5q45 0 45 27q0 19 -11.5 27t-39.5 8h-13v176q-180 57 -180 358v828h307v-256h256v-287h-256v-270q0 -44 15.5 -73.5t44.5 -29.5q31 0 58.5 9t42 18t36.5 26l92 -235q-105 -89 -262 -103v-30q104 -9 160.5 -56t56.5 -129
q0 -88 -79 -140t-230 -52q-72 0 -131.5 18.5t-85.5 36.5t-56 45z" />
    <glyph glyph-name="Tcaron" unicode="&#x164;" 
d="M20 1126v308h1188v-308h-430v-1126h-327v1126h-431zM602 1501l-377 240l119 174l262 -156l262 156l107 -170l-365 -244h-8z" />
    <glyph glyph-name="tcaron" unicode="&#x165;" horiz-adv-x="749" 
d="M92 350v828h307v-256h256v-287h-256v-270q0 -44 15.5 -73.5t44.5 -29.5q31 0 58.5 9t42 18t36.5 26l92 -235q-51 -44 -132 -74.5t-177 -30.5q-152 0 -219.5 95.5t-67.5 279.5zM524 1434h299q11 -28 11 -66q0 -77 -20.5 -144t-56.5 -115t-73.5 -81t-81.5 -57l-143 129
q88 101 88 231q0 49 -23 103z" />
    <glyph glyph-name="Umacron" unicode="&#x16a;" horiz-adv-x="1538" 
d="M1374 1434v-842q0 -128 -31.5 -232t-86 -174.5t-129.5 -119t-160 -70t-179 -21.5q-139 0 -253 40t-197 117.5t-128.5 198t-45.5 275.5v828h328v-758q0 -88 14.5 -156t47 -123t92 -84.5t142.5 -29.5q142 0 200.5 95t58.5 279v777h327zM467 1536v246h643v-246h-643z" />
    <glyph glyph-name="umacron" unicode="&#x16b;" horiz-adv-x="1085" 
d="M973 922v-922h-307v92q-92 -117 -265 -117q-60 0 -114.5 22t-98.5 65.5t-70 115.5t-26 164v580h307v-514q0 -62 28.5 -104t90.5 -42q81 0 148 84v576h307zM231 1065v246h603v-246h-603z" />
    <glyph glyph-name="Ubreve" unicode="&#x16c;" horiz-adv-x="1538" 
d="M1374 1434v-842q0 -128 -31.5 -232t-86 -174.5t-129.5 -119t-160 -70t-179 -21.5q-139 0 -253 40t-197 117.5t-128.5 198t-45.5 275.5v828h328v-758q0 -88 14.5 -156t47 -123t92 -84.5t142.5 -29.5q142 0 200.5 95t58.5 279v777h327zM348 1726l131 158q119 -123 293 -123
q93 0 166.5 35.5t120.5 87.5l112 -160q-57 -96 -166.5 -162.5t-232.5 -66.5q-136 0 -251.5 69.5t-172.5 161.5z" />
    <glyph glyph-name="ubreve" unicode="&#x16d;" horiz-adv-x="1085" 
d="M973 922v-922h-307v92q-92 -117 -265 -117q-60 0 -114.5 22t-98.5 65.5t-70 115.5t-26 164v580h307v-514q0 -62 28.5 -104t90.5 -42q81 0 148 84v576h307zM190 1243l136 154q27 -30 51 -50t68.5 -38.5t95.5 -18.5q69 0 129.5 30.5t95.5 72.5l104 -148q-26 -40 -51.5 -69
t-67 -62.5t-98.5 -51.5t-125 -18q-66 0 -125.5 21t-100.5 54t-68 63.5t-44 60.5z" />
    <glyph glyph-name="Uring" unicode="&#x16e;" horiz-adv-x="1538" 
d="M1374 1434v-842q0 -128 -31.5 -232t-86 -174.5t-129.5 -119t-160 -70t-179 -21.5q-139 0 -253 40t-197 117.5t-128.5 198t-45.5 275.5v828h328v-758q0 -88 14.5 -156t47 -123t92 -84.5t142.5 -29.5q142 0 200.5 95t58.5 279v777h327zM451 1657q0 121 88.5 181t228.5 60
q146 0 237 -60t91 -181q0 -120 -92 -184t-236 -64q-138 0 -227.5 64.5t-89.5 183.5zM676 1657q0 -41 26.5 -62.5t69.5 -21.5t70.5 21.5t27.5 62.5q0 39 -27 58.5t-71 19.5t-70 -19.5t-26 -58.5z" />
    <glyph glyph-name="uring" unicode="&#x16f;" horiz-adv-x="1085" 
d="M973 922v-922h-307v92q-92 -117 -265 -117q-60 0 -114.5 22t-98.5 65.5t-70 115.5t-26 164v580h307v-514q0 -62 28.5 -104t90.5 -42q81 0 148 84v576h307zM252 1251q0 111 79.5 188t200.5 77q123 0 204 -77.5t81 -187.5q0 -109 -81 -184.5t-204 -75.5q-121 0 -200.5 75.5
t-79.5 184.5zM446 1255q0 -42 25.5 -71t65.5 -29q39 0 62.5 29t23.5 71q0 41 -23.5 69t-62.5 28q-40 0 -65.5 -28t-25.5 -69z" />
    <glyph glyph-name="Uhungarumlaut" unicode="&#x170;" horiz-adv-x="1538" 
d="M1374 1434v-842q0 -128 -31.5 -232t-86 -174.5t-129.5 -119t-160 -70t-179 -21.5q-139 0 -253 40t-197 117.5t-128.5 198t-45.5 275.5v828h328v-758q0 -88 14.5 -156t47 -123t92 -84.5t142.5 -29.5q142 0 200.5 95t58.5 279v777h327zM1321 1722l-418 -231l-125 129
l326 295zM870 1782l-342 -291l-131 119l207 305z" />
    <glyph glyph-name="uhungarumlaut" unicode="&#x171;" horiz-adv-x="1085" 
d="M973 922v-922h-307v92q-92 -117 -265 -117q-60 0 -114.5 22t-98.5 65.5t-70 115.5t-26 164v580h307v-514q0 -62 28.5 -104t90.5 -42q81 0 148 84v576h307zM1010 1315l-287 -285l-182 129l241 328zM612 1352l-237 -322l-182 129l198 357z" />
    <glyph glyph-name="Uogonek" unicode="&#x172;" horiz-adv-x="1538" 
d="M1374 1434v-842q0 -238 -102 -384t-273 -202q-131 -64 -131 -117t62 -53q36 0 82 21l92 -185q-27 -33 -97 -57.5t-149 -24.5q-129 0 -213 49.5t-84 145.5q0 119 160 192q-257 19 -407 180t-150 449v828h328v-758q0 -88 14.5 -156t47 -123t92 -84.5t142.5 -29.5
q142 0 200.5 95t58.5 279v777h327z" />
    <glyph glyph-name="uogonek" unicode="&#x173;" horiz-adv-x="1085" 
d="M913 -143l93 -185q-27 -33 -97 -57.5t-149 -24.5q-129 0 -213 49.5t-84 145.5q0 76 55 130t148 85v92q-92 -117 -265 -117q-60 0 -114.5 22t-98.5 65.5t-70 115.5t-26 164v580h307v-514q0 -62 28.5 -104t90.5 -42q81 0 148 84v576h307v-922q-85 0 -144 -35.5t-59 -75.5
q0 -53 61 -53q36 0 82 21z" />
    <glyph glyph-name="Ydieresis" unicode="&#x178;" horiz-adv-x="1339" 
d="M1339 1434l-508 -850v-584h-327v584l-504 850h375l307 -543l303 543h354zM240 1714q0 73 57 116.5t143 43.5q75 0 131 -44t56 -116q0 -80 -55.5 -126t-131.5 -46q-87 0 -143.5 45t-56.5 127zM713 1714q0 73 57.5 116.5t142.5 43.5q76 0 131.5 -44t55.5 -116
q0 -81 -55 -126.5t-132 -45.5q-86 0 -143 45.5t-57 126.5z" />
    <glyph glyph-name="Zacute" unicode="&#x179;" horiz-adv-x="1331" 
d="M123 1126v308h1106v-230l-711 -897h731v-307h-1167v229l709 897h-668zM1079 1651l-510 -160l-84 182l480 242z" />
    <glyph glyph-name="zacute" unicode="&#x17a;" horiz-adv-x="1013" 
d="M113 635v287h819v-226l-424 -409h414v-287h-840v225l422 410h-391zM784 1329l-268 -299l-182 129l211 352z" />
    <glyph glyph-name="Zdotaccent" unicode="&#x17b;" horiz-adv-x="1331" 
d="M123 1126v308h1106v-230l-711 -897h731v-307h-1167v229l709 897h-668zM479 1731q0 83 60 133.5t147 50.5q79 0 138 -50.5t59 -133.5q0 -91 -58.5 -144t-138.5 -53q-87 0 -147 52.5t-60 144.5z" />
    <glyph glyph-name="zdotaccent" unicode="&#x17c;" horiz-adv-x="1013" 
d="M113 635v287h819v-226l-424 -409h414v-287h-840v225l422 410h-391zM319 1239q0 79 54.5 126.5t132.5 47.5q70 0 122 -48t52 -126q0 -86 -51.5 -136t-122.5 -50q-79 0 -133 49.5t-54 136.5z" />
    <glyph glyph-name="Zcaron" unicode="&#x17d;" horiz-adv-x="1331" 
d="M123 1126v308h1106v-230l-711 -897h731v-307h-1167v229l709 897h-668zM686 1501l-377 240l119 174l262 -156l262 156l107 -170l-365 -244h-8z" />
    <glyph glyph-name="zcaron" unicode="&#x17e;" horiz-adv-x="1013" 
d="M113 635v287h819v-226l-424 -409h414v-287h-840v225l422 410h-391zM522 999l-338 279l144 180l200 -166l205 162l137 -178l-340 -277h-8z" />
    <glyph glyph-name="longs" unicode="&#x17f;" horiz-adv-x="532" 
d="M113 0v1071q0 188 89.5 287.5t246.5 99.5q83 0 157 -25t111 -65l-103 -233q-33 36 -110 36q-34 0 -59 -30.5t-25 -87.5v-1053h-307z" />
    <glyph glyph-name="uni018F" unicode="&#x18f;" horiz-adv-x="1603" 
d="M94 885h1071q-47 129 -164 197.5t-282 68.5q-172 0 -311 -104l-125 245q81 71 213.5 118.5t302.5 47.5q207 0 371 -91.5t258 -261t94 -388.5q0 -227 -93 -396t-260 -257.5t-387 -88.5q-167 0 -305.5 62t-233.5 175.5t-136 287.5t-13 385zM778 283q323 0 400 295h-744
q16 -123 106.5 -209t237.5 -86z" />
    <glyph glyph-name="florin" unicode="&#x192;" 
d="M877 1053l-23 -131h182v-287h-231l-121 -703q-17 -91 -39 -152t-57.5 -110t-89.5 -72.5t-129 -23.5q-79 0 -147 20.5t-99 49.5l80 243q48 -26 90 -26q31 0 53.5 28.5t30.5 71.5l117 674h-195v287h244l26 149q40 205 116.5 296t225.5 91q83 0 157.5 -25t111.5 -65
l-103 -233q-33 36 -110 36q-32 0 -56 -29.5t-34 -88.5z" />
    <glyph glyph-name="uni01DD" unicode="&#x1dd;" horiz-adv-x="1048" 
d="M225 625l-84 217q139 104 359 104q225 0 356 -132.5t131 -352.5q0 -137 -53 -245t-162.5 -174.5t-261.5 -66.5q-199 0 -334 121t-135 314q0 92 18 153h623q-21 63 -78.5 95t-136.5 32q-139 0 -242 -65zM510 231q74 0 116.5 31.5t65.5 95.5h-332q0 -51 40 -89t110 -38z
" />
    <glyph glyph-name="Scommaaccent" unicode="&#x218;" horiz-adv-x="1140" 
d="M711 393q0 43 -33 79t-85.5 64t-116.5 57.5t-128 68.5t-116.5 87.5t-85.5 124.5t-33 170q0 172 127 293t335 121q135 0 244 -42t178 -116l-176 -245q-55 51 -99.5 73.5t-117.5 22.5q-67 0 -105 -28.5t-38 -78.5q0 -42 25.5 -77t67.5 -59t96 -50.5t110 -51t110 -62.5
t96 -82.5t67.5 -112.5t25.5 -152q0 -185 -141 -303.5t-351 -118.5q-155 0 -295 63t-190 173l186 223q58 -74 142 -112.5t165 -38.5q64 0 100 29.5t36 80.5zM434 -102l305 59q27 -38 27 -98q0 -76 -49 -141t-116 -100.5t-136 -43.5l-90 131q49 22 66.5 50.5t17.5 68.5
q0 42 -25 74z" />
    <glyph glyph-name="scommaaccent" unicode="&#x219;" horiz-adv-x="940" 
d="M571 272q0 19 -27 33.5t-70 25t-94.5 23t-103.5 34.5t-95 53t-70 83.5t-27 120.5q0 143 102.5 222t257.5 79q243 0 387 -125l-114 -217q-48 34 -117 60t-137 26q-32 0 -52 -12.5t-20 -28.5q0 -19 27 -32.5t70 -24t95 -22.5t104 -33.5t95 -51t70 -80.5t27 -118
q0 -141 -107.5 -226.5t-290.5 -85.5q-135 0 -259 56.5t-161 113.5l146 201q44 -42 135.5 -78.5t159.5 -36.5q69 0 69 41zM315 -102l306 59q26 -36 26 -98q0 -76 -49 -141t-116 -100.5t-136 -43.5l-90 131q49 22 66.5 50.5t17.5 68.5q0 42 -25 74z" />
    <glyph glyph-name="Tcommaaccent" unicode="&#x21a;" 
d="M20 1126v308h1188v-308h-430v-1126h-327v1126h-431zM432 -102l305 59q27 -38 27 -98q0 -76 -49 -141t-116 -100.5t-136 -43.5l-90 131q49 22 66.5 50.5t17.5 68.5q0 42 -25 74z" />
    <glyph glyph-name="tcommaaccent" unicode="&#x21b;" horiz-adv-x="749" 
d="M92 350v828h307v-256h256v-287h-256v-270q0 -44 15.5 -73.5t44.5 -29.5q31 0 58.5 9t42 18t36.5 26l92 -235q-51 -44 -132 -74.5t-177 -30.5q-152 0 -219.5 95.5t-67.5 279.5zM176 -102l305 59q27 -38 27 -98q0 -76 -49 -141t-116 -100.5t-136 -43.5l-90 131
q49 22 66.5 50.5t17.5 68.5q0 42 -25 74z" />
    <glyph glyph-name="uni0237" unicode="&#x237;" horiz-adv-x="575" 
d="M463 922v-990q0 -358 -289 -358q-79 0 -147 20.5t-99 49.5l80 243q48 -26 90 -26q58 0 58 100v961h307z" />
    <glyph glyph-name="uni0259" unicode="&#x259;" horiz-adv-x="1048" 
d="M225 625l-84 217q139 104 359 104q225 0 356 -132.5t131 -352.5q0 -137 -53 -245t-162.5 -174.5t-261.5 -66.5q-199 0 -334 121t-135 314q0 92 18 153h623q-21 63 -78.5 95t-136.5 32q-139 0 -242 -65zM510 231q74 0 116.5 31.5t65.5 95.5h-332q0 -51 40 -89t110 -38z
" />
    <glyph glyph-name="afii57929" unicode="&#x2bc;" horiz-adv-x="620" 
d="M162 1284l258 150q37 -38 57.5 -98t20.5 -117q0 -62 -16 -119.5t-39.5 -99.5t-56 -78.5t-61.5 -59.5t-59 -41l-143 129q42 39 65 92.5t23 108.5q0 84 -49 133z" />
    <glyph glyph-name="circumflex" unicode="&#x2c6;" horiz-adv-x="931" 
d="M471 1446l338 -279l-143 -180l-201 166l-205 -162l-137 178l340 277h8z" />
    <glyph glyph-name="caron" unicode="&#x2c7;" horiz-adv-x="931" 
d="M461 999l-338 279l143 180l201 -166l205 162l137 -178l-340 -277h-8z" />
    <glyph glyph-name="breve" unicode="&#x2d8;" horiz-adv-x="925" 
d="M123 1243l135 154q27 -30 51 -50t68.5 -38.5t95.5 -18.5q69 0 129.5 30.5t95.5 72.5l105 -148q-26 -40 -51.5 -69t-67 -62.5t-98.5 -51.5t-125 -18q-66 0 -125.5 21t-100.5 54t-68 63.5t-44 60.5z" />
    <glyph glyph-name="dotaccent" unicode="&#x2d9;" horiz-adv-x="606" 
d="M123 1239q0 79 54 126.5t132 47.5q70 0 122 -48t52 -126q0 -86 -51.5 -136t-122.5 -50q-79 0 -132.5 49.5t-53.5 136.5z" />
    <glyph glyph-name="ring" unicode="&#x2da;" horiz-adv-x="811" 
d="M123 1251q0 111 79.5 188t200.5 77q123 0 204 -77.5t81 -187.5q0 -109 -81 -184.5t-204 -75.5q-121 0 -200.5 75.5t-79.5 184.5zM317 1255q0 -42 25.5 -71t65.5 -29q39 0 62.5 29t23.5 71q0 41 -23.5 69t-62.5 28q-40 0 -65.5 -28t-25.5 -69z" />
    <glyph glyph-name="ogonek" unicode="&#x2db;" horiz-adv-x="788" 
d="M573 -143l93 -185q-27 -33 -97 -57.5t-149 -24.5q-129 0 -213 49.5t-84 145.5q0 68 47 121t123 82.5t163 44.5t177 14v-47q-85 0 -144 -35.5t-59 -75.5q0 -53 62 -53q35 0 81 21z" />
    <glyph glyph-name="tilde" unicode="&#x2dc;" horiz-adv-x="993" 
d="M246 1063l-123 137q56 80 127.5 120t142.5 40q49 0 125 -40t117 -40q20 0 34.5 2t29.5 8.5t21 10t24.5 17t25.5 17.5l100 -153q-57 -68 -125.5 -108t-134.5 -40q-45 0 -121 40t-122 40q-14 0 -32.5 -6t-30 -12t-33 -18.5t-25.5 -14.5z" />
    <glyph glyph-name="hungarumlaut" unicode="&#x2dd;" horiz-adv-x="1062" 
d="M940 1315l-287 -285l-182 129l242 328zM543 1352l-238 -322l-182 129l199 357z" />
    <glyph glyph-name="gravecomb" unicode="&#x300;" horiz-adv-x="0" 
d="M-606 1030l-273 295l244 182l211 -348z" />
    <glyph glyph-name="acutecomb" unicode="&#x301;" horiz-adv-x="0" 
d="M-252 1329l-268 -299l-182 129l210 352z" />
    <glyph glyph-name="uni0394" unicode="&#x394;" horiz-adv-x="1548" 
d="M41 0l621 1450h210l635 -1450h-1466zM760 901l-244 -594h504z" />
    <glyph glyph-name="uni0394" unicode="&#x2206;" horiz-adv-x="1548" 
d="M41 0l621 1450h210l635 -1450h-1466zM760 901l-244 -594h504z" />
    <glyph glyph-name="uni03A9" unicode="&#x3a9;" horiz-adv-x="1697" 
d="M82 0v307h295q-40 13 -85.5 54.5t-86.5 104t-68.5 151t-27.5 182.5q0 152 58 277.5t158 208.5t235 128t290 45q213 0 380 -77t264 -228t97 -354q0 -102 -28 -192.5t-71.5 -150t-87.5 -97.5t-83 -52h295v-307h-698v307q101 30 176.5 101t112 158t36.5 177q0 78 -25.5 150
t-73 130t-124 93t-170.5 35q-100 0 -177.5 -35t-123.5 -94t-69 -131.5t-23 -153.5q0 -55 21 -119.5t59.5 -127.5t102 -113t140.5 -70v-307h-698z" />
    <glyph glyph-name="uni03A9" unicode="&#x2126;" horiz-adv-x="1697" 
d="M82 0v307h295q-40 13 -85.5 54.5t-86.5 104t-68.5 151t-27.5 182.5q0 152 58 277.5t158 208.5t235 128t290 45q213 0 380 -77t264 -228t97 -354q0 -102 -28 -192.5t-71.5 -150t-87.5 -97.5t-83 -52h295v-307h-698v307q101 30 176.5 101t112 158t36.5 177q0 78 -25.5 150
t-73 130t-124 93t-170.5 35q-100 0 -177.5 -35t-123.5 -94t-69 -131.5t-23 -153.5q0 -55 21 -119.5t59.5 -127.5t102 -113t140.5 -70v-307h-698z" />
    <glyph glyph-name="pi" unicode="&#x3c0;" horiz-adv-x="1267" 
d="M76 635v287h1091v-287h-133v-254q0 -119 51 -119q6 0 12 0.5t12.5 3t10.5 3.5t11.5 5.5l10 6t12 7.5t11.5 7l62 -234q-104 -86 -271 -86q-229 0 -229 289v371h-197v-62q0 -143 -19 -247t-54.5 -171.5t-93.5 -107.5t-128.5 -56t-166.5 -16l-27 299q33 -3 60.5 5t54.5 33
t44 81t21 139l4 103h-149z" />
    <glyph glyph-name="afii10023" unicode="&#x401;" horiz-adv-x="1177" 
d="M184 0v1434h850v-308h-522v-252h461v-307h-461v-260h543v-307h-871zM205 1714q0 73 57.5 116.5t143.5 43.5q75 0 130.5 -44t55.5 -116q0 -80 -55 -126t-131 -46q-87 0 -144 45t-57 127zM678 1714q0 73 58 116.5t143 43.5q76 0 131 -44t55 -116q0 -81 -54.5 -126.5
t-131.5 -45.5q-86 0 -143.5 45.5t-57.5 126.5z" />
    <glyph glyph-name="afii10051" unicode="&#x402;" horiz-adv-x="1570" 
d="M1489 416q0 -215 -99.5 -328t-279.5 -113q-87 0 -163.5 31t-106.5 70l106 250q57 -43 119 -43q96 0 96 127q0 80 -43 114.5t-125 34.5q-127 0 -215 -53v-506h-327v1126h-431v308h1188v-308h-430v-321q106 61 277 61q434 0 434 -450z" />
    <glyph glyph-name="afii10052" unicode="&#x403;" horiz-adv-x="1044" 
d="M184 0v1434h820v-308h-492v-1126h-328zM1100 1651l-510 -160l-84 182l479 242z" />
    <glyph glyph-name="afii10053" unicode="&#x404;" horiz-adv-x="1372" 
d="M1001 885v-307h-573q28 -101 99 -169.5t158.5 -97t188.5 -28.5q100 0 188 33.5t150 84.5l119 -276q-68 -63 -201 -106.5t-282 -43.5q-353 0 -559.5 198.5t-206.5 543.5q0 219 94 388.5t258 261t371 91.5q170 0 302.5 -47.5t213.5 -118.5l-145 -245q-139 104 -312 104
q-164 0 -276 -68.5t-154 -197.5h567z" />
    <glyph glyph-name="afii10054" unicode="&#x405;" horiz-adv-x="1140" 
d="M711 393q0 43 -33 79t-85.5 64t-116.5 57.5t-128 68.5t-116.5 87.5t-85.5 124.5t-33 170q0 172 127 293t335 121q135 0 244 -42t178 -116l-176 -245q-55 51 -99.5 73.5t-117.5 22.5q-67 0 -105 -28.5t-38 -78.5q0 -42 25.5 -77t67.5 -59t96 -50.5t110 -51t110 -62.5
t96 -82.5t67.5 -112.5t25.5 -152q0 -185 -141 -303.5t-351 -118.5q-155 0 -295 63t-190 173l186 223q58 -74 142 -112.5t165 -38.5q64 0 100 29.5t36 80.5z" />
    <glyph glyph-name="afii10055" unicode="&#x406;" horiz-adv-x="737" 
d="M205 0v1434h327v-1434h-327z" />
    <glyph glyph-name="afii10056" unicode="&#x407;" horiz-adv-x="737" 
d="M20 1714q0 73 49 116.5t121 43.5q68 0 116 -44t48 -116q0 -81 -47.5 -126.5t-116.5 -45.5q-73 0 -121.5 45.5t-48.5 126.5zM385 1714q0 73 49.5 116.5t122.5 43.5q66 0 114 -44t48 -116q0 -81 -47.5 -126.5t-114.5 -45.5q-74 0 -123 45.5t-49 126.5zM205 0v1434h327
v-1434h-327z" />
    <glyph glyph-name="afii10057" unicode="&#x408;" horiz-adv-x="833" 
d="M649 1434v-1084q0 -183 -98 -279t-281 -96q-87 0 -163.5 31t-106.5 70l106 250q57 -43 119 -43q44 0 70.5 33t26.5 94v1024h327z" />
    <glyph glyph-name="afii10058" unicode="&#x409;" horiz-adv-x="2045" 
d="M989 0v1126h-315l-31 -270q-26 -226 -63.5 -384.5t-89 -259t-117.5 -152.5t-148.5 -64.5t-183.5 4.5l6 328q20 -1 39.5 -3t39.5 7t39 23t37 44.5t35 72t32.5 105.5t29.5 144t26 188t21 238l21 287h950v-449q65 8 125 8q258 0 390 -128.5t132 -354.5q0 -237 -155.5 -375.5
t-436.5 -138.5q-82 0 -216 2t-167 2zM1413 686q-31 0 -96 -10v-365q70 -8 94 -8q205 0 205 199q0 92 -54.5 138t-148.5 46z" />
    <glyph glyph-name="afii10059" unicode="&#x40a;" horiz-adv-x="2072" 
d="M184 0v1434h328v-504h502v504h327v-490q68 8 127 8q256 0 389.5 -126t133.5 -337q0 -221 -157 -357t-435 -136q-64 0 -175.5 2t-150.5 2h-59v623h-502v-623h-328zM1341 635v-324q74 -8 97 -8q100 0 152 46t52 132q0 78 -54.5 121t-147.5 43q-31 0 -99 -10z" />
    <glyph glyph-name="afii10060" unicode="&#x40b;" horiz-adv-x="1572" 
d="M20 1126v308h1188v-308h-430v-321q106 61 273 61q65 0 125.5 -13.5t118.5 -47t101 -84t69 -130.5t26 -181v-410h-328v311q0 76 -16 127.5t-46 76.5t-62.5 34.5t-75.5 9.5q-99 0 -185 -55v-504h-327v1126h-431z" />
    <glyph glyph-name="afii10061" unicode="&#x40c;" horiz-adv-x="1417" 
d="M184 0v1434h328v-625l469 625h393l-538 -662l581 -772h-416l-489 682v-682h-328zM1223 1651l-510 -160l-84 182l479 242z" />
    <glyph glyph-name="afii10062" unicode="&#x40e;" horiz-adv-x="1435" 
d="M1415 1434l-481 -1094q-76 -171 -176 -255.5t-244 -84.5q-60 0 -123 19t-94 44l115 279q30 -21 50 -28t50 -7q81 0 106 58l19 43l-617 1026h371l404 -701l290 701h330zM315 1802h308q0 -57 29 -79.5t98 -22.5q64 0 91 20t27 82h308q3 -148 -115 -237.5t-311 -89.5
q-205 0 -320 88.5t-115 238.5z" />
    <glyph glyph-name="afii10145" unicode="&#x40f;" horiz-adv-x="1505" 
d="M184 0v1434h328v-1127h481v1127h328v-1434h-416v-307h-307v307h-414z" />
    <glyph glyph-name="afii10017" unicode="&#x410;" horiz-adv-x="1484" 
d="M0 0l596 1434h293l596 -1434h-350l-119 301h-567l-119 -301h-330zM733 1014l-162 -406h322z" />
    <glyph glyph-name="afii10018" unicode="&#x411;" horiz-adv-x="1263" 
d="M184 0v1434h865v-308h-537v-227q58 12 164 12q208 0 336.5 -120.5t128.5 -321.5q0 -226 -145 -352.5t-412 -126.5q-107 0 -239 5t-161 5zM649 604q-63 0 -137 -12v-285q88 -10 123 -10q95 0 136.5 40.5t41.5 106.5q0 69 -40 114.5t-124 45.5z" />
    <glyph glyph-name="afii10019" unicode="&#x412;" horiz-adv-x="1263" 
d="M184 4v1426q240 12 434 12q125 0 219 -27.5t150.5 -77t84.5 -112.5t28 -140q0 -211 -164 -319v-4q87 -33 146 -116t59 -212q0 -146 -72.5 -247.5t-193 -148t-279.5 -46.5q-286 0 -412 12zM639 580h-127v-269q46 -12 111 -12q94 0 142 39.5t48 112.5q0 129 -174 129z
M614 1135q-19 0 -102 -9v-260h109q69 0 110 33.5t41 106.5q0 61 -46.5 95t-111.5 34z" />
    <glyph glyph-name="afii10020" unicode="&#x413;" horiz-adv-x="1044" 
d="M184 0v1434h820v-308h-492v-1126h-328z" />
    <glyph glyph-name="afii10021" unicode="&#x414;" horiz-adv-x="1564" 
d="M20 -246v553h154q24 32 54 99t63 170t58 254.5t32 316.5l12 287h936v-1127h195v-553h-307v246h-889v-246h-308zM688 885q-16 -176 -65 -351.5t-88 -226.5h466v819h-290z" />
    <glyph glyph-name="afii10022" unicode="&#x415;" horiz-adv-x="1177" 
d="M184 0v1434h850v-308h-522v-252h461v-307h-461v-260h543v-307h-871z" />
    <glyph glyph-name="afii10024" unicode="&#x416;" horiz-adv-x="1994" 
d="M520 748l-497 686h376l435 -627v627h327v-627l434 627h377l-497 -684l520 -750h-377l-457 686v-686h-327v686l-457 -686h-377z" />
    <glyph glyph-name="afii10025" unicode="&#x417;" horiz-adv-x="1212" 
d="M575 -25q-343 0 -514 258l179 224q68 -76 153 -125t168 -49q36 0 69 7.5t64 24t49.5 47t18.5 72.5q0 66 -55.5 106t-167.5 40h-131v307h122q76 0 126.5 33.5t50.5 97.5q0 65 -43 99t-115 34q-146 0 -254 -150l-189 222q72 104 202.5 169.5t283.5 65.5q198 0 320 -106
t122 -297q0 -82 -44 -163t-136 -142v-7q236 -74 236 -342q0 -96 -44.5 -177.5t-117 -135t-164.5 -83.5t-189 -30z" />
    <glyph glyph-name="afii10026" unicode="&#x418;" horiz-adv-x="1617" 
d="M471 0h-287v1434h328v-891l635 891h287v-1434h-328v891z" />
    <glyph glyph-name="afii10027" unicode="&#x419;" horiz-adv-x="1617" 
d="M471 0h-287v1434h328v-891l635 891h287v-1434h-328v891zM410 1802h307q0 -57 29 -79.5t98 -22.5q64 0 91.5 20t27.5 82h307q3 -148 -115 -237.5t-311 -89.5q-204 0 -319 88.5t-115 238.5z" />
    <glyph glyph-name="afii10028" unicode="&#x41a;" horiz-adv-x="1417" 
d="M184 0v1434h328v-625l469 625h393l-538 -662l581 -772h-416l-489 682v-682h-328z" />
    <glyph glyph-name="afii10029" unicode="&#x41b;" horiz-adv-x="1501" 
d="M989 0v1126h-315l-31 -270q-26 -226 -63.5 -384.5t-89 -259t-117.5 -152.5t-148.5 -64.5t-183.5 4.5l6 328q20 -1 39.5 -3t39.5 7t39 23t37 44.5t35 72t32.5 105.5t29.5 144t26 188t21 238l21 287h950v-1434h-328z" />
    <glyph glyph-name="afii10030" unicode="&#x41c;" horiz-adv-x="1867" 
d="M184 0v1434h330l442 -605l418 605h309v-1434h-327v913l-400 -559h-47l-397 553v-907h-328z" />
    <glyph glyph-name="afii10031" unicode="&#x41d;" horiz-adv-x="1546" 
d="M1034 0v578h-522v-578h-328v1434h328v-549h522v549h328v-1434h-328z" />
    <glyph glyph-name="afii10032" unicode="&#x41e;" horiz-adv-x="1687" 
d="M82 717q0 155 55.5 291t153.5 235.5t241.5 157t311.5 57.5q218 0 390.5 -89t272 -258.5t99.5 -393.5q0 -160 -58 -298.5t-159 -235.5t-242 -152.5t-303 -55.5q-163 0 -303 52t-241.5 147t-159.5 235t-58 308zM430 717q0 -183 120.5 -308.5t293.5 -125.5q132 0 227 58.5
t140.5 155.5t45.5 220q0 193 -118 313.5t-295 120.5q-181 0 -297.5 -120t-116.5 -314z" />
    <glyph glyph-name="afii10033" unicode="&#x41f;" horiz-adv-x="1525" 
d="M1014 0v1126h-502v-1126h-328v1434h1157v-1434h-327z" />
    <glyph glyph-name="afii10034" unicode="&#x420;" horiz-adv-x="1284" 
d="M512 0h-328v1434q36 0 208 2t231 2q127 0 227.5 -26t165.5 -69.5t107.5 -105.5t60.5 -129.5t18 -144.5q0 -96 -36.5 -183t-103 -153.5t-168 -106t-222.5 -39.5q-109 0 -160 6v-487zM655 1130q-7 0 -143 -4v-327q86 -11 150 -11q35 0 66.5 8.5t61 27.5t47 55t17.5 86
q0 90 -52 127.5t-147 37.5z" />
    <glyph glyph-name="afii10035" unicode="&#x421;" horiz-adv-x="1341" 
d="M1176 387l124 -246q-65 -73 -193.5 -119.5t-272.5 -46.5q-220 0 -391 92t-266 261t-95 389q0 124 30 235t91.5 204t150 160t210.5 104.5t267 37.5q138 0 255 -41.5t184 -107.5l-146 -246q-71 43 -136 65.5t-157 22.5q-173 0 -287 -114.5t-114 -319.5q0 -191 120.5 -312.5
t313.5 -121.5q173 0 312 104z" />
    <glyph glyph-name="afii10036" unicode="&#x422;" 
d="M20 1126v308h1188v-308h-430v-1126h-327v1126h-431z" />
    <glyph glyph-name="afii10037" unicode="&#x423;" horiz-adv-x="1435" 
d="M1415 1434l-481 -1094q-76 -171 -176 -255.5t-244 -84.5q-60 0 -123 19t-94 44l115 279q30 -21 50 -28t50 -7q81 0 106 58l19 43l-617 1026h371l404 -701l290 701h330z" />
    <glyph glyph-name="afii10038" unicode="&#x424;" horiz-adv-x="1728" 
d="M698 -16v192q-292 3 -464.5 150t-172.5 411q0 173 81 299.5t223.5 191.5t332.5 70v152h328v-152q188 -4 331.5 -70t226.5 -193t83 -298q0 -262 -175 -410t-466 -151v-192h-328zM1319 737q0 53 -15.5 97t-48.5 81t-91.5 58.5t-137.5 23.5v-520q157 3 225 66.5t68 193.5z
M410 737q0 -127 70 -192t218 -68v520q-148 -4 -218 -75.5t-70 -184.5z" />
    <glyph glyph-name="afii10039" unicode="&#x425;" horiz-adv-x="1380" 
d="M1362 1434l-459 -703l477 -731h-385l-307 481l-303 -481h-385l477 731l-454 703h385l290 -461l279 461h385z" />
    <glyph glyph-name="afii10040" unicode="&#x426;" horiz-adv-x="1566" 
d="M184 0v1434h328v-1127h492v1127h327v-1127h195v-553h-307v246h-1035z" />
    <glyph glyph-name="afii10041" unicode="&#x427;" horiz-adv-x="1402" 
d="M1219 1434v-1434h-328v549q-105 -84 -307 -84q-65 0 -125.5 13.5t-119 47.5t-101 84.5t-69 130.5t-26.5 181v512h328v-414q0 -76 16 -127.5t46 -76.5t63 -34.5t76 -9.5q112 0 219 76v586h328z" />
    <glyph glyph-name="afii10042" unicode="&#x428;" horiz-adv-x="2048" 
d="M184 0v1434h328v-1127h348v1127h328v-1127h348v1127h328v-1434h-1680z" />
    <glyph glyph-name="afii10043" unicode="&#x429;" horiz-adv-x="2099" 
d="M184 0v1434h328v-1127h348v1127h328v-1127h348v1127h328v-1127h194v-553h-307v246h-1567z" />
    <glyph glyph-name="afii10044" unicode="&#x42a;" horiz-adv-x="1386" 
d="M20 1126v308h615v-449q68 8 127 8q272 0 407.5 -128t135.5 -355q0 -235 -160 -374.5t-453 -139.5q-81 0 -216 2t-169 2v1126h-287zM733 686q-30 0 -98 -10v-365q74 -8 96 -8q225 0 225 199q0 96 -61.5 140t-161.5 44z" />
    <glyph glyph-name="afii10045" unicode="&#x42b;" horiz-adv-x="1812" 
d="M1300 0v1434h328v-1434h-328zM610 686q-30 0 -98 -10v-365q74 -8 96 -8q205 0 205 199q0 92 -54.5 138t-148.5 46zM512 1434v-449q68 8 127 8q258 0 390 -128.5t132 -354.5q0 -234 -156 -374t-436 -140q-81 0 -216 2t-169 2v1434h328z" />
    <glyph glyph-name="afii10046" unicode="&#x42c;" horiz-adv-x="1263" 
d="M610 686q-30 0 -98 -10v-365q74 -8 96 -8q226 0 226 199q0 96 -62 140t-162 44zM512 1434v-449q68 8 127 8q272 0 407.5 -128t135.5 -355q0 -235 -160 -374.5t-453 -139.5q-81 0 -216 2t-169 2v1434h328z" />
    <glyph glyph-name="afii10047" unicode="&#x42d;" horiz-adv-x="1372" 
d="M371 578v307h563q-47 129 -164.5 197.5t-282.5 68.5q-172 0 -311 -104l-125 245q81 71 213.5 118.5t302.5 47.5q207 0 371 -91.5t258 -261t94 -388.5q0 -345 -206.5 -543.5t-559.5 -198.5q-149 0 -282 43.5t-201 106.5l139 276q62 -51 150 -84.5t188 -33.5
q154 0 271.5 73t156.5 222h-575z" />
    <glyph glyph-name="afii10048" unicode="&#x42e;" horiz-adv-x="2220" 
d="M184 0v1434h328v-549h180q51 255 239.5 414t465.5 159q217 0 384.5 -89t262 -258t94.5 -394q0 -161 -55 -299t-152 -235.5t-235 -152.5t-299 -55q-177 0 -327.5 71.5t-252.5 209.5t-131 322h-174v-578h-328zM1024 717q0 -183 112.5 -308.5t270.5 -125.5q99 0 174 33.5
t120 93.5t67 137t22 170q0 196 -105 315t-278 119q-165 0 -274 -120t-109 -314z" />
    <glyph glyph-name="afii10049" unicode="&#x42f;" horiz-adv-x="1316" 
d="M805 0v461h-146l-272 -461h-367l336 532q-100 59 -160.5 157t-60.5 235q0 105 35 195.5t106 164t193 116t283 42.5q46 0 193 -4t188 -4v-1434h-328zM633 768h172v358q-45 9 -119 9q-85 0 -144 -51.5t-59 -137.5q0 -75 43 -120t107 -58z" />
    <glyph glyph-name="afii10065" unicode="&#x430;" horiz-adv-x="952" 
d="M211 633l-76 223q60 37 155.5 63.5t186.5 26.5q204 0 293.5 -98t89.5 -293v-555h-266v84q-33 -46 -98.5 -71t-143.5 -25q-128 0 -209.5 77.5t-81.5 213.5q0 150 93.5 227.5t238.5 77.5q56 0 105.5 -16t74.5 -36q4 80 -29.5 119t-97.5 39q-23 0 -44 -1.5t-41 -6
t-34.5 -7.5t-34.5 -10t-28 -10t-28.5 -11.5t-24.5 -10.5zM457 244q82 0 116 47v57q-45 31 -116 31q-39 0 -63.5 -18.5t-24.5 -51.5q0 -30 24.5 -47.5t63.5 -17.5z" />
    <glyph glyph-name="afii10066" unicode="&#x431;" horiz-adv-x="1114" 
d="M784 1458l160 -254q-45 -48 -100.5 -76.5t-102 -38.5t-110.5 -28.5t-113 -44.5q-139 -74 -160 -244h4q41 55 119.5 92t163.5 37q183 0 295.5 -121.5t112.5 -326.5q0 -130 -59 -238t-172.5 -174t-260.5 -66q-239 0 -374.5 159.5t-135.5 432.5q0 586 355 742
q72 32 153 50.5t132 36.5t93 62zM379 502q2 -98 47 -169t127 -71q83 0 127.5 50.5t44.5 125.5t-41 125.5t-119 50.5q-65 0 -113 -29t-73 -83z" />
    <glyph glyph-name="afii10067" unicode="&#x432;" horiz-adv-x="1046" 
d="M113 0v922q25 1 97 4t150.5 5.5t147.5 2.5q436 0 436 -246q0 -81 -49.5 -136t-112.5 -65v-4q85 -25 134 -79.5t49 -127.5q0 -288 -455 -288q-61 0 -210 6t-187 6zM518 369h-98v-127q103 -9 125 -9q42 0 68 19.5t26 46.5q0 33 -31.5 51.5t-89.5 18.5zM537 688
q-81 0 -117 -6v-129h102q40 0 68 17.5t28 52.5q0 28 -21.5 46.5t-59.5 18.5z" />
    <glyph glyph-name="afii10068" unicode="&#x433;" horiz-adv-x="788" 
d="M113 0v922h655v-287h-348v-635h-307z" />
    <glyph glyph-name="afii10069" unicode="&#x434;" horiz-adv-x="1175" 
d="M20 -205v492h119q50 65 80.5 185t38.5 251l12 199h731v-635h154v-492h-287v205h-561v-205h-287zM553 598q-24 -206 -92 -311h233v348h-137z" />
    <glyph glyph-name="afii10070" unicode="&#x435;" horiz-adv-x="1048" 
d="M836 297l84 -217q-140 -105 -359 -105q-227 0 -363.5 133.5t-136.5 352.5q0 134 61 244t176 175.5t263 65.5q119 0 220.5 -53t164 -153.5t62.5 -227.5q0 -89 -19 -154h-610q21 -63 78.5 -95t136.5 -32q138 0 242 66zM551 690q-74 0 -116.5 -31.5t-65.5 -95.5h331
q0 51 -40 89t-109 38z" />
    <glyph glyph-name="afii10072" unicode="&#x436;" horiz-adv-x="1513" 
d="M289 473l-271 449h371l211 -410v410h307v-412l219 412h363l-270 -449l294 -473h-362l-244 436v-436h-307v434l-238 -434h-362z" />
    <glyph glyph-name="afii10073" unicode="&#x437;" horiz-adv-x="980" 
d="M463 -25q-134 0 -252 47.5t-170 118.5l156 189q37 -43 107.5 -76t133.5 -33q67 0 100 18t33 48q0 31 -24.5 50t-73.5 19h-176v205h166q44 0 66 21.5t22 52.5q0 65 -119 65q-110 0 -235 -106l-127 184q139 168 422 168q189 0 288 -72t99 -198q0 -66 -45.5 -120t-122.5 -79
v-4q93 -21 140.5 -78t47.5 -139q0 -129 -118.5 -205t-317.5 -76z" />
    <glyph glyph-name="afii10074" unicode="&#x438;" horiz-adv-x="1167" 
d="M420 0h-307v922h307v-482l328 482h307v-922h-307v481z" />
    <glyph glyph-name="afii10075" unicode="&#x439;" horiz-adv-x="1167" 
d="M420 0h-307v922h307v-482l328 482h307v-922h-307v481zM240 1372h266q0 -119 86 -119q78 0 78 119h266q0 -151 -89 -249.5t-255 -98.5q-180 0 -266 96t-86 252z" />
    <glyph glyph-name="afii10076" unicode="&#x43a;" horiz-adv-x="1091" 
d="M113 0v922h307v-426l250 426h385l-299 -439l344 -483h-398l-282 430v-430h-307z" />
    <glyph glyph-name="afii10077" unicode="&#x43b;" horiz-adv-x="1116" 
d="M696 0v614h-161l-5 -41q-18 -183 -48 -296t-86 -182t-132 -94.5t-196 -25.5l-27 299q35 -4 66 12.5t58 56.5t45 114.5t23 177.5l15 287h756v-922h-308z" />
    <glyph glyph-name="afii10078" unicode="&#x43c;" horiz-adv-x="1302" 
d="M113 0v922h276l277 -314l256 314h268v-922h-307v453l-224 -256h-6l-233 256v-453h-307z" />
    <glyph glyph-name="afii10079" unicode="&#x43d;" horiz-adv-x="1136" 
d="M717 0v317h-297v-317h-307v922h307v-318h297v318h307v-922h-307z" />
    <glyph glyph-name="afii10080" unicode="&#x43e;" horiz-adv-x="1146" 
d="M61 461q0 211 140 348t372 137t372 -137t140 -348t-140 -348.5t-372 -137.5t-372 137.5t-140 348.5zM389 461q0 -87 52.5 -143t131.5 -56q80 0 132.5 54t52.5 145q0 88 -53.5 143t-131.5 55q-77 0 -130.5 -54t-53.5 -144z" />
    <glyph glyph-name="afii10081" unicode="&#x43f;" horiz-adv-x="1126" 
d="M707 0v635h-287v-635h-307v922h901v-922h-307z" />
    <glyph glyph-name="afii10082" unicode="&#x440;" horiz-adv-x="1148" 
d="M113 -410v1332h307v-70q41 41 108.5 67.5t147.5 26.5q184 0 297.5 -132.5t113.5 -338.5q0 -140 -60.5 -253.5t-174.5 -180t-260 -66.5q-103 0 -172 29v-414h-307zM580 659q-88 0 -160 -81v-281q34 -20 64 -27.5t79 -7.5q95 0 146 58.5t51 148.5q0 83 -47.5 136.5
t-132.5 53.5z" />
    <glyph glyph-name="afii10083" unicode="&#x441;" horiz-adv-x="993" 
d="M801 365l143 -226q-58 -79 -157 -121.5t-220 -42.5q-230 0 -368 133.5t-138 352.5q0 134 60.5 244t173 175.5t254.5 65.5q252 0 377 -131l-142 -242q-86 86 -196 86q-79 0 -139 -53t-60 -145q0 -89 62.5 -144t140.5 -55q113 0 209 103z" />
    <glyph glyph-name="afii10084" unicode="&#x442;" horiz-adv-x="921" 
d="M41 614v308h840v-308h-267v-614h-307v614h-266z" />
    <glyph glyph-name="afii10085" unicode="&#x443;" horiz-adv-x="1056" 
d="M1057 922l-359 -922q-67 -165 -123.5 -254t-110.5 -122.5t-128 -33.5q-118 0 -219 86l98 232q49 -33 88 -33q58 0 88 76l21 49l-412 922h371l157 -422q15 -39 35 -127q8 77 23 129l121 420h350z" />
    <glyph glyph-name="afii10086" unicode="&#x444;" horiz-adv-x="1433" 
d="M563 -410v385h-2q-159 0 -274 65t-170.5 173.5t-55.5 247.5q0 95 32.5 181.5t93 154.5t157 108.5t215.5 40.5h4v488h307v-488h7q120 0 215.5 -37.5t156 -104t92 -154t31.5 -189.5q0 -105 -29.5 -192t-88.5 -153.5t-155 -103.5t-222 -37h-7v-385h-307zM389 461
q0 -92 42.5 -145t131.5 -54v397h-6q-168 0 -168 -198zM877 659h-7v-397q174 0 174 199q0 85 -40.5 141.5t-126.5 56.5z" />
    <glyph glyph-name="afii10087" unicode="&#x445;" horiz-adv-x="1099" 
d="M1059 922l-287 -439l307 -483h-374l-160 291l-170 -291h-355l306 467l-285 455h375l141 -263l148 263h354z" />
    <glyph glyph-name="afii10088" unicode="&#x446;" horiz-adv-x="1167" 
d="M113 0v922h307v-635h266v635h307v-635h154v-492h-287v205h-747z" />
    <glyph glyph-name="afii10089" unicode="&#x447;" horiz-adv-x="1024" 
d="M911 922v-922h-307v279q-86 -39 -205 -39q-181 0 -259.5 94.5t-78.5 275.5v312h328v-271q0 -61 26 -93t72 -32q73 0 117 21v375h307z" />
    <glyph glyph-name="afii10090" unicode="&#x448;" horiz-adv-x="1515" 
d="M113 0v922h307v-635h184v635h307v-635h185v635h307v-922h-1290z" />
    <glyph glyph-name="afii10091" unicode="&#x449;" horiz-adv-x="1576" 
d="M113 0v922h307v-635h184v635h307v-635h185v635h307v-635h153v-492h-286v205h-1157z" />
    <glyph glyph-name="afii10092" unicode="&#x44a;" horiz-adv-x="1130" 
d="M41 635v287h522v-215h107q116 0 201 -28t131 -77t67 -105t21 -122q0 -72 -24.5 -136t-74.5 -119t-138.5 -87.5t-205.5 -32.5h-391v635h-215zM643 461h-80v-195h78q60 0 90.5 25.5t30.5 70.5q0 99 -119 99z" />
    <glyph glyph-name="afii10093" unicode="&#x44b;" horiz-adv-x="1443" 
d="M113 0v922h307v-215h96q116 0 201 -28t131 -77t67 -105t21 -122q0 -57 -14.5 -109t-48 -101.5t-83.5 -85.5t-126 -57.5t-170 -21.5h-381zM1024 0v922h307v-922h-307zM489 461h-69v-195h67q60 0 90.5 25.5t30.5 70.5q0 99 -119 99z" />
    <glyph glyph-name="afii10094" unicode="&#x44c;" horiz-adv-x="987" 
d="M113 0v922h307v-215h106q116 0 201 -28t131 -77t67 -105t21 -122q0 -57 -14.5 -109t-48 -101.5t-83.5 -85.5t-126 -57.5t-170 -21.5h-391zM500 461h-80v-195h78q60 0 90 25t30 71q0 99 -118 99z" />
    <glyph glyph-name="afii10095" unicode="&#x44d;" horiz-adv-x="1015" 
d="M264 362v205h363q-25 58 -76.5 85.5t-116.5 27.5q-69 0 -123 -20t-123 -62l-125 213q65 66 167.5 100.5t197.5 34.5q245 0 385.5 -130.5t140.5 -354.5q0 -136 -56.5 -244.5t-173.5 -175t-278 -66.5q-254 0 -395 148l144 201q36 -32 97.5 -57t135.5 -25q167 0 205 120
h-369z" />
    <glyph glyph-name="afii10096" unicode="&#x44e;" horiz-adv-x="1607" 
d="M113 0v922h327v-297h125q45 146 168.5 233.5t300.5 87.5q230 0 371 -137.5t141 -347.5q0 -209 -143 -347.5t-369 -138.5q-184 0 -309 93t-166 249h-119v-317h-327zM891 461q0 -87 42.5 -132.5t110.5 -45.5q69 0 111.5 46t42.5 132q0 85 -40.5 131.5t-113.5 46.5
q-68 0 -110.5 -47t-42.5 -131z" />
    <glyph glyph-name="afii10097" unicode="&#x44f;" horiz-adv-x="1030" 
d="M600 922h318v-922h-308v236h-73l-146 -236h-350l219 303q-62 33 -108 100t-46 172q0 73 28.5 134t86 109.5t154.5 76t225 27.5zM434 551q0 -37 35 -63.5t86 -26.5h55v194h-59q-52 0 -84.5 -32t-32.5 -72z" />
    <glyph glyph-name="afii10071" unicode="&#x451;" horiz-adv-x="1048" 
d="M836 297l84 -217q-140 -105 -359 -105q-227 0 -363.5 133.5t-136.5 352.5q0 134 61 244t176 175.5t263 65.5q119 0 220.5 -53t164 -153.5t62.5 -227.5q0 -89 -19 -154h-610q21 -63 78.5 -95t136.5 -32q138 0 242 66zM551 690q-74 0 -116.5 -31.5t-65.5 -95.5h331
q0 51 -40 89t-109 38zM199 1206q0 76 48.5 121t119.5 45q62 0 108.5 -45.5t46.5 -120.5q0 -82 -46 -129t-109 -47q-72 0 -120 46.5t-48 129.5zM594 1206q0 75 49 120.5t119 45.5q63 0 109.5 -45.5t46.5 -120.5q0 -82 -46 -129t-110 -47q-71 0 -119.5 46.5t-48.5 129.5z" />
    <glyph glyph-name="afii10099" unicode="&#x452;" horiz-adv-x="1196" 
d="M20 829v246h216v359h307v-359h278v-246h-278v-176q90 80 227 80q82 0 149 -22t118 -66.5t79.5 -120t28.5 -176.5q0 -140 -27.5 -263.5t-76 -216t-102.5 -160.5t-118 -118h-323q158 148 248 323.5t90 358.5q0 85 -39.5 129.5t-106.5 44.5q-88 0 -147 -59v-387h-307v829
h-216z" />
    <glyph glyph-name="afii10100" unicode="&#x453;" horiz-adv-x="788" 
d="M113 0v922h655v-287h-348v-635h-307zM770 1329l-268 -299l-183 129l211 352z" />
    <glyph glyph-name="afii10101" unicode="&#x454;" horiz-adv-x="1015" 
d="M752 567v-205h-367q46 -120 223 -120q122 0 213 82l144 -201q-70 -73 -155 -110.5t-220 -37.5q-126 0 -228 38t-167 104.5t-99.5 154.5t-34.5 189q0 224 141 354.5t386 130.5q95 0 197 -34.5t167 -100.5l-125 -213q-105 82 -245 82q-65 0 -117.5 -27.5t-77.5 -85.5h365z
" />
    <glyph glyph-name="afii10102" unicode="&#x455;" horiz-adv-x="940" 
d="M571 272q0 19 -27 33.5t-70 25t-94.5 23t-103.5 34.5t-95 53t-70 83.5t-27 120.5q0 143 102.5 222t257.5 79q243 0 387 -125l-114 -217q-48 34 -117 60t-137 26q-32 0 -52 -12.5t-20 -28.5q0 -19 27 -32.5t70 -24t95 -22.5t104 -33.5t95 -51t70 -80.5t27 -118
q0 -141 -107.5 -226.5t-290.5 -85.5q-135 0 -259 56.5t-161 113.5l146 201q44 -42 135.5 -78.5t159.5 -36.5q69 0 69 41z" />
    <glyph glyph-name="afii10103" unicode="&#x456;" horiz-adv-x="585" 
d="M139 0v922h307v-922h-307zM113 1239q0 79 54 126.5t132 47.5q70 0 122 -48t52 -126q0 -86 -51.5 -136t-122.5 -50q-79 0 -132.5 49.5t-53.5 136.5z" />
    <glyph glyph-name="afii10104" unicode="&#x457;" horiz-adv-x="690" 
d="M31 1200q0 66 43 106t108 40q55 0 97.5 -40.5t42.5 -105.5q0 -70 -42 -111.5t-98 -41.5q-65 0 -108 41t-43 112zM369 1200q0 66 43.5 106t107.5 40q56 0 97.5 -40.5t41.5 -105.5q0 -70 -41 -111.5t-98 -41.5q-64 0 -107.5 41t-43.5 112zM190 0v922h308v-922h-308z" />
    <glyph glyph-name="afii10105" unicode="&#x458;" horiz-adv-x="575" 
d="M463 922v-990q0 -358 -289 -358q-79 0 -147 20.5t-99 49.5l80 243q48 -26 90 -26q58 0 58 100v961h307zM131 1239q0 79 54 126.5t132 47.5q70 0 122.5 -48t52.5 -126q0 -86 -52 -136t-123 -50q-79 0 -132.5 49.5t-53.5 136.5z" />
    <glyph glyph-name="afii10106" unicode="&#x459;" horiz-adv-x="1521" 
d="M696 0v614h-161l-5 -41q-18 -183 -48 -296t-86 -182t-132 -94.5t-196 -25.5l-27 299q35 -4 66 12.5t58 56.5t45 114.5t23 177.5l15 287h756v-215h57q116 0 201 -28t131 -77t67 -105t21 -122q0 -72 -24.5 -136t-74.5 -119t-138.5 -87.5t-205.5 -32.5h-342zM1034 461h-30
v-195h28q60 0 90.5 25.5t30.5 70.5q0 99 -119 99z" />
    <glyph glyph-name="afii10107" unicode="&#x45a;" horiz-adv-x="1542" 
d="M717 0v317h-297v-317h-307v922h307v-318h297v318h307v-215h57q116 0 201 -28t131 -77t67 -105t21 -122q0 -57 -14.5 -109t-48 -101.5t-83.5 -85.5t-126 -57.5t-170 -21.5h-342zM1055 461h-31v-195h29q60 0 90.5 25.5t30.5 70.5q0 99 -119 99z" />
    <glyph glyph-name="afii10108" unicode="&#x45b;" horiz-adv-x="1196" 
d="M20 829v246h216v359h307v-359h278v-246h-278v-176q90 80 227 80q83 0 149 -22t118 -68t80 -124t28 -183v-336h-307v297q0 68 -41.5 108.5t-106.5 40.5q-88 0 -147 -59v-387h-307v829h-216z" />
    <glyph glyph-name="afii10109" unicode="&#x45c;" horiz-adv-x="1091" 
d="M113 0v922h307v-426l250 426h385l-299 -439l344 -483h-398l-282 430v-430h-307zM823 1329l-268 -299l-182 129l211 352z" />
    <glyph glyph-name="afii10110" unicode="&#x45e;" horiz-adv-x="1056" 
d="M1057 922l-359 -922q-67 -165 -123.5 -254t-110.5 -122.5t-128 -33.5q-118 0 -219 86l98 232q49 -33 88 -33q58 0 88 76l21 49l-412 922h371l157 -422q15 -39 35 -127q8 77 23 129l121 420h350zM195 1372h266q0 -119 86 -119q78 0 78 119h266q0 -151 -89 -249.5
t-255 -98.5q-180 0 -266 96t-86 252z" />
    <glyph glyph-name="afii10193" unicode="&#x45f;" horiz-adv-x="1105" 
d="M113 0v922h307v-635h266v635h307v-922h-297v-225h-286v225h-297z" />
    <glyph glyph-name="afii10146" unicode="&#x462;" horiz-adv-x="1345" 
d="M594 1434v-123h280v-307h-280v-101q68 8 127 8q277 0 410 -110t133 -332q0 -230 -157 -351.5t-456 -121.5q-81 0 -216 2t-169 2v1004h-225v307h225v123h328zM692 604q-30 0 -98 -10v-283q74 -8 96 -8q46 0 75.5 2.5t60.5 11.5t48.5 25.5t29 46.5t11.5 72q0 40 -12.5 67.5
t-30 42t-50.5 22.5t-59.5 9.5t-70.5 1.5z" />
    <glyph glyph-name="afii10194" unicode="&#x463;" horiz-adv-x="1079" 
d="M20 676v246h216v512h307v-512h254v-246h-254v-51h75q420 0 420 -291q0 -71 -24 -129.5t-74.5 -105.5t-138 -73t-205.5 -26h-360v676h-216zM592 399h-49v-153h47q64 0 92.5 16.5t28.5 59.5t-27.5 60t-91.5 17z" />
    <glyph glyph-name="afii10147" unicode="&#x472;" horiz-adv-x="1687" 
d="M82 717q0 155 55.5 291t153.5 235.5t241.5 157t311.5 57.5q218 0 390.5 -89t272 -258.5t99.5 -393.5q0 -160 -58 -298.5t-159 -235.5t-242 -152.5t-303 -55.5q-163 0 -303 52t-241.5 147t-159.5 235t-58 308zM655 655q-95 0 -200 -88q43 -127 149 -205.5t240 -78.5
q155 0 255.5 77.5t137.5 208.5q-106 -49 -186 -49q-55 0 -111.5 21t-96.5 46.5t-91.5 46.5t-96.5 21zM1073 807q37 0 82.5 17.5t79.5 43.5q-41 130 -147.5 206.5t-243.5 76.5t-240 -71t-147 -195q111 57 198 57q56 0 113.5 -21t98.5 -46.5t97 -46.5t109 -21z" />
    <glyph glyph-name="afii10195" unicode="&#x473;" horiz-adv-x="1187" 
d="M61 461q0 212 143.5 348.5t389.5 136.5t389 -136t143 -349t-143 -349.5t-389 -136.5t-389.5 136.5t-143.5 349.5zM723 520q54 0 82 33q-24 76 -83 111.5t-128 35.5q-67 0 -124.5 -32t-84.5 -103q56 39 102 39q49 0 95 -21t81.5 -42t59.5 -21zM475 399q-49 0 -90 -41
q24 -70 82.5 -103.5t126.5 -33.5q70 0 127.5 32.5t81.5 104.5q-54 -43 -119 -43q-37 0 -69.5 13t-51 29t-42.5 29t-46 13z" />
    <glyph glyph-name="afii10148" unicode="&#x474;" horiz-adv-x="1359" 
d="M1184 1014l-379 -1014h-252l-573 1434h350l360 -947l230 676q20 58 40 100.5t48 82t63.5 62.5t82.5 37t109 11t138 -22l-43 -287q-26 9 -46.5 10.5t-37 -5.5t-28 -17t-23 -31t-19.5 -39.5t-20 -50.5z" />
    <glyph glyph-name="afii10196" unicode="&#x475;" horiz-adv-x="1021" 
d="M842 508l-213 -508h-232l-417 922h364l119 -291q41 -95 61 -213q15 86 60 215l22 61q22 61 43 100t56.5 76.5t81 53.5t115.5 16t161 -22l-43 -287q-31 10 -55 10t-40 -7t-31.5 -28t-25.5 -40.5t-26 -57.5z" />
    <glyph glyph-name="afii10050" unicode="&#x490;" horiz-adv-x="1044" 
d="M184 0v1434h512v225h308v-533h-492v-1126h-328z" />
    <glyph glyph-name="afii10098" unicode="&#x491;" horiz-adv-x="788" 
d="M113 0v922h368v184h287v-471h-348v-635h-307z" />
    <glyph glyph-name="uni1E9E" unicode="&#x1e9e;" horiz-adv-x="1441" 
d="M991 399q0 33 -22 67.5t-51.5 61t-86.5 61.5t-97.5 57t-114.5 60q-8 4 -12.5 6.5t-11.5 6l-13 6.5l266 350q-17 33 -62.5 54.5t-97.5 21.5q-83 0 -129.5 -50t-46.5 -155v-946h-328v920q0 142 37.5 247t107 168t162.5 93t211 30q145 0 294.5 -80t246.5 -227l-272 -326
q71 -31 134.5 -76.5t117 -105t85 -136.5t31.5 -159q0 -84 -35.5 -156t-91.5 -118.5t-123.5 -72.5t-134.5 -26q-228 0 -379 136l140 258q55 -46 90 -66t76 -20q51 0 80.5 30.5t29.5 85.5z" />
    <glyph glyph-name="uni2010" unicode="&#x2010;" horiz-adv-x="745" 
d="M102 420v287h541v-287h-541z" />
    <glyph glyph-name="uni2011" unicode="&#x2011;" horiz-adv-x="745" 
d="M102 420v287h541v-287h-541z" />
    <glyph glyph-name="figuredash" unicode="&#x2012;" horiz-adv-x="1236" 
d="M164 592v266h909v-266h-909z" />
    <glyph glyph-name="endash" unicode="&#x2013;" horiz-adv-x="1236" 
d="M164 420v266h909v-266h-909z" />
    <glyph glyph-name="emdash" unicode="&#x2014;" horiz-adv-x="1687" 
d="M164 420v266h1360v-266h-1360z" />
    <glyph glyph-name="afii00208" unicode="&#x2015;" horiz-adv-x="1687" 
d="M164 420v266h1360v-266h-1360z" />
    <glyph glyph-name="quoteleft" unicode="&#x2018;" horiz-adv-x="497" 
d="M397 1124l-258 -149q-37 38 -57.5 98t-20.5 117q0 77 23 145t60.5 116.5t73.5 80.5t75 55l143 -129q-42 -39 -65 -92.5t-23 -108.5q0 -84 49 -133z" />
    <glyph glyph-name="quoteright" unicode="&#x2019;" horiz-adv-x="497" 
d="M100 1427l258 150q37 -38 57.5 -98t20.5 -117q0 -77 -22.5 -145t-60 -116.5t-73.5 -80.5t-75 -55l-144 129q89 83 89 200q0 83 -50 133z" />
    <glyph glyph-name="quotesinglbase" unicode="&#x201a;" horiz-adv-x="497" 
d="M100 66l258 149q37 -38 57.5 -98t20.5 -117q0 -77 -22.5 -145t-60 -116.5t-73.5 -80.5t-75 -55l-144 129q89 83 89 200q0 84 -50 134z" />
    <glyph glyph-name="quotedblleft" unicode="&#x201c;" horiz-adv-x="866" 
d="M766 1124l-258 -149q-37 38 -57.5 98t-20.5 117q0 77 23 145t60.5 116.5t73.5 80.5t75 55l143 -129q-42 -39 -65 -92.5t-23 -108.5q0 -84 49 -133zM397 1124l-258 -149q-37 38 -57.5 98t-20.5 117q0 77 23 145t60.5 116.5t73.5 80.5t75 55l143 -129q-42 -39 -65 -92.5
t-23 -108.5q0 -84 49 -133z" />
    <glyph glyph-name="quotedblright" unicode="&#x201d;" horiz-adv-x="866" 
d="M469 1427l258 150q37 -38 57.5 -98t20.5 -117q0 -77 -23 -145t-60.5 -116.5t-73.5 -80.5t-75 -55l-143 129q88 82 88 200q0 84 -49 133zM100 1427l258 150q37 -38 57.5 -98t20.5 -117q0 -77 -22.5 -145t-60 -116.5t-73.5 -80.5t-75 -55l-144 129q89 83 89 200
q0 83 -50 133z" />
    <glyph glyph-name="quotedblbase" unicode="&#x201e;" horiz-adv-x="866" 
d="M469 66l258 149q37 -38 57.5 -98t20.5 -117q0 -77 -23 -145t-60.5 -116.5t-73.5 -80.5t-75 -55l-143 129q88 82 88 200q0 85 -49 134zM100 66l258 149q37 -38 57.5 -98t20.5 -117q0 -77 -22.5 -145t-60 -116.5t-73.5 -80.5t-75 -55l-144 129q89 83 89 200q0 84 -50 134z
" />
    <glyph glyph-name="dagger" unicode="&#x2020;" horiz-adv-x="1073" 
d="M82 778v266h311v390h287v-390h311v-266h-311v-983h-287v983h-311z" />
    <glyph glyph-name="daggerdbl" unicode="&#x2021;" horiz-adv-x="1073" 
d="M82 778v266h311v390h287v-390h311v-266h-311v-266h311v-266h-311v-451h-287v451h-311v266h311v266h-311z" />
    <glyph glyph-name="bullet" unicode="&#x2022;" horiz-adv-x="696" 
d="M41 545q0 126 90 216.5t215 90.5q126 0 217.5 -90.5t91.5 -216.5q0 -125 -91.5 -216t-217.5 -91q-124 0 -214.5 91t-90.5 216z" />
    <glyph glyph-name="ellipsis" unicode="&#x2026;" horiz-adv-x="1794" 
d="M1311 197q0 74 58 133t151 59q82 0 137 -59.5t55 -132.5q0 -85 -54 -147t-138 -62q-95 0 -152 61.5t-57 147.5zM696 197q0 74 58 133t151 59q83 0 138 -59.5t55 -132.5q0 -85 -54.5 -147t-138.5 -62q-95 0 -152 61.5t-57 147.5zM82 197q0 74 58 133t151 59
q82 0 137 -59.5t55 -132.5q0 -85 -54 -147t-138 -62q-95 0 -152 61.5t-57 147.5z" />
    <glyph glyph-name="perthousand" unicode="&#x2030;" horiz-adv-x="2848" 
d="M1923 360q0 173 120.5 277t311.5 104t311.5 -104t120.5 -277t-120.5 -279t-311.5 -106t-311.5 106t-120.5 279zM2210 360q0 -65 40.5 -102t104.5 -37q67 0 106.5 37t39.5 102q0 62 -40.5 99t-105.5 37t-105 -37t-40 -99zM369 96l1017 1362l173 -129l-1014 -1354zM61 1077
q0 173 121 277t312 104t311.5 -104t120.5 -277t-120.5 -279t-311.5 -106t-312 106t-121 279zM348 1077q0 -65 40.5 -102t105.5 -37q67 0 106 37t39 102q0 62 -40 98.5t-105 36.5t-105.5 -36.5t-40.5 -98.5zM1010 360q0 173 120.5 277t311.5 104t311.5 -104t120.5 -277
t-120.5 -279t-311.5 -106t-311.5 106t-120.5 279zM1296 360q0 -65 40.5 -102t105.5 -37q67 0 106 37t39 102q0 62 -40 99t-105 37t-105.5 -37t-40.5 -99z" />
    <glyph glyph-name="guilsinglleft" unicode="&#x2039;" horiz-adv-x="741" 
d="M471 27l-410 481v8l420 481l199 -178l-264 -307l264 -311z" />
    <glyph glyph-name="guilsinglright" unicode="&#x203a;" horiz-adv-x="741" 
d="M680 508l-410 -481l-209 174l265 311l-265 307l199 178l420 -481v-8z" />
    <glyph glyph-name="fraction" unicode="&#x2044;" horiz-adv-x="452" 
d="M-369 96l1018 1362l172 -129l-1014 -1354z" />
    <glyph glyph-name="uni2070" unicode="&#x2070;" horiz-adv-x="843" 
d="M61 1075q0 160 94.5 263.5t266.5 103.5q87 0 156.5 -30t113.5 -81t67 -116.5t23 -139.5q0 -158 -93.5 -262t-264.5 -104q-174 0 -268.5 100.5t-94.5 265.5zM348 1075q0 -45 6.5 -75t18.5 -43.5t23.5 -18t27.5 -4.5q39 0 55.5 28t16.5 113t-17.5 113.5t-56.5 28.5
q-38 0 -56 -30t-18 -112z" />
    <glyph glyph-name="uni2074" unicode="&#x2074;" horiz-adv-x="804" 
d="M412 717v125h-392v178l289 414h252l-274 -387h125v131h245v-131h107v-205h-107v-125h-245z" />
    <glyph glyph-name="uni2075" unicode="&#x2075;" horiz-adv-x="731" 
d="M104 991l39 443h498v-205h-313l-6 -55q32 16 96 16q116 0 184 -58.5t68 -162.5q0 -128 -90 -197.5t-242 -69.5q-238 0 -318 117l134 144q60 -56 137 -56q55 0 74.5 11t19.5 38q0 50 -123 50q-111 0 -158 -15z" />
    <glyph glyph-name="uni2076" unicode="&#x2076;" horiz-adv-x="839" 
d="M51 997q0 89 42 170.5t115 143.5t180 99t230 38l52 -180q-226 -18 -332 -140q80 41 178 41q122 0 197 -59t75 -158q0 -113 -99 -181.5t-255 -68.5q-184 0 -283.5 79.5t-99.5 215.5zM338 958q3 -21 29.5 -36t68.5 -15q66 0 66 39t-68 39q-47 0 -96 -27z" />
    <glyph glyph-name="uni2077" unicode="&#x2077;" horiz-adv-x="708" 
d="M20 1208v226h668v-162l-303 -555h-291l287 491h-361z" />
    <glyph glyph-name="uni2078" unicode="&#x2078;" horiz-adv-x="880" 
d="M438 1178h8q66 0 66 32q0 33 -74 33q-69 0 -69 -35q0 -30 69 -30zM446 993h-8q-90 0 -90 -43q0 -21 19 -32t73 -11q92 0 92 43t-86 43zM440 702q-167 0 -262.5 54t-95.5 147q0 129 117 180v4q-47 25 -72 63t-25 107q0 85 93.5 138t244.5 53q149 0 243.5 -53t94.5 -138
q0 -123 -114 -170v-2q61 -16 98 -56.5t37 -104.5q0 -107 -94.5 -164.5t-264.5 -57.5z" />
    <glyph glyph-name="uni2079" unicode="&#x2079;" horiz-adv-x="839" 
d="M788 1118q0 -193 -155.5 -303.5t-411.5 -112.5l-41 187q138 11 225.5 45t96.5 88q-67 -61 -178 -61q-119 0 -196 66t-77 159q0 121 99 191.5t256 70.5q187 0 284.5 -85t97.5 -245zM502 1171q-9 72 -99 72q-65 0 -65 -39q0 -20 18.5 -39.5t49.5 -19.5q49 0 96 26z" />
    <glyph glyph-name="uni207A" unicode="&#x207a;" horiz-adv-x="737" 
d="M82 983v205h182v174h205v-174h186v-205h-186v-176h-205v176h-182z" />
    <glyph glyph-name="uni207B" unicode="&#x207b;" horiz-adv-x="737" 
d="M82 983v205h573v-205h-573z" />
    <glyph glyph-name="uni207C" unicode="&#x207c;" horiz-adv-x="737" 
d="M82 819v205h573v-205h-573zM82 1147v205h573v-205h-573z" />
    <glyph glyph-name="uni207D" unicode="&#x207d;" horiz-adv-x="526" 
d="M506 784l-156 -155q-80 38 -138 91.5t-90 113t-46.5 118t-14.5 119.5q0 79 28 153.5t95 151t168 135.5l140 -151q-85 -57 -124.5 -120t-39.5 -169q0 -54 15.5 -100t44 -81t55 -58t63.5 -48z" />
    <glyph glyph-name="uni207E" unicode="&#x207e;" horiz-adv-x="526" 
d="M20 1356l156 155q80 -38 138 -91.5t90 -113t46.5 -118t14.5 -119.5q0 -79 -28 -153.5t-95 -151t-168 -135.5l-139 151q85 57 124.5 120t39.5 169q0 54 -15.5 100t-44.5 81t-55.5 58t-63.5 48z" />
    <glyph glyph-name="uni2080" unicode="&#x2080;" horiz-adv-x="843" 
d="M61 358q0 160 94.5 263.5t266.5 103.5q87 0 156.5 -30t113.5 -81t67 -116.5t23 -139.5q0 -158 -93.5 -262t-264.5 -104q-174 0 -268.5 100.5t-94.5 265.5zM348 358q0 -45 6.5 -75t18.5 -43.5t23.5 -18t27.5 -4.5q39 0 55.5 28t16.5 113t-17.5 113.5t-56.5 28.5
q-38 0 -56 -30t-18 -112z" />
    <glyph glyph-name="uni2081" unicode="&#x2081;" horiz-adv-x="583" 
d="M20 549l248 164h193v-713h-266v410l-78 -41z" />
    <glyph glyph-name="uni2082" unicode="&#x2082;" horiz-adv-x="770" 
d="M51 0v193q198 111 251 147q101 69 101 113q0 47 -53 47q-31 0 -51.5 -28.5t-26.5 -59.5l-219 80q19 108 102.5 170.5t225.5 62.5q147 0 227 -62.5t80 -170.5q0 -34 -11.5 -65t-28 -54t-44 -45t-50 -35.5t-56.5 -28.5t-53.5 -22t-49.5 -17h324v-225h-668z" />
    <glyph glyph-name="uni2083" unicode="&#x2083;" horiz-adv-x="761" 
d="M371 -14q-117 0 -211.5 41.5t-139.5 117.5l152 144q20 -32 62.5 -60t89.5 -28q90 0 90 37q0 30 -92 30h-56v185h51q74 0 74 36q0 10 -15.5 18.5t-43.5 8.5q-86 0 -164 -74l-125 146q105 143 344 143q127 0 209 -50.5t82 -133.5q0 -68 -44 -110t-120 -56v-2
q90 -4 138 -50.5t48 -115.5q0 -103 -97 -165t-232 -62z" />
    <glyph glyph-name="uni2084" unicode="&#x2084;" horiz-adv-x="804" 
d="M412 0v125h-392v178l289 414h252l-274 -387h125v131h245v-131h107v-205h-107v-125h-245z" />
    <glyph glyph-name="uni2085" unicode="&#x2085;" horiz-adv-x="731" 
d="M104 274l39 443h498v-205h-313l-6 -55q32 16 96 16q116 0 184 -58.5t68 -162.5q0 -128 -89.5 -197t-242.5 -69q-239 0 -318 116l134 144q60 -56 137 -56q55 0 74.5 11.5t19.5 38.5q0 49 -123 49q-111 0 -158 -15z" />
    <glyph glyph-name="uni2086" unicode="&#x2086;" horiz-adv-x="839" 
d="M51 281q0 89 42 170.5t115 143t180 98.5t230 38l52 -180q-227 -18 -332 -139q80 41 178 41q122 0 197 -59t75 -158q0 -113 -99 -181.5t-255 -68.5q-184 0 -283.5 79.5t-99.5 215.5zM338 242q3 -22 29.5 -37t68.5 -15q66 0 66 39t-68 39q-49 0 -96 -26z" />
    <glyph glyph-name="uni2087" unicode="&#x2087;" horiz-adv-x="708" 
d="M20 492v225h668v-162l-303 -555h-291l287 492h-361z" />
    <glyph glyph-name="uni2088" unicode="&#x2088;" horiz-adv-x="880" 
d="M438 461h8q66 0 66 33q0 32 -74 32q-69 0 -69 -34q0 -31 69 -31zM446 276h-8q-90 0 -90 -43q0 -21 19 -32t73 -11q92 0 92 43t-86 43zM440 -14q-167 0 -262.5 53.5t-95.5 146.5q0 130 117 181v4q-47 25 -72 63t-25 107q0 85 93.5 137.5t244.5 52.5q150 0 244 -52.5
t94 -137.5q0 -123 -114 -170v-2q61 -16 98 -57t37 -105q0 -106 -94.5 -163.5t-264.5 -57.5z" />
    <glyph glyph-name="uni2089" unicode="&#x2089;" horiz-adv-x="839" 
d="M788 401q0 -193 -155 -303t-412 -112l-41 186q138 11 225.5 45t96.5 88q-67 -61 -178 -61q-119 0 -196 66t-77 159q0 121 99 191.5t256 70.5q187 0 284.5 -85t97.5 -245zM502 455q-9 71 -99 71q-65 0 -65 -39q0 -20 18.5 -39.5t49.5 -19.5q47 0 96 27z" />
    <glyph glyph-name="uni208A" unicode="&#x208a;" horiz-adv-x="737" 
d="M82 266v205h182v174h205v-174h186v-205h-186v-176h-205v176h-182z" />
    <glyph glyph-name="uni208B" unicode="&#x208b;" horiz-adv-x="737" 
d="M82 266v205h573v-205h-573z" />
    <glyph glyph-name="uni208C" unicode="&#x208c;" horiz-adv-x="737" 
d="M82 102v205h573v-205h-573zM82 430v205h573v-205h-573z" />
    <glyph glyph-name="uni208D" unicode="&#x208d;" horiz-adv-x="526" 
d="M506 68l-156 -156q-80 38 -138 91.5t-90 113t-46.5 118t-14.5 119.5q0 79 28 154t95 151.5t168 135.5l140 -152q-85 -57 -124.5 -120t-39.5 -169q0 -54 15.5 -100t44 -80.5t55 -57.5t63.5 -48z" />
    <glyph glyph-name="uni208E" unicode="&#x208e;" horiz-adv-x="526" 
d="M20 639l156 156q80 -38 138 -91.5t90 -113.5t46.5 -118.5t14.5 -119.5q0 -79 -28 -153.5t-95 -151t-168 -135.5l-139 151q85 57 124.5 120t39.5 169q0 54 -15.5 100t-44.5 81t-55.5 58t-63.5 48z" />
    <glyph glyph-name="Euro" unicode="&#x20ac;" 
d="M35 788l94 246h152q78 195 247.5 309.5t413.5 114.5q73 0 146.5 -16t119.5 -41l-116 -281q-60 31 -154 31q-164 0 -266 -117h397l-92 -246h-402q-4 -46 -4 -71q0 -35 2 -51h365l-82 -246h-182q54 -65 132.5 -101t168.5 -36q105 0 158 24l51 -297q-122 -35 -236 -35
q-237 0 -416.5 119t-257.5 326h-235l92 246h94q-2 16 -2 51q0 46 2 71h-190z" />
    <glyph glyph-name="uni20B4" unicode="&#x20b4;" 
d="M129 799v245h571q0 56 -22.5 81.5t-79.5 25.5q-108 0 -201 -76l-155 232q65 76 164 113.5t212 37.5q174 0 282 -92.5t108 -237.5q0 -15 -4.5 -46t-8.5 -38h105v-245h-252q-15 -17 -38.5 -44.5t-39 -44.5t-33.5 -34h363v-246h-580q-8 -24 -8 -45q0 -43 37 -72.5t108 -29.5
q123 0 238 94l160 -209q-73 -92 -186 -142.5t-255 -50.5q-74 0 -146 24t-131 68t-95.5 112.5t-36.5 150.5q0 50 16 100h-92v246h266q12 13 33 37t40.5 45t43.5 41h-383z" />
    <glyph glyph-name="uni20B6" unicode="&#x20b6;" 
d="M14 588v246h185v600q36 0 207.5 2t230.5 2q580 0 580 -434q0 -193 -141.5 -304.5t-389.5 -111.5h-160v-123h316v-246h-316v-219h-327v219h-185v246h185v123h-185zM670 1130q-8 0 -144 -4v-292h150q192 0 192 141q0 89 -50.5 122t-147.5 33z" />
    <glyph glyph-name="uni20B6" unicode="&#x20cf;" 
d="M14 588v246h185v600q36 0 207.5 2t230.5 2q580 0 580 -434q0 -193 -141.5 -304.5t-389.5 -111.5h-160v-123h316v-246h-316v-219h-327v219h-185v246h185v123h-185zM670 1130q-8 0 -144 -4v-292h150q192 0 192 141q0 89 -50.5 122t-147.5 33z" />
    <glyph glyph-name="uni20B6" unicode="&#x20ce;" 
d="M14 588v246h185v600q36 0 207.5 2t230.5 2q580 0 580 -434q0 -193 -141.5 -304.5t-389.5 -111.5h-160v-123h316v-246h-316v-219h-327v219h-185v246h185v123h-185zM670 1130q-8 0 -144 -4v-292h150q192 0 192 141q0 89 -50.5 122t-147.5 33z" />
    <glyph glyph-name="uni20B6" unicode="&#x20cd;" 
d="M14 588v246h185v600q36 0 207.5 2t230.5 2q580 0 580 -434q0 -193 -141.5 -304.5t-389.5 -111.5h-160v-123h316v-246h-316v-219h-327v219h-185v246h185v123h-185zM670 1130q-8 0 -144 -4v-292h150q192 0 192 141q0 89 -50.5 122t-147.5 33z" />
    <glyph glyph-name="uni20B6" unicode="&#x20cc;" 
d="M14 588v246h185v600q36 0 207.5 2t230.5 2q580 0 580 -434q0 -193 -141.5 -304.5t-389.5 -111.5h-160v-123h316v-246h-316v-219h-327v219h-185v246h185v123h-185zM670 1130q-8 0 -144 -4v-292h150q192 0 192 141q0 89 -50.5 122t-147.5 33z" />
    <glyph glyph-name="uni20B6" unicode="&#x20cb;" 
d="M14 588v246h185v600q36 0 207.5 2t230.5 2q580 0 580 -434q0 -193 -141.5 -304.5t-389.5 -111.5h-160v-123h316v-246h-316v-219h-327v219h-185v246h185v123h-185zM670 1130q-8 0 -144 -4v-292h150q192 0 192 141q0 89 -50.5 122t-147.5 33z" />
    <glyph glyph-name="uni20B6" unicode="&#x20ca;" 
d="M14 588v246h185v600q36 0 207.5 2t230.5 2q580 0 580 -434q0 -193 -141.5 -304.5t-389.5 -111.5h-160v-123h316v-246h-316v-219h-327v219h-185v246h185v123h-185zM670 1130q-8 0 -144 -4v-292h150q192 0 192 141q0 89 -50.5 122t-147.5 33z" />
    <glyph glyph-name="uni20B6" unicode="&#x20c9;" 
d="M14 588v246h185v600q36 0 207.5 2t230.5 2q580 0 580 -434q0 -193 -141.5 -304.5t-389.5 -111.5h-160v-123h316v-246h-316v-219h-327v219h-185v246h185v123h-185zM670 1130q-8 0 -144 -4v-292h150q192 0 192 141q0 89 -50.5 122t-147.5 33z" />
    <glyph glyph-name="uni20B6" unicode="&#x20c8;" 
d="M14 588v246h185v600q36 0 207.5 2t230.5 2q580 0 580 -434q0 -193 -141.5 -304.5t-389.5 -111.5h-160v-123h316v-246h-316v-219h-327v219h-185v246h185v123h-185zM670 1130q-8 0 -144 -4v-292h150q192 0 192 141q0 89 -50.5 122t-147.5 33z" />
    <glyph glyph-name="uni20B6" unicode="&#x20c7;" 
d="M14 588v246h185v600q36 0 207.5 2t230.5 2q580 0 580 -434q0 -193 -141.5 -304.5t-389.5 -111.5h-160v-123h316v-246h-316v-219h-327v219h-185v246h185v123h-185zM670 1130q-8 0 -144 -4v-292h150q192 0 192 141q0 89 -50.5 122t-147.5 33z" />
    <glyph glyph-name="uni20B6" unicode="&#x20c6;" 
d="M14 588v246h185v600q36 0 207.5 2t230.5 2q580 0 580 -434q0 -193 -141.5 -304.5t-389.5 -111.5h-160v-123h316v-246h-316v-219h-327v219h-185v246h185v123h-185zM670 1130q-8 0 -144 -4v-292h150q192 0 192 141q0 89 -50.5 122t-147.5 33z" />
    <glyph glyph-name="uni20B6" unicode="&#x20c5;" 
d="M14 588v246h185v600q36 0 207.5 2t230.5 2q580 0 580 -434q0 -193 -141.5 -304.5t-389.5 -111.5h-160v-123h316v-246h-316v-219h-327v219h-185v246h185v123h-185zM670 1130q-8 0 -144 -4v-292h150q192 0 192 141q0 89 -50.5 122t-147.5 33z" />
    <glyph glyph-name="uni20B6" unicode="&#x20c4;" 
d="M14 588v246h185v600q36 0 207.5 2t230.5 2q580 0 580 -434q0 -193 -141.5 -304.5t-389.5 -111.5h-160v-123h316v-246h-316v-219h-327v219h-185v246h185v123h-185zM670 1130q-8 0 -144 -4v-292h150q192 0 192 141q0 89 -50.5 122t-147.5 33z" />
    <glyph glyph-name="uni20B6" unicode="&#x20c3;" 
d="M14 588v246h185v600q36 0 207.5 2t230.5 2q580 0 580 -434q0 -193 -141.5 -304.5t-389.5 -111.5h-160v-123h316v-246h-316v-219h-327v219h-185v246h185v123h-185zM670 1130q-8 0 -144 -4v-292h150q192 0 192 141q0 89 -50.5 122t-147.5 33z" />
    <glyph glyph-name="uni20B6" unicode="&#x20c2;" 
d="M14 588v246h185v600q36 0 207.5 2t230.5 2q580 0 580 -434q0 -193 -141.5 -304.5t-389.5 -111.5h-160v-123h316v-246h-316v-219h-327v219h-185v246h185v123h-185zM670 1130q-8 0 -144 -4v-292h150q192 0 192 141q0 89 -50.5 122t-147.5 33z" />
    <glyph glyph-name="uni20B6" unicode="&#x20c1;" 
d="M14 588v246h185v600q36 0 207.5 2t230.5 2q580 0 580 -434q0 -193 -141.5 -304.5t-389.5 -111.5h-160v-123h316v-246h-316v-219h-327v219h-185v246h185v123h-185zM670 1130q-8 0 -144 -4v-292h150q192 0 192 141q0 89 -50.5 122t-147.5 33z" />
    <glyph glyph-name="uni20B6" unicode="&#x20c0;" 
d="M14 588v246h185v600q36 0 207.5 2t230.5 2q580 0 580 -434q0 -193 -141.5 -304.5t-389.5 -111.5h-160v-123h316v-246h-316v-219h-327v219h-185v246h185v123h-185zM670 1130q-8 0 -144 -4v-292h150q192 0 192 141q0 89 -50.5 122t-147.5 33z" />
    <glyph glyph-name="uni20B6" unicode="&#x20bf;" 
d="M14 588v246h185v600q36 0 207.5 2t230.5 2q580 0 580 -434q0 -193 -141.5 -304.5t-389.5 -111.5h-160v-123h316v-246h-316v-219h-327v219h-185v246h185v123h-185zM670 1130q-8 0 -144 -4v-292h150q192 0 192 141q0 89 -50.5 122t-147.5 33z" />
    <glyph glyph-name="uni20B6" unicode="&#x20be;" 
d="M14 588v246h185v600q36 0 207.5 2t230.5 2q580 0 580 -434q0 -193 -141.5 -304.5t-389.5 -111.5h-160v-123h316v-246h-316v-219h-327v219h-185v246h185v123h-185zM670 1130q-8 0 -144 -4v-292h150q192 0 192 141q0 89 -50.5 122t-147.5 33z" />
    <glyph glyph-name="uni20B6" unicode="&#x20bd;" 
d="M14 588v246h185v600q36 0 207.5 2t230.5 2q580 0 580 -434q0 -193 -141.5 -304.5t-389.5 -111.5h-160v-123h316v-246h-316v-219h-327v219h-185v246h185v123h-185zM670 1130q-8 0 -144 -4v-292h150q192 0 192 141q0 89 -50.5 122t-147.5 33z" />
    <glyph glyph-name="uni20B6" unicode="&#x20bc;" 
d="M14 588v246h185v600q36 0 207.5 2t230.5 2q580 0 580 -434q0 -193 -141.5 -304.5t-389.5 -111.5h-160v-123h316v-246h-316v-219h-327v219h-185v246h185v123h-185zM670 1130q-8 0 -144 -4v-292h150q192 0 192 141q0 89 -50.5 122t-147.5 33z" />
    <glyph glyph-name="uni20B6" unicode="&#x20bb;" 
d="M14 588v246h185v600q36 0 207.5 2t230.5 2q580 0 580 -434q0 -193 -141.5 -304.5t-389.5 -111.5h-160v-123h316v-246h-316v-219h-327v219h-185v246h185v123h-185zM670 1130q-8 0 -144 -4v-292h150q192 0 192 141q0 89 -50.5 122t-147.5 33z" />
    <glyph glyph-name="uni20B6" unicode="&#x20ba;" 
d="M14 588v246h185v600q36 0 207.5 2t230.5 2q580 0 580 -434q0 -193 -141.5 -304.5t-389.5 -111.5h-160v-123h316v-246h-316v-219h-327v219h-185v246h185v123h-185zM670 1130q-8 0 -144 -4v-292h150q192 0 192 141q0 89 -50.5 122t-147.5 33z" />
    <glyph glyph-name="uni20B6" unicode="&#x20b9;" 
d="M14 588v246h185v600q36 0 207.5 2t230.5 2q580 0 580 -434q0 -193 -141.5 -304.5t-389.5 -111.5h-160v-123h316v-246h-316v-219h-327v219h-185v246h185v123h-185zM670 1130q-8 0 -144 -4v-292h150q192 0 192 141q0 89 -50.5 122t-147.5 33z" />
    <glyph glyph-name="uni20B6" unicode="&#x20b7;" 
d="M14 588v246h185v600q36 0 207.5 2t230.5 2q580 0 580 -434q0 -193 -141.5 -304.5t-389.5 -111.5h-160v-123h316v-246h-316v-219h-327v219h-185v246h185v123h-185zM670 1130q-8 0 -144 -4v-292h150q192 0 192 141q0 89 -50.5 122t-147.5 33z" />
    <glyph glyph-name="afii61352" unicode="&#x2116;" horiz-adv-x="2461" 
d="M1393 0h-263l-638 860v-860h-308v1434h262l639 -865v865h308v-1434zM1475 967q0 173 120.5 277t311.5 104t311.5 -104t120.5 -277t-120.5 -279t-311.5 -106t-311.5 106t-120.5 279zM1761 967q0 -65 41 -102.5t105 -37.5q67 0 106 37.5t39 102.5q0 62 -40 98.5t-105 36.5
t-105.5 -36.5t-40.5 -98.5zM1556 217v287h701v-287h-701z" />
    <glyph glyph-name="trademark" unicode="&#x2122;" horiz-adv-x="1810" 
d="M772 788v646h258l217 -158l201 158h250v-646h-289v285l-168 -127h-4l-176 127v-285h-289zM41 1157v277h672v-277h-193v-369h-287v369h-192z" />
    <glyph glyph-name="arrowleft" unicode="&#x2190;" horiz-adv-x="1316" 
d="M662 1139l217 -217l-209 -209h565v-307h-565l209 -209l-217 -217l-580 579z" />
    <glyph glyph-name="arrowup" unicode="&#x2191;" horiz-adv-x="1323" 
d="M299 356l-217 217l580 580l579 -580l-217 -217l-209 209v-565h-307v565z" />
    <glyph glyph-name="arrowright" unicode="&#x2192;" horiz-adv-x="1316" 
d="M438 922l217 217l580 -580l-580 -579l-217 217l209 209h-565v307h565z" />
    <glyph glyph-name="arrowdown" unicode="&#x2193;" horiz-adv-x="1323" 
d="M82 539l217 217l209 -209v565h307v-565l209 209l217 -217l-579 -580z" />
    <glyph glyph-name="partialdiff" unicode="&#x2202;" horiz-adv-x="1230" 
d="M61 410q0 108 36.5 205t102.5 170.5t166 117t220 43.5q171 0 256 -82q0 87 -30.5 149t-90 98.5t-137 53.5t-181.5 19l46 274q344 0 532 -155.5t188 -456.5q0 -186 -38.5 -342t-115 -275.5t-199.5 -186.5t-281 -67q-218 0 -346 125.5t-128 309.5zM389 436q0 -73 48 -123.5
t132 -50.5q99 0 163 88.5t85 235.5q-90 73 -217 73q-93 0 -152 -64t-59 -159z" />
    <glyph glyph-name="product" unicode="&#x220f;" horiz-adv-x="1812" 
d="M1300 -410v1536h-788v-1536h-328v1844h1444v-1844h-328z" />
    <glyph glyph-name="summation" unicode="&#x2211;" horiz-adv-x="1331" 
d="M629 512l-547 692v230h1167v-308h-710l467 -614l-488 -614h731v-308h-1167v230z" />
    <glyph glyph-name="minus" unicode="&#x2212;" 
d="M129 604v266h971v-266h-971z" />
    <glyph glyph-name="uni2215" unicode="&#x2215;" horiz-adv-x="782" 
d="M-61 -338l669 1796l236 -88l-668 -1796z" />
    <glyph glyph-name="radical" unicode="&#x221a;" horiz-adv-x="1316" 
d="M20 614v308h402l276 -404l234 916h631v-308h-363l-295 -1126h-272l-422 614h-191z" />
    <glyph glyph-name="infinity" unicode="&#x221e;" horiz-adv-x="1568" 
d="M1141 313q-207 0 -359 170q-141 -170 -338 -170q-94 0 -176 46t-134 135.5t-52 203.5q0 159 102.5 274t266.5 115q105 0 183.5 -48.5t149.5 -133.5q64 85 147.5 133.5t207.5 48.5q156 0 252 -111t96 -286q0 -156 -97.5 -266.5t-248.5 -110.5zM479 580q87 0 160 100
q-46 70 -82.5 105.5t-77.5 35.5q-53 0 -81.5 -33.5t-28.5 -89.5t28.5 -87t81.5 -31zM1085 821q-43 0 -79 -31t-76 -90q45 -59 85 -89.5t87 -30.5q41 0 69.5 33.5t28.5 88.5q0 48 -30.5 83.5t-84.5 35.5z" />
    <glyph glyph-name="integral" unicode="&#x222b;" horiz-adv-x="655" 
d="M420 0q0 -106 -12.5 -179t-43.5 -131.5t-89.5 -87t-145.5 -28.5q-47 0 -102 10q-100 19 -144 60l80 243q48 -26 90 -26q11 0 20.5 2.5t15.5 8.5t10.5 12.5t7 17.5t4.5 19.5t2 23t0.5 23.5t0 26t-0.5 26v1051q0 188 89.5 287.5t246.5 99.5q55 0 108 -12q107 -22 160 -78
l-103 -233q-19 19 -49 28q-27 8 -61 8t-59 -30.5t-25 -87.5v-1053z" />
    <glyph glyph-name="approxequal" unicode="&#x2248;" 
d="M199 346l-131 197q67 82 153 133t168 51q56 0 123 -21t119.5 -46.5t118 -46.5t118.5 -21q45 0 94.5 28t79.5 64l119 -211q-66 -62 -144.5 -104.5t-150.5 -42.5q-55 0 -121 21t-117 46.5t-112 46.5t-106 21q-96 0 -211 -115zM199 756l-131 196q68 82 153.5 133.5
t167.5 51.5q56 0 123 -21.5t119.5 -46.5t118 -46.5t118.5 -21.5q45 0 94.5 28t79.5 65l119 -211q-66 -63 -144.5 -105.5t-150.5 -42.5q-55 0 -121 21t-117 46.5t-112 46.5t-106 21q-97 0 -211 -114z" />
    <glyph glyph-name="notequal" unicode="&#x2260;" 
d="M129 809v266h479l144 383l235 -88l-110 -295h223v-266h-324l-53 -143h377v-267h-477l-158 -424l-238 88l125 336h-223v267h324l55 143h-379z" />
    <glyph glyph-name="lessequal" unicode="&#x2264;" 
d="M82 471v277l1003 -551v-291zM1085 315l-1003 566v131l1003 561v-332l-581 -295l581 -299v-332z" />
    <glyph glyph-name="greaterequal" unicode="&#x2265;" 
d="M1147 748v-277l-1004 -565v291zM1147 881l-1004 -566v332l582 299l-582 295v332l1004 -561v-131z" />
    <glyph glyph-name="lozenge" unicode="&#x25ca;" horiz-adv-x="1019" 
d="M383 0l-342 510l344 545h252l342 -523l-344 -532h-252zM350 512l160 -236l160 256l-160 228z" />
    <glyph glyph-name="spade" unicode="&#x2660;" horiz-adv-x="1294" 
d="M647 1044q112 -70 230.5 -181.5t206 -239t87.5 -215.5q0 -87 -60.5 -150t-178.5 -63q-163 0 -268 147q28 -119 79 -203.5t140 -138.5h-471q150 107 215 336q-103 -141 -265 -141q-118 0 -178.5 63.5t-60.5 151.5q0 66 51.5 157t130 179t169.5 167.5t173 130.5z" />
    <glyph glyph-name="club" unicode="&#x2663;" horiz-adv-x="1253" 
d="M362 780q0 109 78 186.5t187 77.5t186.5 -77.5t77.5 -186.5q0 -15 -4 -39q102 -8 172.5 -83.5t70.5 -178.5q0 -109 -77.5 -186.5t-186.5 -77.5q-65 0 -121 29.5t-92 79.5q64 -236 209 -324h-471q130 92 205 319q-37 -46 -93 -75t-116 -29q-109 0 -186.5 77.5t-77.5 186.5
q0 103 70.5 178.5t171.5 83.5q-3 18 -3 39z" />
    <glyph glyph-name="heart" unicode="&#x2665;" horiz-adv-x="1329" 
d="M666 0q-86 65 -179 158.5t-175.5 197.5t-135.5 212.5t-53 189.5q0 51 14.5 97t43.5 84.5t78 61.5t112 23q182 0 295 -213q109 213 292 213q83 0 141 -40t82.5 -98t24.5 -126q0 -82 -53 -191t-135 -213t-174 -197.5t-178 -158.5z" />
    <glyph glyph-name="diamond" unicode="&#x2666;" horiz-adv-x="1193" 
d="M1071 510q-222 -222 -475 -549q-213 280 -473 549q221 231 473 551q256 -324 475 -551z" />
    <glyph glyph-name="uniF350" unicode="&#xf350;" horiz-adv-x="1294" 
d="M0 0l500 1075h295l499 -1075h-350l-67 154h-480l-67 -154h-330zM639 696l-104 -235h206z" />
    <glyph glyph-name="uniF351" unicode="&#xf351;" horiz-adv-x="1140" 
d="M147 0v1075h814v-307h-486v-72q35 9 160 9q188 0 297.5 -88.5t109.5 -254.5q0 -372 -477 -372q-100 0 -247.5 5t-170.5 5zM594 399q-86 0 -119 -6v-90q65 -6 125 -6q69 0 92 12t23 37q0 29 -25.5 41t-95.5 12z" />
    <glyph glyph-name="uniF352" unicode="&#xf352;" horiz-adv-x="1136" 
d="M147 4v1067q204 12 445 12q207 0 311.5 -75t104.5 -193q0 -79 -33 -144.5t-103 -101.5v-2q166 -41 166 -229q0 -167 -130.5 -256.5t-340.5 -89.5q-312 0 -420 12zM610 393h-135v-82q20 -12 121 -12q115 0 115 47t-101 47zM588 776q-59 0 -113 -8v-88h115q43 0 66.5 9.5
t23.5 37.5q0 49 -92 49z" />
    <glyph glyph-name="uniF353" unicode="&#xf353;" horiz-adv-x="931" 
d="M147 0v1075h744v-307h-416v-768h-328z" />
    <glyph glyph-name="uniF354" unicode="&#xf354;" horiz-adv-x="1341" 
d="M14 -174v481h131q48 54 102.5 209.5t63.5 343.5l11 215h825v-768h166v-481h-307v174h-684v-174h-308zM616 631q-18 -103 -49.5 -197.5t-60.5 -126.5h313v461h-180z" />
    <glyph glyph-name="uniF355" unicode="&#xf355;" horiz-adv-x="1040" 
d="M147 0v1075h777v-307h-449v-76h397v-307h-397v-78h467v-307h-795z" />
    <glyph glyph-name="uniF356" unicode="&#xf356;" horiz-adv-x="1746" 
d="M406 561l-388 514h398l295 -428v428h327v-428l295 428h396l-386 -508l404 -567h-395l-314 471v-471h-327v471l-314 -471h-397z" />
    <glyph glyph-name="uniF357" unicode="&#xf357;" horiz-adv-x="1099" 
d="M535 -25q-97 0 -182 20t-144 53.5t-98 67.5t-66 70l178 224q62 -58 136 -92.5t180 -34.5q135 0 135 47q0 61 -170 61h-162v307h156q129 0 129 39q0 47 -101 47q-175 0 -254 -106l-188 223q63 84 182 137.5t275 53.5q177 0 295 -83.5t118 -232.5q0 -156 -123 -215v-6
q170 -48 170 -258q0 -148 -127.5 -235t-338.5 -87z" />
    <glyph glyph-name="uniF358" unicode="&#xf358;" horiz-adv-x="1374" 
d="M434 0h-287v1075h328v-553l465 553h287v-1075h-328v553z" />
    <glyph glyph-name="uniF359" unicode="&#xf359;" horiz-adv-x="1374" 
d="M434 0h-287v1075h328v-553l465 553h287v-1075h-328v553zM319 1475h287q0 -44 21.5 -63t64.5 -19q78 0 78 82h287q0 -143 -96.5 -225.5t-268.5 -82.5q-187 0 -280 80t-93 228z" />
    <glyph glyph-name="uniF35A" unicode="&#xf35a;" horiz-adv-x="1263" 
d="M147 0v1075h328v-432l326 432h424l-414 -489l453 -586h-445l-344 475v-475h-328z" />
    <glyph glyph-name="uniF35B" unicode="&#xf35b;" horiz-adv-x="1280" 
d="M805 0v768h-209l-27 -203q-24 -182 -65.5 -300t-106.5 -184.5t-155 -83.5t-211 3l6 315q23 -3 44.5 -3.5t42 11.5t39 33.5t35.5 63.5t31.5 100t27.5 144t22 196l18 215h836v-1075h-328z" />
    <glyph glyph-name="uniF35C" unicode="&#xf35c;" horiz-adv-x="1601" 
d="M147 0v1075h330l344 -383l324 383h309v-1075h-328v575l-305 -337h-45l-301 331v-569h-328z" />
    <glyph glyph-name="uniF35D" unicode="&#xf35d;" horiz-adv-x="1349" 
d="M874 0v395h-399v-395h-328v1075h328v-373h399v373h328v-1075h-328z" />
    <glyph glyph-name="uniF35E" unicode="&#xf35e;" horiz-adv-x="1359" 
d="M63 535q0 116 44 218t122.5 177t195.5 118.5t255 43.5q179 0 317.5 -65t218.5 -192.5t80 -299.5q0 -163 -79.5 -291.5t-220 -198.5t-316.5 -70q-179 0 -317.5 65.5t-219 193.5t-80.5 301zM412 535q0 -107 77.5 -179.5t190.5 -72.5q137 0 202.5 69.5t65.5 182.5
q0 116 -75.5 182.5t-192.5 66.5q-121 0 -194.5 -66t-73.5 -183z" />
    <glyph glyph-name="uniF35F" unicode="&#xf35f;" horiz-adv-x="1349" 
d="M874 0v768h-399v-768h-328v1075h1055v-1075h-328z" />
    <glyph glyph-name="uniF360" unicode="&#xf360;" horiz-adv-x="1112" 
d="M475 0h-328v1075q30 0 185 2t209 2q138 0 238.5 -30.5t158 -87t84.5 -127t27 -158.5q0 -181 -125.5 -295.5t-329.5 -114.5q-82 0 -119 4v-270zM573 772q-24 0 -98 -4v-186q74 -9 109 -9q48 0 82 23.5t34 79.5q0 53 -31 74.5t-96 21.5z" />
    <glyph glyph-name="uniF361" unicode="&#xf361;" horiz-adv-x="1140" 
d="M967 348l125 -246q-53 -55 -165 -91t-237 -36q-286 0 -456.5 153.5t-170.5 406.5q0 89 22.5 169.5t72 152t122 123.5t177.5 82t233 30q117 0 217 -34t158 -83l-145 -246q-8 3 -35 14t-41.5 16t-40.5 12t-53.5 10t-59.5 3q-127 0 -202.5 -60.5t-75.5 -188.5
q0 -112 82.5 -182t226.5 -70q140 0 246 65z" />
    <glyph glyph-name="uniF362" unicode="&#xf362;" horiz-adv-x="1050" 
d="M18 768v307h1014v-307h-344v-768h-328v768h-342z" />
    <glyph glyph-name="uniF363" unicode="&#xf363;" horiz-adv-x="1202" 
d="M1194 1075l-403 -805q-133 -270 -385 -270q-101 0 -177 53l115 279q20 -11 28.5 -15t21.5 -7t30 -3q38 0 57 25l17 24l-484 719h412l240 -395l192 395h336z" />
    <glyph glyph-name="uniF364" unicode="&#xf364;" horiz-adv-x="1474" 
d="M571 -12v106q-241 5 -383.5 126t-142.5 333q0 210 144 330.5t382 128.5v75h328v-75q156 -4 273.5 -54.5t187.5 -154.5t70 -250q0 -212 -144.5 -333t-386.5 -126v-106h-328zM1081 553q0 20 -7.5 42.5t-25 49.5t-56.5 46t-93 22v-320q182 7 182 160zM393 553
q0 -64 42.5 -110t135.5 -50v320q-50 -3 -87.5 -21.5t-55.5 -44.5t-26.5 -49.5t-8.5 -44.5z" />
    <glyph glyph-name="uniF365" unicode="&#xf365;" horiz-adv-x="1181" 
d="M1178 1075l-375 -526l391 -549h-406l-200 299l-195 -299h-405l389 549l-371 526h406l186 -284l174 284h406z" />
    <glyph glyph-name="uniF366" unicode="&#xf366;" horiz-adv-x="1368" 
d="M147 0v1075h328v-768h371v768h328v-768h165v-481h-307v174h-885z" />
    <glyph glyph-name="uniF367" unicode="&#xf367;" horiz-adv-x="1236" 
d="M1090 1075v-1075h-328v371q-74 -49 -240 -49q-54 0 -106 9.5t-106 34t-94 62t-65.5 98.5t-25.5 138v411h328v-289q0 -90 36.5 -123.5t102.5 -33.5q58 0 95 8t75 33v405h328z" />
    <glyph glyph-name="uniF368" unicode="&#xf368;" horiz-adv-x="1744" 
d="M147 0v1075h328v-768h234v768h327v-768h234v768h327v-1075h-1450z" />
    <glyph glyph-name="uniF369" unicode="&#xf369;" horiz-adv-x="1792" 
d="M147 0v1075h328v-768h234v768h327v-768h234v768h327v-768h166v-481h-307v174h-1309z" />
    <glyph glyph-name="uniF36A" unicode="&#xf36a;" horiz-adv-x="1183" 
d="M20 768v307h553v-291q35 4 84 4q232 0 347.5 -102t115.5 -283t-138 -294t-392 -113q-74 0 -195 2t-149 2v768h-226zM629 481q-6 0 -56 -4v-170q27 -4 78 -4q121 0 121 92q0 49 -36.5 67.5t-106.5 18.5z" />
    <glyph glyph-name="uniF36B" unicode="&#xf36b;" horiz-adv-x="1568" 
d="M1094 0v1075h327v-1075h-327zM532 481q-32 0 -57 -2v-172q25 -4 57 -4q123 0 123 92q0 86 -123 86zM475 1075v-291q35 4 88 4q217 0 329 -102.5t112 -282.5t-134.5 -293.5t-375.5 -113.5q-74 0 -196.5 2t-150.5 2v1075h328z" />
    <glyph glyph-name="uniF36C" unicode="&#xf36c;" horiz-adv-x="1085" 
d="M530 481q-7 0 -24 -1t-31 -1v-172q50 -4 53 -4q70 0 108 19.5t38 72.5q0 49 -37 67.5t-107 18.5zM475 1075v-291q35 4 84 4q231 0 347 -102t116 -283t-139 -294t-394 -113q-74 0 -194 2t-148 2v1075h328z" />
    <glyph glyph-name="uniF36D" unicode="&#xf36d;" horiz-adv-x="1161" 
d="M307 395v307h412q-74 86 -250 86q-202 0 -315 -71l-125 246q74 55 188.5 94t265.5 39q173 0 313 -69.5t221 -198t81 -293.5q0 -265 -177 -410t-485 -145q-128 0 -244 34t-167 78l139 277q113 -82 315 -82q99 0 164 22.5t98 85.5h-434z" />
    <glyph glyph-name="uniF36E" unicode="&#xf36e;" horiz-adv-x="1810" 
d="M147 0v1075h328v-373h115q46 179 190 286.5t367 107.5q284 0 442 -146.5t158 -410.5q0 -253 -160 -406t-440 -153q-220 0 -371 109t-192 306h-109v-395h-328zM918 539q0 -110 64.5 -181t174.5 -71q125 0 183.5 69.5t58.5 182.5q0 119 -63.5 184t-178.5 65
q-109 0 -174 -66t-65 -183z" />
    <glyph glyph-name="uniF36F" unicode="&#xf36f;" horiz-adv-x="1196" 
d="M721 0v287h-146l-180 -287h-387l252 367q-154 103 -154 295q0 82 29 154.5t88.5 133.5t163 97t240.5 36q90 0 243.5 -4t178.5 -4v-1075h-328zM549 594h172v174q-20 8 -125 8q-65 0 -103 -23.5t-38 -68.5q0 -72 94 -90z" />
    <glyph glyph-name="uniF371" unicode="&#xf371;" horiz-adv-x="1040" 
d="M147 0v1075h777v-307h-449v-76h397v-307h-397v-78h467v-307h-795zM201 1305q0 70 48.5 111.5t119.5 41.5q59 0 105 -42t46 -111q0 -74 -45.5 -118t-105.5 -44q-72 0 -120 43.5t-48 118.5zM571 1305q0 69 48 111t116 42q63 0 109.5 -42t46.5 -111q0 -74 -46 -118t-110 -44
q-68 0 -116 43.5t-48 118.5z" />
    <glyph glyph-name="uniF372" unicode="&#xf372;" horiz-adv-x="1339" 
d="M1276 332q0 -172 -86 -262t-244 -90q-80 0 -149.5 26.5t-96.5 61.5l105 249q48 -30 96 -30q26 0 36.5 5.5t10.5 24.5q0 21 -28 33t-76 12q-75 0 -156 -34v-328h-328v768h-342v307h1014v-307h-344v-123q92 25 217 25q77 0 142 -18.5t117.5 -57.5t82 -106t29.5 -156z" />
    <glyph glyph-name="uniF373" unicode="&#xf373;" horiz-adv-x="931" 
d="M147 0v1075h744v-307h-416v-768h-328zM815 1374l-332 -225l-145 170l289 291z" />
    <glyph glyph-name="uniF374" unicode="&#xf374;" horiz-adv-x="1161" 
d="M856 694v-307h-424q69 -100 281 -100q190 0 307 82l117 -277q-51 -44 -168.5 -78t-247.5 -34q-306 0 -482 148t-176 411q0 167 81.5 295t221 195t314.5 67q273 0 453 -133l-146 -246q-54 34 -141 52.5t-156 18.5q-116 0 -179 -22t-91 -72h436z" />
    <glyph glyph-name="uniF375" unicode="&#xf375;" horiz-adv-x="1056" 
d="M645 328q0 17 -30.5 31.5t-80 28.5t-109 30.5t-118.5 44.5t-108.5 65t-80 97t-30.5 135q0 68 25 125.5t78 105t147.5 74.5t222.5 27q104 0 237 -49t195 -117l-147 -244q-61 42 -151 72t-146 30q-59 0 -86 -8.5t-27 -32.5q0 -13 24 -24.5t63 -20.5t89 -23.5t102.5 -31
t102.5 -46.5t89 -67t63 -94t24 -127q0 -149 -127.5 -241.5t-337.5 -92.5q-136 0 -280 56t-207 145l186 223q47 -44 150 -80t176 -36q92 0 92 45z" />
    <glyph glyph-name="uniF376" unicode="&#xf376;" horiz-adv-x="643" 
d="M158 0v1075h327v-1075h-327z" />
    <glyph glyph-name="uniF377" unicode="&#xf377;" horiz-adv-x="710" 
d="M41 1303q0 66 43.5 105.5t108.5 39.5q55 0 97 -40t42 -105q0 -70 -41.5 -112t-97.5 -42q-65 0 -108.5 41.5t-43.5 112.5zM379 1303q0 66 43.5 105.5t107.5 39.5q57 0 98.5 -40t41.5 -105q0 -70 -41.5 -112t-98.5 -42q-64 0 -107.5 41.5t-43.5 112.5zM193 0v1075h327
v-1075h-327z" />
    <glyph glyph-name="uniF378" unicode="&#xf378;" horiz-adv-x="731" 
d="M584 1075v-799q0 -147 -89.5 -221.5t-252.5 -74.5q-81 0 -152 27.5t-96 60.5l106 249q45 -30 95 -30q61 0 61 49v739h328z" />
    <glyph glyph-name="uniF379" unicode="&#xf379;" horiz-adv-x="1722" 
d="M805 0v768h-201l-31 -203q-37 -243 -103 -374.5t-170.5 -175t-268.5 -15.5l6 328q23 -3 44.5 -4.5t42 10t39 31.5t35.5 60.5t31.5 97.5t27.5 142t22 195l18 215h836v-291q33 4 86 4q217 0 328.5 -102.5t111.5 -282.5q0 -183 -134 -295t-376 -112q-74 0 -195.5 2t-148.5 2
zM1188 481q-9 0 -55 -4v-168q35 -6 55 -6q123 0 123 92q0 86 -123 86z" />
    <glyph glyph-name="uniF37A" unicode="&#xf37a;" horiz-adv-x="1777" 
d="M147 0v1075h328v-342h383v342h328v-327q35 4 86 4q215 0 328.5 -100t113.5 -265q0 -168 -135.5 -279.5t-374.5 -111.5q-74 0 -196 2t-150 2v426h-383v-426h-328zM1186 440v-131q38 -6 57 -6q58 0 90.5 20.5t32.5 53.5t-35 51t-88 18q-19 0 -57 -6z" />
    <glyph glyph-name="uniF37B" unicode="&#xf37b;" horiz-adv-x="1339" 
d="M18 768v307h1014v-307h-344v-152q91 33 207 33q55 0 105.5 -9.5t102 -33.5t89 -61.5t61 -98.5t23.5 -139v-307h-328v207q0 81 -33 108t-90 27q-85 0 -137 -23v-319h-328v768h-342z" />
    <glyph glyph-name="uniF37C" unicode="&#xf37c;" horiz-adv-x="1263" 
d="M147 0v1075h328v-432l326 432h424l-414 -489l453 -586h-445l-344 475v-475h-328zM897 1374l-332 -225l-145 170l289 291z" />
    <glyph glyph-name="uniF37E" unicode="&#xf37e;" horiz-adv-x="1202" 
d="M1194 1075l-403 -805q-133 -270 -385 -270q-101 0 -177 53l115 279q20 -11 28.5 -15t21.5 -7t30 -3q38 0 57 25l17 24l-484 719h412l240 -395l192 395h336zM236 1475h286q0 -44 21.5 -63t64.5 -19q78 0 78 82h287q0 -143 -96.5 -225.5t-268.5 -82.5q-187 0 -279.5 80
t-92.5 228z" />
    <glyph glyph-name="uniF37F" unicode="&#xf37f;" horiz-adv-x="1333" 
d="M147 0v1075h328v-768h383v768h328v-1075h-367v-225h-307v225h-365z" />
    <glyph glyph-name="uniF381" unicode="&#xf381;" horiz-adv-x="1105" 
d="M20 745v267h148v63h328v-63h235v-267h-235v-43q44 5 84 5q237 0 349.5 -85t112.5 -260q0 -176 -136 -271t-396 -95q-74 0 -194 2t-148 2v745h-148zM551 420q-7 0 -24 -1t-31 -1v-131q50 -4 53 -4q71 0 108 14.5t37 56.5q0 38 -36 52t-107 14z" />
    <glyph glyph-name="uniF389" unicode="&#xf389;" horiz-adv-x="1359" 
d="M63 535q0 116 44 218t122.5 177t195.5 118.5t255 43.5q179 0 317.5 -65t218.5 -192.5t80 -299.5q0 -163 -79.5 -291.5t-220 -198.5t-316.5 -70q-179 0 -317.5 65.5t-219 193.5t-80.5 301zM535 465q-64 0 -103 -31q30 -68 97 -109.5t151 -41.5q88 0 141 26q-45 3 -90 28.5
t-74 53.5t-62.5 51t-59.5 23zM864 596q36 0 72 20q-24 79 -93.5 123.5t-162.5 44.5q-79 0 -145 -32q45 0 86 -16t71 -39t58 -46t57 -39t57 -16z" />
    <glyph glyph-name="uniF38A" unicode="&#xf38a;" horiz-adv-x="1138" 
d="M987 696l-282 -692h-254l-478 1071h371l246 -626l131 387q24 70 50.5 117t61.5 80t81.5 46.5t105.5 12.5t139 -17v-266q-64 5 -103.5 -18.5t-68.5 -94.5z" />
    <glyph glyph-name="uniF393" unicode="&#xf393;" horiz-adv-x="952" 
d="M147 0v1075h457v154h307v-461h-436v-768h-328z" />
    <glyph glyph-name="uniF3CF" unicode="&#xf3cf;" horiz-adv-x="2111" 
d="M1192 0h-264l-473 545v-545h-308v1075h263l475 -547v547h307v-1075zM1241 727q0 139 107 222t278 83q172 0 279.5 -83t107.5 -222q0 -140 -107.5 -224.5t-279.5 -84.5q-170 0 -277.5 84.5t-107.5 224.5zM1528 727q0 -63 98 -63q100 0 100 63q0 59 -100 59q-98 0 -98 -59z
M1315 76v286h624v-286h-624z" />
    <glyph glyph-name="uniF3D0" unicode="&#xf3d0;" horiz-adv-x="983" 
d="M123 1475h287q0 -44 21.5 -63t64.5 -19q77 0 77 82h287q0 -143 -96 -225.5t-268 -82.5q-187 0 -280 80t-93 228z" />
    <glyph glyph-name="uniF400" unicode="&#xf400;" horiz-adv-x="0" 
d="M-252 1329l-268 -299l-182 129l210 352z" />
    <glyph glyph-name="uniF401" unicode="&#xf401;" horiz-adv-x="0" 
d="M-451 1651l-510 -160l-83 182l479 242z" />
    <glyph glyph-name="uniF406" unicode="&#xf406;" horiz-adv-x="1069" 
d="M123 1726l131 158q119 -123 293 -123q93 0 166.5 35.5t120.5 87.5l112 -160q-57 -96 -166.5 -162.5t-232.5 -66.5q-137 0 -252 69.5t-172 161.5z" />
    <glyph glyph-name="uniF407" unicode="&#xf407;" horiz-adv-x="868" 
d="M123 -322l98 152q26 -26 71 -51t81 -25q45 0 45 27q0 19 -11.5 27t-39.5 8h-13v184h154v-53q237 -17 237 -185q0 -87 -78 -139.5t-218 -52.5q-207 0 -326 108z" />
    <glyph glyph-name="uniF408" unicode="&#xf408;" horiz-adv-x="995" 
d="M123 1651l364 243h9l376 -239l-118 -174l-262 135l-263 -135z" />
    <glyph glyph-name="uniF409" unicode="&#xf409;" horiz-adv-x="636" 
d="M182 -102l305 59q27 -38 27 -98q0 -76 -49 -141t-116 -100.5t-136 -43.5l-90 131q49 22 66.5 50.5t17.5 68.5q0 42 -25 74z" />
    <glyph glyph-name="uniF40A" unicode="&#xf40a;" horiz-adv-x="620" 
d="M162 1464l258 150q37 -38 57.5 -98t20.5 -117q0 -62 -16 -119.5t-39.5 -99.5t-56 -78.5t-61.5 -59.5t-59 -41l-143 129q42 39 65 92.5t23 108.5q0 84 -49 133z" />
    <glyph glyph-name="uniF40B" unicode="&#xf40b;" horiz-adv-x="649" 
d="M123 1731q0 83 60 133.5t147 50.5q79 0 137.5 -50.5t58.5 -133.5q0 -91 -58 -144t-138 -53q-87 0 -147 52.5t-60 144.5z" />
    <glyph glyph-name="uniF40C" unicode="&#xf40c;" horiz-adv-x="890" 
d="M123 1657q0 121 88.5 181t228.5 60q146 0 237 -60t91 -181q0 -120 -92 -184t-236 -64q-138 0 -227.5 64.5t-89.5 183.5zM348 1657q0 -41 26.5 -62.5t69.5 -21.5q44 0 71.5 21.5t27.5 62.5q0 39 -27.5 58.5t-71.5 19.5t-70 -19.5t-26 -58.5z" />
    <glyph glyph-name="uniF40D" unicode="&#xf40d;" horiz-adv-x="1015" 
d="M217 1528l-94 192q46 57 116.5 93t139.5 36q63 0 142.5 -30.5t133.5 -30.5q103 0 160 61l78 -192q-84 -135 -258 -135q-49 0 -136 30.5t-147 30.5q-69 0 -135 -55z" />
    <glyph glyph-name="uniF40E" unicode="&#xf40e;" horiz-adv-x="788" 
d="M573 -143l93 -185q-27 -33 -97 -57.5t-149 -24.5q-129 0 -213 49.5t-84 145.5q0 68 47 121t123 82.5t163 44.5t177 14v-47q-85 0 -144 -35.5t-59 -75.5q0 -53 62 -53q35 0 81 21z" />
    <glyph glyph-name="uniF410" unicode="&#xf410;" horiz-adv-x="0" 
d="M-582 1491l-510 160l115 264l479 -242z" />
    <glyph glyph-name="uniF416" unicode="&#xf416;" horiz-adv-x="636" 
d="M182 -102l305 59q27 -38 27 -98q0 -76 -49 -141t-116 -100.5t-136 -43.5l-90 131q49 22 66.5 50.5t17.5 68.5q0 42 -25 74z" />
    <glyph glyph-name="uniF418" unicode="&#xf418;" horiz-adv-x="620" 
d="M162 1055l258 149q37 -38 57.5 -98t20.5 -117q0 -77 -23 -145t-60.5 -116.5t-73.5 -80.5t-75 -55l-143 129q42 39 65 92.5t23 108.5q0 84 -49 133z" />
    <glyph glyph-name="uniF447" unicode="&#xf447;" horiz-adv-x="1050" 
d="M233 -330l91 142q23 -23 62 -40.5t77 -17.5q45 0 45 27q0 19 -11.5 27t-39.5 8h-13v184h-84v768h-342v307h1014v-307h-344v-768h-90v-53q104 -9 160.5 -56t56.5 -129q0 -88 -79 -140t-230 -52q-72 0 -131.5 18.5t-85.5 36.5t-56 45z" />
    <glyph glyph-name="uniF44E" unicode="&#xf44e;" horiz-adv-x="1282" 
d="M78 698h784q-59 86 -252 86q-90 0 -140 -15.5t-114 -55.5l-125 245q39 29 69 47t81 41t117 34.5t145 11.5q261 0 418.5 -154.5t157.5 -407.5q0 -174 -78.5 -301.5t-212 -190.5t-305.5 -63q-141 0 -253.5 46t-188 137t-103.5 226.5t0 313.5zM618 283q119 0 176.5 24.5
t79.5 83.5h-456q0 -41 55.5 -74.5t144.5 -33.5z" />
    <glyph glyph-name="uniF639" unicode="&#xf639;" 
d="M119 717q0 226 53.5 388.5t165.5 253.5t276 91q245 0 370.5 -195t125.5 -538q0 -344 -124 -538.5t-368 -194.5q-245 0 -372 195t-127 538zM446 717q0 -447 172 -447q89 0 126.5 99t37.5 348q0 248 -39 347t-129 99q-88 0 -128 -102t-40 -344z" />
    <glyph glyph-name="uniF63A" unicode="&#xf63a;" 
d="M160 0v246q25 24 89.5 86.5t96 94t89 91.5t88.5 98t72 94.5t62 100t36.5 94t15.5 96.5q0 142 -131 142q-61 0 -96 -39.5t-62 -114.5l-256 117q35 158 151 251t299 93q199 0 310.5 -112.5t111.5 -274.5q0 -405 -479 -776h528v-287h-925z" />
    <glyph glyph-name="uniF63B" unicode="&#xf63b;" 
d="M604 -25q-170 0 -290.5 66.5t-182.5 171.5l170 227q138 -157 283 -157q89 0 134.5 39.5t45.5 99.5q0 158 -244 158h-90v307h82q87 0 142 36.5t55 106.5q0 51 -32 86t-99 35q-143 0 -248 -129l-168 221q134 215 444 215q191 0 310.5 -99.5t119.5 -266.5q0 -126 -52 -206
t-161 -130v-6q129 -26 199 -117t70 -223q0 -198 -138.5 -316.5t-349.5 -118.5z" />
    <glyph glyph-name="uniF63C" unicode="&#xf63c;" 
d="M692 0v307h-651v230l512 897h352l-469 -820h256v308h307v-308h168v-307h-168v-307h-307z" />
    <glyph glyph-name="uniF63D" unicode="&#xf63d;" 
d="M240 631l98 803h709v-308h-439l-28 -182h49q93 0 174.5 -32t142.5 -91t96 -148t35 -196q0 -157 -70 -272t-187 -172.5t-265 -57.5q-120 0 -241 52t-183 141l172 235q42 -51 115.5 -85.5t144.5 -34.5q83 0 135 50t52 130q0 91 -70 148t-195 57q-71 0 -142.5 -11.5
t-102.5 -25.5z" />
    <glyph glyph-name="uniF63E" unicode="&#xf63e;" 
d="M82 508q0 152 44.5 292.5t117.5 246.5t167 192t191.5 140t192.5 79l125 -231q-163 -56 -288 -162t-186 -250q45 42 104 60t148 18q103 0 193 -53.5t146.5 -154.5t56.5 -228q0 -93 -27.5 -172.5t-74.5 -135.5t-109.5 -96t-131.5 -59t-141 -19q-117 0 -216.5 42
t-167.5 114.5t-106 170t-38 206.5zM410 506q0 -103 53 -163t149 -60q76 0 115 44.5t39 106.5q0 76 -45.5 124t-128.5 48q-112 0 -182 -100z" />
    <glyph glyph-name="uniF63F" unicode="&#xf63f;" 
d="M164 1126v308h942v-209l-485 -1225h-336l454 1126h-575z" />
    <glyph glyph-name="uniF640" unicode="&#xf640;" 
d="M604 891h27q67 0 103 40t36 93q0 61 -40.5 94t-117.5 33q-75 0 -113 -36t-38 -91q0 -53 36.5 -93t106.5 -40zM631 584h-25q-74 0 -127 -40t-53 -112q0 -65 46.5 -107t141.5 -42q195 0 191 149q-1 74 -49 113t-125 39zM616 -25q-228 0 -373 108t-145 288q0 136 61.5 228
t157.5 134v6q-79 43 -131.5 129.5t-52.5 210.5q0 166 138.5 272.5t342.5 106.5t344 -106.5t140 -272.5q0 -106 -55 -199t-150 -139v-6q101 -27 170.5 -116.5t69.5 -221.5q0 -198 -143.5 -310t-373.5 -112z" />
    <glyph glyph-name="uniF641" unicode="&#xf641;" 
d="M1137 905q0 -164 -38.5 -306.5t-107 -250t-163 -187.5t-207 -126t-238.5 -60l-100 244q199 44 318 138t171 241q-83 -78 -223 -78q-116 0 -215 56.5t-159 159.5t-60 231q0 93 28.5 173.5t77 137.5t112 98.5t133.5 61.5t142 20q239 0 384 -151.5t145 -401.5zM809 907
q0 105 -54.5 174.5t-148.5 69.5q-76 0 -120 -50t-44 -112q0 -76 50.5 -129t134.5 -53q112 0 182 100z" />
    <glyph glyph-name="uniF643" unicode="&#xf643;" 
d="M61 512q0 105 37 200.5t105 171t175 120.5t236 45t236 -45t175 -120.5t105 -171t37 -200.5t-37 -200.5t-105 -171t-175 -120.5t-236 -45t-236 45t-175 120.5t-105 171t-37 200.5zM389 512q0 -100 61.5 -164.5t163.5 -64.5q110 0 168 63t58 166q0 108 -61 168.5t-165 60.5
q-102 0 -163.5 -61.5t-61.5 -167.5z" />
    <glyph glyph-name="uniF644" unicode="&#xf644;" 
d="M215 868l365 172h215v-1040h-328v653l-154 -63z" />
    <glyph glyph-name="uniF645" unicode="&#xf645;" 
d="M160 0v225q51 21 91.5 39t98 46.5t101 53.5t90.5 58t77.5 63.5t50 66t19.5 69.5q0 56 -26.5 89t-77.5 33q-64 0 -108 -31t-89 -96l-194 201q53 101 165 167.5t246 66.5q204 0 308 -101t104 -256q0 -90 -45.5 -173.5t-102.5 -134t-116 -79.5h333v-307h-925z" />
    <glyph glyph-name="uniF646" unicode="&#xf646;" 
d="M604 -434q-170 0 -290.5 66t-182.5 171l170 228q139 -158 283 -158q89 0 134.5 39.5t45.5 99.5q0 158 -244 158h-90v307h82q86 0 141.5 37t55.5 107q0 51 -32 85.5t-99 34.5q-143 0 -248 -129l-168 222q134 215 444 215q191 0 310.5 -100t119.5 -267q0 -126 -52 -206
t-161 -130v-6q129 -26 199 -117t70 -223t-65 -231.5t-175 -151t-248 -51.5z" />
    <glyph glyph-name="uniF647" unicode="&#xf647;" 
d="M692 -410v410h-651v229l459 795h352l-416 -717h256v307h307v-307h168v-307h-168v-410h-307z" />
    <glyph glyph-name="uniF648" unicode="&#xf648;" 
d="M240 221l98 803h709v-307h-439l-28 -182h49q93 0 174.5 -32t142.5 -91t96 -148t35 -196q0 -157 -70 -272t-187 -172.5t-265 -57.5q-120 0 -241 52t-183 140l172 236q42 -51 116 -86t144 -35q83 0 135 50t52 130q0 91 -70 148t-195 57q-71 0 -142.5 -11.5t-102.5 -25.5z
" />
    <glyph glyph-name="uniF649" unicode="&#xf649;" 
d="M82 508q0 152 44.5 292.5t117.5 246.5t167 192t191.5 140t192.5 79l125 -231q-163 -56 -288 -162t-186 -250q45 42 104 60t148 18q103 0 193 -53.5t146.5 -154.5t56.5 -228q0 -93 -27.5 -172.5t-74.5 -135.5t-109.5 -96t-131.5 -59t-141 -19q-117 0 -216.5 42
t-167.5 114.5t-106 170t-38 206.5zM410 506q0 -103 53 -163t149 -60q76 0 115 44.5t39 106.5q0 76 -45.5 124t-128.5 48q-112 0 -182 -100z" />
    <glyph glyph-name="uniF64A" unicode="&#xf64a;" 
d="M164 717v307h942v-209l-485 -1225h-336l454 1127h-575z" />
    <glyph glyph-name="uniF64B" unicode="&#xf64b;" 
d="M604 891h27q67 0 103 40t36 93q0 61 -40.5 94t-117.5 33q-75 0 -113 -36t-38 -91q0 -53 36.5 -93t106.5 -40zM631 584h-25q-74 0 -127 -40t-53 -112q0 -65 46.5 -107t141.5 -42q195 0 191 149q-1 74 -49 113t-125 39zM616 -25q-228 0 -373 108t-145 288q0 136 61.5 228
t157.5 134v6q-79 43 -131.5 129.5t-52.5 210.5q0 166 138.5 272.5t342.5 106.5t344 -106.5t140 -272.5q0 -106 -55 -199t-150 -139v-6q101 -27 170.5 -116.5t69.5 -221.5q0 -198 -143.5 -310t-373.5 -112z" />
    <glyph glyph-name="uniF64C" unicode="&#xf64c;" 
d="M1137 496q0 -164 -38.5 -306.5t-107 -250t-163 -187.5t-207 -126t-238.5 -60l-100 244q199 44 318 137.5t171 240.5q-82 -77 -223 -77q-116 0 -215 56t-159 159t-60 231q0 115 43.5 210.5t114.5 155.5t158 93t177 33q239 0 384 -151.5t145 -401.5zM809 498
q0 105 -54.5 174t-148.5 69q-76 0 -120 -49.5t-44 -111.5q0 -76 50.5 -129.5t134.5 -53.5q111 0 182 101z" />
    <glyph glyph-name="uniF66D" unicode="&#xf66d;" horiz-adv-x="1294" 
d="M0 0l500 1075h295l499 -1075h-350l-67 154h-480l-67 -154h-330zM639 696l-104 -235h206zM307 1346l135 153q27 -30 51 -49.5t68.5 -38t95.5 -18.5q70 0 130.5 30.5t95.5 71.5l104 -147q-26 -40 -51.5 -69t-67 -62.5t-98.5 -51.5t-125 -18q-66 0 -125.5 21t-100.5 54
t-68 63.5t-44 60.5z" />
    <glyph glyph-name="uniF66E" unicode="&#xf66e;" horiz-adv-x="1294" 
d="M0 0l500 1075h295l499 -1075h-350l-67 154h-480l-67 -154h-330zM639 696l-104 -235h206zM346 1167v246h602v-246h-602z" />
    <glyph glyph-name="uniF66F" unicode="&#xf66f;" horiz-adv-x="1294" 
d="M1186 -143l92 -185q-27 -33 -97 -57.5t-149 -24.5q-129 0 -213 49.5t-84 145.5q0 149 207 217l-65 152h-480l-67 -154h-330l500 1075h295l499 -1075h-67q-78 -4 -131.5 -39t-53.5 -72q0 -53 62 -53q36 0 82 21zM639 696l-104 -235h206z" />
    <glyph glyph-name="uniF671" unicode="&#xf671;" horiz-adv-x="1140" 
d="M967 348l125 -246q-53 -55 -165 -91t-237 -36q-286 0 -456.5 153.5t-170.5 406.5q0 89 22.5 169.5t72 152t122 123.5t177.5 82t233 30q117 0 217 -34t158 -83l-145 -246q-8 3 -35 14t-41.5 16t-40.5 12t-53.5 10t-59.5 3q-127 0 -202.5 -60.5t-75.5 -188.5
q0 -112 82.5 -182t226.5 -70q140 0 246 65zM938 1374l-332 -225l-145 170l289 291z" />
    <glyph glyph-name="uniF672" unicode="&#xf672;" horiz-adv-x="1140" 
d="M967 348l125 -246q-53 -55 -165 -91t-237 -36q-286 0 -456.5 153.5t-170.5 406.5q0 89 22.5 169.5t72 152t122 123.5t177.5 82t233 30q117 0 217 -34t158 -83l-145 -246q-8 3 -35 14t-41.5 16t-40.5 12t-53.5 10t-59.5 3q-127 0 -202.5 -60.5t-75.5 -188.5
q0 -112 82.5 -182t226.5 -70q140 0 246 65zM643 1122l-338 258l144 181l200 -146l205 141l137 -178l-340 -256h-8z" />
    <glyph glyph-name="uniF673" unicode="&#xf673;" horiz-adv-x="1140" 
d="M967 348l125 -246q-53 -55 -165 -91t-237 -36q-286 0 -456.5 153.5t-170.5 406.5q0 89 22.5 169.5t72 152t122 123.5t177.5 82t233 30q117 0 217 -34t158 -83l-145 -246q-8 3 -35 14t-41.5 16t-40.5 12t-53.5 10t-59.5 3q-127 0 -202.5 -60.5t-75.5 -188.5
q0 -112 82.5 -182t226.5 -70q140 0 246 65zM659 1548l338 -258l-143 -180l-201 145l-204 -141l-138 178l340 256h8z" />
    <glyph glyph-name="uniF674" unicode="&#xf674;" horiz-adv-x="1140" 
d="M967 348l125 -246q-53 -55 -165 -91t-237 -36q-286 0 -456.5 153.5t-170.5 406.5q0 89 22.5 169.5t72 152t122 123.5t177.5 82t233 30q117 0 217 -34t158 -83l-145 -246q-8 3 -35 14t-41.5 16t-40.5 12t-53.5 10t-59.5 3q-127 0 -202.5 -60.5t-75.5 -188.5
q0 -112 82.5 -182t226.5 -70q140 0 246 65zM457 1341q0 79 54 127t132 48q70 0 122 -48.5t52 -126.5q0 -86 -51.5 -136t-122.5 -50q-79 0 -132.5 49.5t-53.5 136.5z" />
    <glyph glyph-name="uniF675" unicode="&#xf675;" horiz-adv-x="1298" 
d="M147 0v1075h27q27 0 183 2t194 2q179 0 312 -39t213.5 -111.5t119.5 -168.5t39 -217q0 -248 -179 -397.5t-517 -149.5q-21 0 -155.5 2t-203.5 2h-33zM549 772q-57 0 -74 -4v-461q20 -4 74 -4q338 0 338 240q0 124 -87.5 176.5t-250.5 52.5zM582 1122l-338 258l143 181
l201 -146l205 141l137 -178l-340 -256h-8z" />
    <glyph glyph-name="uniF676" unicode="&#xf676;" horiz-adv-x="1290" 
d="M18 397v287h119v391h27q21 0 188.5 2t233.5 2q162 0 287 -42.5t201 -117t114.5 -169.5t38.5 -207t-43.5 -211t-123 -174t-200 -118.5t-266.5 -43.5q-62 0 -212 2t-210 2h-35v397h-119zM596 772q-98 0 -131 -8v-80h270v-287h-270v-90q40 -4 102 -4q145 0 228.5 59
t83.5 181q0 51 -15 90.5t-41 65.5t-62.5 42.5t-77 23.5t-87.5 7z" />
    <glyph glyph-name="uniF678" unicode="&#xf678;" horiz-adv-x="1040" 
d="M147 0v1075h777v-307h-449v-76h397v-307h-397v-78h467v-307h-795zM541 1122l-338 258l143 181l201 -146l205 141l137 -178l-340 -256h-8z" />
    <glyph glyph-name="uniF679" unicode="&#xf679;" horiz-adv-x="1040" 
d="M147 0v1075h777v-307h-449v-76h397v-307h-397v-78h467v-307h-795zM354 1341q0 79 54.5 127t132.5 48q70 0 122 -48.5t52 -126.5q0 -86 -51.5 -136t-122.5 -50q-79 0 -133 49.5t-54 136.5z" />
    <glyph glyph-name="uniF67A" unicode="&#xf67a;" horiz-adv-x="1040" 
d="M147 0v1075h777v-307h-449v-76h397v-307h-397v-78h467v-307h-795zM229 1167v246h602v-246h-602z" />
    <glyph glyph-name="uniF67C" unicode="&#xf67c;" horiz-adv-x="1040" 
d="M147 0v1075h777v-307h-449v-76h397v-307h-397v-78h467v-307h-18q-78 -4 -131.5 -39t-53.5 -72q0 -53 62 -53q36 0 82 21l92 -185q-27 -33 -97 -57.5t-149 -24.5q-129 0 -213 49.5t-84 145.5q0 144 199 215h-484z" />
    <glyph glyph-name="uniF67D" unicode="&#xf67d;" horiz-adv-x="1265" 
d="M645 369v286h541v-526q-80 -69 -210 -111.5t-247 -42.5q-318 0 -492 151.5t-174 408.5q0 115 43.5 216.5t122.5 177t198 119.5t261 44q132 0 227.5 -30.5t178.5 -86.5l-138 -256q-43 25 -106.5 45t-122.5 20q-315 0 -315 -249q0 -117 86.5 -184.5t234.5 -67.5
q83 0 146 24v62h-234zM326 1346l135 153q27 -30 51 -49.5t68.5 -38t95.5 -18.5q70 0 130 30.5t95 71.5l105 -147q-26 -40 -51.5 -69t-67 -62.5t-98.5 -51.5t-125 -18q-66 0 -125.5 21t-100.5 54t-68 63.5t-44 60.5z" />
    <glyph glyph-name="uniF67E" unicode="&#xf67e;" horiz-adv-x="1265" 
d="M645 369v286h541v-526q-80 -69 -210 -111.5t-247 -42.5q-318 0 -492 151.5t-174 408.5q0 115 43.5 216.5t122.5 177t198 119.5t261 44q132 0 227.5 -30.5t178.5 -86.5l-138 -256q-43 25 -106.5 45t-122.5 20q-315 0 -315 -249q0 -117 86.5 -184.5t234.5 -67.5
q83 0 146 24v62h-234zM680 1548l338 -258l-144 -180l-200 145l-205 -141l-137 178l340 256h8z" />
    <glyph glyph-name="uniF67F" unicode="&#xf67f;" horiz-adv-x="1265" 
d="M645 369v286h541v-526q-80 -69 -210 -111.5t-247 -42.5q-318 0 -492 151.5t-174 408.5q0 115 43.5 216.5t122.5 177t198 119.5t261 44q132 0 227.5 -30.5t178.5 -86.5l-138 -256q-43 25 -106.5 45t-122.5 20q-315 0 -315 -249q0 -117 86.5 -184.5t234.5 -67.5
q83 0 146 24v62h-234zM524 -102l305 59q27 -38 27 -98q0 -76 -49 -141t-116 -100.5t-136 -43.5l-90 131q49 22 66.5 50.5t17.5 68.5q0 42 -25 74z" />
    <glyph glyph-name="uniF680" unicode="&#xf680;" horiz-adv-x="1265" 
d="M645 369v286h541v-526q-80 -69 -210 -111.5t-247 -42.5q-318 0 -492 151.5t-174 408.5q0 115 43.5 216.5t122.5 177t198 119.5t261 44q132 0 227.5 -30.5t178.5 -86.5l-138 -256q-43 25 -106.5 45t-122.5 20q-315 0 -315 -249q0 -117 86.5 -184.5t234.5 -67.5
q83 0 146 24v62h-234zM498 1341q0 79 54 127t132 48q70 0 122 -48.5t52 -126.5q0 -86 -51.5 -136t-122.5 -50q-79 0 -132.5 49.5t-53.5 136.5z" />
    <glyph glyph-name="uniF681" unicode="&#xf681;" horiz-adv-x="1349" 
d="M61 743v287h86v45h328v-45h399v45h328v-45h86v-287h-86v-743h-328v395h-399v-395h-328v743h-86zM475 702h399v41h-399v-41z" />
    <glyph glyph-name="uniF682" unicode="&#xf682;" horiz-adv-x="1349" 
d="M874 0v395h-399v-395h-328v1075h328v-373h399v373h328v-1075h-328zM680 1548l338 -258l-144 -180l-200 145l-205 -141l-137 178l340 256h8z" />
    <glyph glyph-name="uniF685" unicode="&#xf685;" horiz-adv-x="643" 
d="M158 0v1075h327v-1075h-327zM20 1167v246h603v-246h-603z" />
    <glyph glyph-name="uniF686" unicode="&#xf686;" horiz-adv-x="643" 
d="M403 -143l93 -185q-27 -33 -97 -57.5t-149 -24.5q-129 0 -213 49.5t-84 145.5q0 145 205 217v1073h327v-1075h-41q-78 -4 -131 -38.5t-53 -72.5q0 -53 62 -53q35 0 81 21z" />
    <glyph glyph-name="uniF688" unicode="&#xf688;" horiz-adv-x="731" 
d="M584 1075v-799q0 -147 -89.5 -221.5t-252.5 -74.5q-81 0 -152 27.5t-96 60.5l106 249q45 -30 95 -30q61 0 61 49v739h328zM414 1548l338 -258l-144 -180l-200 145l-205 -141l-137 178l340 256h8z" />
    <glyph glyph-name="uniF689" unicode="&#xf689;" horiz-adv-x="1263" 
d="M147 0v1075h328v-432l326 432h424l-414 -489l453 -586h-445l-344 475v-475h-328zM422 -102l305 59q27 -38 27 -98q0 -76 -49 -141t-116 -100.5t-136 -43.5l-91 131q49 22 66.5 50.5t17.5 68.5q0 43 -24 74z" />
    <glyph glyph-name="uniF68A" unicode="&#xf68a;" horiz-adv-x="972" 
d="M147 0v1075h328v-747h457v-328h-785zM774 1374l-332 -225l-145 170l289 291z" />
    <glyph glyph-name="uniF68B" unicode="&#xf68b;" horiz-adv-x="972" 
d="M147 0v1075h328v-747h457v-328h-785zM606 1075h299q10 -25 10 -65q0 -78 -20.5 -144.5t-56 -114.5t-73 -81.5t-81.5 -57.5l-143 129q88 101 88 232q0 48 -23 102z" />
    <glyph glyph-name="uniF68C" unicode="&#xf68c;" horiz-adv-x="972" 
d="M147 0v1075h328v-747h457v-328h-785zM401 -102l306 59q26 -36 26 -98q0 -76 -49 -141t-116 -100.5t-136 -43.5l-90 131q49 22 66.5 50.5t17.5 68.5q0 42 -25 74z" />
    <glyph glyph-name="uniF68D" unicode="&#xf68d;" horiz-adv-x="972" 
d="M147 0v1075h328v-747h457v-328h-785zM596 647q0 74 58 133.5t151 59.5q82 0 137 -60t55 -133q0 -85 -54 -147t-138 -62q-95 0 -152 61.5t-57 147.5z" />
    <glyph glyph-name="uniF68E" unicode="&#xf68e;" horiz-adv-x="1374" 
d="M1227 0h-264l-508 545v-545h-308v1075h263l510 -547v547h307v-1075zM999 1374l-331 -225l-146 170l289 291z" />
    <glyph glyph-name="uniF68F" unicode="&#xf68f;" horiz-adv-x="1374" 
d="M1227 0h-264l-508 545v-545h-308v1075h263l510 -547v547h307v-1075zM682 1122l-338 258l143 181l201 -146l205 141l137 -178l-340 -256h-8z" />
    <glyph glyph-name="uniF690" unicode="&#xf690;" horiz-adv-x="1374" 
d="M1227 0h-264l-508 545v-545h-308v1075h263l510 -547v547h307v-1075zM524 -102l305 59q27 -38 27 -98q0 -76 -49 -141t-116 -100.5t-136 -43.5l-90 131q49 22 66.5 50.5t17.5 68.5q0 42 -25 74z" />
    <glyph glyph-name="uniF692" unicode="&#xf692;" horiz-adv-x="1359" 
d="M63 535q0 116 44 218t122.5 177t195.5 118.5t255 43.5q179 0 317.5 -65t218.5 -192.5t80 -299.5q0 -163 -79.5 -291.5t-220 -198.5t-316.5 -70q-179 0 -317.5 65.5t-219 193.5t-80.5 301zM412 535q0 -107 77.5 -179.5t190.5 -72.5q137 0 202.5 69.5t65.5 182.5
q0 116 -75.5 182.5t-192.5 66.5q-121 0 -194.5 -66t-73.5 -183zM1174 1417l-357 -260l-135 111l264 321zM776 1454l-264 -297l-156 105l199 356z" />
    <glyph glyph-name="uniF693" unicode="&#xf693;" horiz-adv-x="1359" 
d="M63 535q0 116 44 218t122.5 177t195.5 118.5t255 43.5q179 0 317.5 -65t218.5 -192.5t80 -299.5q0 -163 -79.5 -291.5t-220 -198.5t-316.5 -70q-179 0 -317.5 65.5t-219 193.5t-80.5 301zM412 535q0 -107 77.5 -179.5t190.5 -72.5q137 0 202.5 69.5t65.5 182.5
q0 116 -75.5 182.5t-192.5 66.5q-121 0 -194.5 -66t-73.5 -183zM379 1167v246h602v-246h-602z" />
    <glyph glyph-name="uniF695" unicode="&#xf695;" horiz-adv-x="1183" 
d="M475 0h-328v1075q25 0 177 2t233 2q496 0 496 -383q0 -60 -12 -111t-26.5 -81.5t-39.5 -58.5t-37 -38t-34 -25q-5 -3 -7 -5l266 -377h-415l-185 297h-88v-297zM578 772q-63 0 -103 -4v-164h94q69 0 102.5 20t33.5 68q0 27 -29.5 53.5t-97.5 26.5zM877 1374l-332 -225
l-146 170l289 291z" />
    <glyph glyph-name="uniF696" unicode="&#xf696;" horiz-adv-x="1183" 
d="M475 0h-328v1075q25 0 177 2t233 2q496 0 496 -383q0 -60 -12 -111t-26.5 -81.5t-39.5 -58.5t-37 -38t-34 -25q-5 -3 -7 -5l266 -377h-415l-185 297h-88v-297zM578 772q-63 0 -103 -4v-164h94q69 0 102.5 20t33.5 68q0 27 -29.5 53.5t-97.5 26.5zM561 1122l-338 258
l144 181l200 -146l205 141l137 -178l-340 -256h-8z" />
    <glyph glyph-name="uniF697" unicode="&#xf697;" horiz-adv-x="1183" 
d="M475 0h-328v1075q25 0 177 2t233 2q496 0 496 -383q0 -60 -12 -111t-26.5 -81.5t-39.5 -58.5t-37 -38t-34 -25q-5 -3 -7 -5l266 -377h-415l-185 297h-88v-297zM578 772q-63 0 -103 -4v-164h94q69 0 102.5 20t33.5 68q0 27 -29.5 53.5t-97.5 26.5zM401 -102l306 59
q26 -36 26 -98q0 -76 -49 -141t-116 -100.5t-136 -43.5l-90 131q49 22 66.5 50.5t17.5 68.5q0 42 -25 74z" />
    <glyph glyph-name="uniF698" unicode="&#xf698;" horiz-adv-x="1056" 
d="M645 328q0 17 -30.5 31.5t-80 28.5t-109 30.5t-118.5 44.5t-108.5 65t-80 97t-30.5 135q0 68 25 125.5t78 105t147.5 74.5t222.5 27q104 0 237 -49t195 -117l-147 -244q-61 42 -151 72t-146 30q-59 0 -86 -8.5t-27 -32.5q0 -13 24 -24.5t63 -20.5t89 -23.5t102.5 -31
t102.5 -46.5t89 -67t63 -94t24 -127q0 -149 -127.5 -241.5t-337.5 -92.5q-136 0 -280 56t-207 145l186 223q47 -44 150 -80t176 -36q92 0 92 45zM856 1374l-332 -225l-145 170l289 291z" />
    <glyph glyph-name="uniF699" unicode="&#xf699;" horiz-adv-x="1056" 
d="M233 -330l91 142q23 -23 62 -40.5t77 -17.5q45 0 45 27q0 19 -11.5 27t-39.5 8h-13v166q-124 14 -237 66t-166 128l186 223q47 -44 150 -80t176 -36q92 0 92 45q0 17 -30.5 31.5t-80 28.5t-109 30.5t-118.5 44.5t-108.5 65t-80 97t-30.5 135q0 68 25 125.5t78 105
t147.5 74.5t222.5 27q104 0 237 -49t195 -117l-147 -244q-61 42 -151 72t-146 30q-59 0 -86 -8.5t-27 -32.5q0 -13 24 -24.5t63 -20.5t89 -23.5t102.5 -31t102.5 -46.5t89 -67t63 -94t24 -127q0 -135 -107.5 -224.5t-287.5 -104.5v-33q104 -9 160.5 -56t56.5 -129
q0 -88 -79 -140t-230 -52q-72 0 -131.5 18.5t-85.5 36.5t-56 45z" />
    <glyph glyph-name="uniF69A" unicode="&#xf69a;" horiz-adv-x="1056" 
d="M645 328q0 17 -30.5 31.5t-80 28.5t-109 30.5t-118.5 44.5t-108.5 65t-80 97t-30.5 135q0 68 25 125.5t78 105t147.5 74.5t222.5 27q104 0 237 -49t195 -117l-147 -244q-61 42 -151 72t-146 30q-59 0 -86 -8.5t-27 -32.5q0 -13 24 -24.5t63 -20.5t89 -23.5t102.5 -31
t102.5 -46.5t89 -67t63 -94t24 -127q0 -149 -127.5 -241.5t-337.5 -92.5q-136 0 -280 56t-207 145l186 223q47 -44 150 -80t176 -36q92 0 92 45zM537 1548l337 -258l-143 -180l-201 145l-204 -141l-138 178l340 256h9z" />
    <glyph glyph-name="uniF69B" unicode="&#xf69b;" horiz-adv-x="1056" 
d="M645 328q0 17 -30.5 31.5t-80 28.5t-109 30.5t-118.5 44.5t-108.5 65t-80 97t-30.5 135q0 68 25 125.5t78 105t147.5 74.5t222.5 27q104 0 237 -49t195 -117l-147 -244q-61 42 -151 72t-146 30q-59 0 -86 -8.5t-27 -32.5q0 -13 24 -24.5t63 -20.5t89 -23.5t102.5 -31
t102.5 -46.5t89 -67t63 -94t24 -127q0 -149 -127.5 -241.5t-337.5 -92.5q-136 0 -280 56t-207 145l186 223q47 -44 150 -80t176 -36q92 0 92 45zM381 -102l305 59q27 -38 27 -98q0 -76 -49 -141t-116 -100.5t-136 -43.5l-90 131q49 22 66.5 50.5t17.5 68.5q0 42 -25 74z" />
    <glyph glyph-name="uniF69D" unicode="&#xf69d;" horiz-adv-x="1050" 
d="M18 768v307h1014v-307h-344v-768h-328v768h-342zM520 1122l-338 258l144 181l200 -146l205 141l137 -178l-340 -256h-8z" />
    <glyph glyph-name="uniF69E" unicode="&#xf69e;" horiz-adv-x="1050" 
d="M18 768v307h1014v-307h-344v-768h-328v768h-342zM360 -102l306 59q26 -36 26 -98q0 -76 -49 -141t-116 -100.5t-136 -43.5l-90 131q49 22 66.5 50.5t17.5 68.5q0 42 -25 74z" />
    </font>
</defs>
</svg>
