<?xml version="1.0" encoding="UTF-8"?>
<!DOCTYPE svg PUBLIC "-//W3C//DTD SVG 1.1//EN" "http://www.w3.org/Graphics/SVG/1.1/DTD/svg11.dtd">
<!-- Creator: CorelDRAW 2017 -->
<svg xmlns="http://www.w3.org/2000/svg" xml:space="preserve" width="11.6929in" height="4in" version="1.1" style="shape-rendering:geometricPrecision; text-rendering:geometricPrecision; image-rendering:optimizeQuality; fill-rule:evenodd; clip-rule:evenodd"
viewBox="0 0 11692.91 4000"
 xmlns:xlink="http://www.w3.org/1999/xlink">
 <defs>
  <style type="text/css">
   <![CDATA[
    .fil1 {fill:#E15249}
    .fil0 {fill:#465EA3}
    .fil2 {fill:#201E1E}
   ]]>
  </style>
 </defs>
 <g id="Layer_x0020_1">
  <metadata id="CorelCorpID_0Corel-Layer"/>
  <g id="_2833209346736">
   <g>
    <polygon class="fil0" points="10077.83,434.9 10065.26,438.75 10052.68,442.61 10044.3,446.46 10040.1,450.31 10031.71,454.16 10027.52,458.01 10006.57,461.85 9998.18,465.7 9993.98,469.55 9989.8,473.4 9985.6,477.25 9981.41,481.11 9977.21,484.96 9973.02,488.81 9968.83,492.66 9960.45,496.51 9943.68,500.36 9939.48,504.21 9935.29,508.06 9931.1,511.9 9926.91,515.75 9922.71,519.6 9918.52,523.45 9914.32,527.3 9910.13,531.16 9905.95,535.01 9897.57,538.86 9876.6,542.71 9872.41,546.56 9868.21,550.41 9864.02,554.26 9859.82,569.66 9855.65,577.36 9851.45,581.21 9847.26,585.06 9843.06,588.91 9838.87,592.76 9830.48,596.61 9792.76,600.46 9784.37,604.31 9780.18,608.15 9771.79,612 9767.59,619.71 9763.4,623.56 9759.21,627.41 9755.02,631.26 9750.82,635.11 9746.65,638.96 9725.68,642.81 9717.29,646.67 9713.09,650.52 9708.9,654.37 9704.71,658.2 9700.52,662.06 9696.32,665.91 9692.14,669.76 9687.95,673.61 9679.56,677.46 9662.79,681.31 9654.4,685.17 9650.21,689.02 9646.02,692.87 9637.64,696.72 9616.67,700.57 9612.48,704.42 9608.29,708.26 9604.09,712.11 9599.9,727.52 9595.71,731.37 9591.51,735.22 9545.4,735.22 9541.2,731.37 9532.83,727.52 9528.64,723.66 9524.44,719.81 9520.25,715.96 9516.06,712.11 9511.87,708.26 9507.67,704.42 9503.48,700.57 9499.28,696.72 9495.09,692.87 9490.9,689.02 9486.7,685.17 9478.33,681.31 9461.56,677.46 9457.37,673.61 9453.17,669.76 9448.98,654.37 9444.78,650.52 9440.59,642.81 9436.4,638.96 9432.2,635.11 9428.02,631.26 9423.83,627.41 9419.64,623.56 9415.44,615.86 9411.25,612 9402.87,608.15 9398.67,604.31 9390.28,600.46 9373.52,596.61 9365.14,592.76 9360.94,588.91 9356.75,585.06 9352.56,581.21 9348.36,577.36 9344.17,573.51 9339.98,569.66 9335.78,565.81 9327.39,561.95 9285.48,558.11 9281.28,554.26 9272.89,550.41 9268.7,546.56 9264.52,538.86 9260.33,531.16 9256.13,511.9 9251.94,508.06 9247.75,504.21 9243.56,500.36 9142.94,500.36 9138.74,504.21 9134.56,508.06 9126.17,511.9 9121.97,515.75 9117.78,519.6 9113.59,527.3 9109.39,531.16 9105.21,535.01 9101.02,669.76 9096.83,673.61 9092.63,677.46 9054.89,681.31 9046.52,685.17 9042.33,689.02 9038.13,692.87 9029.74,696.72 9008.78,700.57 9004.58,704.42 9000.41,708.26 8996.21,712.11 8996.21,827.62 9000.41,831.47 9004.58,835.32 9008.78,843.02 9012.97,846.87 9017.17,862.27 9021.36,869.97 9025.55,873.82 9029.74,881.52 9033.94,885.37 9038.13,889.22 9042.33,908.48 9046.52,916.17 9050.71,920.02 9054.89,923.87 9059.08,931.57 9063.28,946.98 9067.47,950.83 9071.67,954.68 9075.86,958.54 9080.05,962.39 9084.24,966.22 9088.44,970.07 9092.63,973.93 9096.83,977.78 9101.02,981.63 9105.21,985.48 9109.39,989.33 9113.59,993.18 9117.78,997.03 9121.97,1000.88 9126.17,1004.73 9130.36,1012.44 9134.56,1016.28 9138.74,1020.13 9142.94,1023.98 9147.13,1027.83 9151.33,1031.68 9155.52,1035.53 9159.71,1039.38 9163.89,1047.09 9163.89,1089.43 9159.71,1097.14 9155.52,1100.99 9151.33,1104.84 9147.13,1108.69 9142.94,1112.53 9138.74,1116.38 9134.56,1120.23 9130.36,1124.08 9126.17,1127.93 9121.97,1131.78 9117.78,1135.63 9113.59,1139.48 9109.39,1143.34 9105.21,1151.04 9101.02,1154.89 9096.83,1158.74 9092.63,1162.58 9088.44,1166.43 9084.24,1170.28 9080.05,1174.13 9075.86,1177.98 9071.67,1181.84 9067.47,1185.69 9063.28,1189.54 9059.08,1204.94 9054.89,1212.63 9050.71,1216.48 9046.52,1220.33 9042.33,1224.19 9038.13,1228.04 9033.94,1231.89 9029.74,1235.74 9025.55,1239.59 9021.36,1243.44 9017.17,1247.29 9008.78,1251.14 8971.05,1255 8966.85,1258.83 8962.67,1262.69 8954.28,1266.54 8950.08,1270.39 8945.91,1274.24 8924.94,1278.09 8916.55,1281.94 8912.35,1285.79 8908.16,1289.65 8903.97,1293.5 8899.78,1297.35 8895.58,1301.2 8891.41,1305.05 8887.21,1308.89 8878.82,1312.74 8857.85,1316.59 8853.66,1320.44 8849.47,1324.29 8845.28,1328.14 8841.09,1347.4 8836.9,1351.25 8832.71,1358.94 8828.52,1362.79 8824.32,1366.64 8820.13,1389.75 8815.93,1393.6 8811.74,1401.3 8807.55,1405.15 8803.35,1408.99 8794.97,1412.84 8790.78,1420.54 8782.4,1424.4 8778.21,1428.25 8774.02,1432.1 8769.82,1435.95 8765.63,1439.8 8761.43,1443.65 8757.24,1447.5 8753.05,1486 8748.85,1489.85 8744.66,1497.56 8740.47,1501.41 8736.27,1505.24 8732.09,1528.35 8727.9,1532.2 8711.13,1536.06 8702.74,1539.91 8698.55,1543.76 8694.35,1547.61 8685.96,1551.46 8644.04,1555.3 8635.66,1559.15 8631.46,1563 8627.29,1566.85 8623.09,1570.7 8618.9,1574.56 8614.7,1578.41 8610.51,1582.26 8606.32,1586.11 8602.13,1589.96 8597.93,1593.81 8593.74,1597.66 8589.54,1601.51 8585.35,1605.35 8581.16,1609.2 8576.96,1613.05 8572.78,1616.9 8568.59,1620.76 8564.4,1624.61 8556.01,1628.46 8430.24,1632.31 8426.04,1636.16 8421.85,1640.01 8413.46,1643.86 8409.27,1647.71 8405.07,1651.55 8384.12,1655.4 8379.93,1659.26 8371.54,1663.11 8367.35,1666.95 8363.15,1670.81 8358.96,1674.66 8354.77,1678.51 8350.57,1682.36 8346.39,1686.21 8342.2,1690.06 8338.01,1693.91 8333.81,1697.76 8329.62,1701.6 8325.43,1709.31 8321.23,1724.71 8317.04,1732.41 8312.85,1736.26 8308.65,1740.11 8304.46,1743.97 8300.27,1747.82 8296.07,1751.65 8291.89,1755.51 8287.7,1759.36 8283.5,1763.21 8279.31,1767.06 8275.12,1770.91 8270.93,1778.61 8266.73,1782.46 8262.54,1786.31 8258.35,1801.71 8254.15,1809.41 8249.96,1813.26 8245.77,1817.11 8241.57,1820.96 8237.39,1824.81 8233.2,1828.67 8229,1832.52 8224.81,1836.37 8220.62,1840.22 8216.43,1844.07 8212.23,1847.91 8208.04,1851.76 8203.85,1855.61 8199.65,1859.46 8195.46,1863.31 8191.26,1867.17 8187.07,1871.02 8182.89,1874.87 8178.7,1878.72 8174.5,1882.57 8170.31,1886.42 8166.12,1890.27 8161.93,1894.12 8157.73,1897.96 8153.54,1905.67 8149.34,1909.52 8145.15,1913.37 8140.96,1917.22 8136.76,1921.07 8132.58,1924.92 8128.39,1928.77 8124.2,1932.62 8120,1936.47 8115.81,1940.33 8107.43,1944.18 8103.23,1948.01 8099.04,1955.72 8090.65,1959.57 8086.46,1963.42 8082.26,1967.27 8078.08,1971.12 8073.89,1974.97 8069.7,1978.82 8065.5,1982.67 8061.31,1986.52 8057.11,1990.38 8052.92,1994.22 8048.73,1998.07 8044.54,2001.92 8040.34,2005.77 8036.15,2009.62 8031.96,2013.47 8027.76,2017.32 8023.58,2021.17 8019.39,2025.02 8015.2,2028.87 7994.23,2032.72 7990.04,2036.57 7985.84,2040.43 7981.65,2044.27 7977.45,2059.67 7973.26,2071.22 7969.08,2082.78 7969.08,2136.69 7973.26,2144.37 7977.45,2152.07 7981.65,2159.78 7985.84,2163.63 7990.04,2167.48 7994.23,2171.33 7998.42,2179.03 8006.81,2182.88 8011,2186.74 8019.39,2190.57 8036.15,2194.43 8044.54,2198.28 8048.73,2202.13 8052.92,2205.98 8061.31,2209.83 8157.73,2209.83 8166.12,2205.98 8170.31,2202.13 8178.7,2198.28 8182.89,2194.43 8229,2190.57 8233.2,2186.74 8237.39,2182.88 8241.57,2175.18 8245.77,2152.07 8249.96,2148.22 8254.15,2144.37 8258.35,2140.53 8262.54,2136.69 8266.73,2132.83 8270.93,2128.98 8275.12,2125.13 8279.31,2121.28 8283.5,2117.43 8287.7,2113.57 8291.89,2109.72 8296.07,2105.87 8300.27,2102.02 8304.46,2098.17 8312.85,2094.32 8338.01,2094.32 8346.39,2098.17 8350.57,2102.02 8354.77,2105.87 8358.96,2109.72 8363.15,2113.57 8367.35,2121.28 8367.35,2236.79 8363.15,2240.63 8358.96,2244.48 8354.77,2252.18 8350.57,2256.03 8346.39,2259.88 8346.39,2436.98 8350.57,2440.83 8354.77,2444.69 8358.96,2452.39 8363.15,2456.24 8367.35,2460.09 8371.54,2656.45 8375.74,2664.15 8379.93,2668 8384.12,2671.85 8388.31,2679.56 8392.51,2714.2 8396.7,2718.06 8400.88,2721.91 8405.07,2725.76 8409.27,2729.61 8413.46,2733.44 8417.65,2737.3 8421.85,2741.15 8426.04,2745 8430.24,2748.85 8434.43,2752.7 8438.62,2756.55 8442.81,2760.4 8451.2,2764.26 8509.9,2764.26 8514.09,2760.4 8518.28,2756.55 8522.46,2752.7 8526.66,2594.84 8530.85,2590.99 8535.04,2583.29 8539.24,2579.45 8543.43,2575.6 8547.63,2475.5 8551.81,2471.65 8556.01,2463.94 8560.2,2460.09 8564.4,2456.24 8564.4,2340.73 8560.2,2336.89 8556.01,2333.04 8551.81,2325.34 8547.63,2321.49 8547.63,2179.03 8551.81,2175.18 8556.01,2167.48 8560.2,2163.63 8564.4,2159.78 8568.59,2063.52 8572.78,2055.82 8576.96,2051.97 8581.16,2044.27 8585.35,2040.43 8589.54,1982.67 8593.74,1974.97 8597.93,1971.12 8602.13,1967.27 8606.32,1959.57 8610.51,1901.81 8614.7,1894.12 8618.9,1890.27 8623.09,1886.42 8627.29,1878.72 8631.46,1824.81 8635.66,1817.11 8639.85,1813.26 8644.04,1809.41 8648.24,1805.56 8652.43,1801.71 8656.63,1797.87 8660.82,1794.02 8665.01,1790.17 8669.2,1786.31 8673.4,1778.61 8677.59,1774.76 8681.77,1770.91 8685.96,1767.06 8690.16,1763.21 8694.35,1759.36 8698.55,1755.51 8702.74,1751.65 8706.93,1747.82 8711.13,1743.97 8715.32,1740.11 8719.52,1736.26 8723.7,1732.41 8727.9,1728.56 8736.27,1724.71 8740.47,1720.86 8748.85,1717.01 8765.63,1713.16 8774.02,1709.31 8778.21,1705.46 8782.4,1701.6 8786.59,1697.76 8790.78,1693.91 8794.97,1690.06 8799.16,1686.21 8803.35,1682.36 8807.55,1678.51 8811.74,1674.66 8815.93,1670.81 8820.13,1666.95 8824.32,1663.11 8828.52,1640.01 8832.71,1632.31 8836.9,1628.46 8841.09,1624.61 8845.28,1620.76 8853.66,1616.9 8937.52,1613.05 8945.91,1609.2 8950.08,1605.35 8954.28,1601.51 8962.67,1597.66 8979.44,1593.81 8987.82,1589.96 8992.02,1586.11 9000.41,1582.26 9004.58,1574.56 9008.78,1570.7 9012.97,1566.85 9021.36,1563 9025.55,1559.15 9046.52,1555.3 9054.89,1551.46 9059.08,1547.61 9063.28,1543.76 9067.47,1539.91 9071.67,1536.06 9075.86,1532.2 9080.05,1528.35 9084.24,1524.5 9088.44,1520.65 9092.63,1516.8 9113.59,1512.95 9117.78,1509.1 9121.97,1505.24 9126.17,1501.41 9130.36,1486 9134.56,1478.3 9138.74,1474.45 9142.94,1470.59 9147.13,1462.9 9151.33,1428.25 9155.52,1420.54 9159.71,1416.69 9163.89,1412.84 9168.09,1405.15 9172.28,1385.9 9176.47,1382.05 9180.67,1378.2 9197.44,1374.34 9205.83,1370.49 9210.02,1366.64 9214.22,1362.79 9218.39,1358.94 9222.59,1355.1 9226.78,1351.25 9230.98,1347.4 9235.17,1343.55 9239.36,1339.7 9243.56,1335.84 9247.75,1331.99 9251.94,1328.14 9256.13,1324.29 9260.33,1320.44 9264.52,1316.59 9268.7,1312.74 9272.89,1308.89 9281.28,1305.05 9285.48,1301.2 9289.67,1293.5 9298.06,1289.65 9302.25,1285.79 9306.44,1281.94 9310.63,1278.09 9314.83,1270.39 9323.2,1266.54 9327.39,1262.69 9331.59,1258.83 9398.67,1258.83 9402.87,1262.69 9407.06,1266.54 9415.44,1270.39 9419.64,1274.24 9423.83,1278.09 9507.67,1281.94 9516.06,1285.79 9520.25,1289.65 9524.44,1293.5 9532.83,1297.35 9549.59,1301.2 9557.98,1305.05 9562.17,1308.89 9566.37,1312.74 9574.76,1316.59 9591.51,1320.44 9599.9,1324.29 9604.09,1328.14 9608.29,1331.99 9612.48,1335.84 9616.67,1339.7 9620.87,1347.4 9625.06,1385.9 9629.26,1389.75 9633.45,1397.45 9637.64,1401.3 9641.83,1408.99 9646.02,1424.4 9650.21,1428.25 9654.4,1432.1 9658.59,1435.95 9662.79,1439.8 9666.98,1443.65 9671.17,1447.5 9675.37,1451.35 9679.56,1455.19 9683.76,1462.9 9687.95,1478.3 9692.14,1486 9696.32,1489.85 9700.52,1493.7 9704.71,1497.56 9708.9,1501.41 9713.09,1505.24 9717.29,1509.1 9721.48,1512.95 9725.68,1516.8 9729.87,1520.65 9734.06,1524.5 9738.26,1528.35 9742.45,1532.2 9746.65,1539.91 9750.82,1543.76 9759.21,1547.61 9763.4,1551.46 9771.79,1555.3 9788.56,1559.15 9796.95,1563 9801.15,1566.85 9805.32,1570.7 9809.52,1574.56 9813.71,1578.41 9817.91,1582.26 9822.09,1586.11 9826.29,1589.96 9830.48,1593.81 9834.68,1597.66 9838.87,1601.51 9843.06,1605.35 9847.26,1609.2 9855.65,1613.05 9872.41,1616.9 9880.79,1620.76 9884.98,1624.61 9893.37,1628.46 9897.57,1632.31 9939.48,1636.16 9943.68,1640.01 9947.87,1643.86 9952.07,1647.71 9956.26,1651.55 9960.45,1655.4 9964.63,1659.26 9968.83,1663.11 9973.02,1666.95 9977.21,1670.81 9985.6,1674.66 10002.37,1678.51 10010.76,1682.36 10014.95,1686.21 10023.33,1690.06 10027.52,1697.76 10031.71,1701.6 10040.1,1705.46 10044.3,1709.31 10052.68,1713.16 10090.41,1717.01 10098.8,1720.86 10102.99,1724.71 10107.18,1728.56 10115.57,1732.41 10132.33,1736.26 10140.72,1740.11 10144.91,1743.97 10149.1,1747.82 10153.3,1751.65 10157.49,1755.51 10161.69,1763.21 10165.87,1782.46 10170.07,1790.17 10174.26,1794.02 10178.44,1797.87 10182.63,1805.56 10186.83,1820.96 10191.02,1824.81 10195.22,1832.52 10199.41,1836.37 10203.6,1844.07 10207.8,1859.46 10211.99,1863.31 10216.19,1867.17 10220.38,1871.02 10241.33,1874.87 10249.72,1878.72 10253.91,1882.57 10258.11,1886.42 10262.3,1890.27 10266.49,1894.12 10270.69,1897.96 10274.88,1901.81 10279.07,1905.67 10283.26,1909.52 10287.44,1913.37 10308.41,1917.22 10312.61,1921.07 10320.99,1924.92 10325.19,1928.77 10333.57,1932.62 10350.33,1936.47 10358.72,1940.33 10362.91,1944.18 10367.11,1948.01 10371.3,1951.87 10375.49,1955.72 10379.69,1959.57 10383.88,1963.42 10388.07,1967.27 10396.45,1971.12 10413.22,1974.97 10421.61,1978.82 10425.8,1982.67 10434.19,1982.67 10434.19,1990.38 10438.38,1994.22 10442.57,1998.07 10446.75,2001.92 10450.95,2005.77 10455.14,2009.62 10459.33,2013.47 10463.53,2021.17 10467.72,2040.43 10471.91,2044.27 10476.11,2048.12 10480.3,2051.97 10484.5,2055.82 10488.69,2059.67 10492.88,2063.52 10497.07,2067.37 10501.26,2071.22 10505.45,2078.93 10505.45,2302.23 10501.26,2306.08 10497.07,2313.78 10492.88,2317.63 10488.69,2321.49 10488.69,2356.14 10492.88,2359.99 10497.07,2363.84 10501.26,2367.69 10505.45,2371.54 10509.64,2375.39 10513.83,2379.24 10518.03,2383.09 10522.22,2386.93 10526.41,2390.78 10530.61,2394.63 10534.8,2398.48 10539,2402.33 10543.19,2406.19 10547.38,2410.04 10547.38,2425.44 10543.19,2429.29 10539,2433.15 10534.8,2436.98 10530.61,2440.83 10530.61,2513.99 10534.8,2517.85 10539,2521.7 10543.19,2525.55 10668.96,2525.55 10673.15,2521.7 10677.34,2517.85 10681.53,2513.99 10681.53,2440.83 10677.34,2436.98 10673.15,2429.29 10668.96,2425.44 10664.77,2421.59 10660.58,2417.74 10652.19,2413.89 10648,2410.04 10643.8,2406.19 10643.8,2390.78 10648,2386.93 10652.19,2383.09 10660.58,2379.24 10664.77,2375.39 10668.96,2371.54 10673.15,2367.69 10677.34,2363.84 10681.53,2359.99 10685.72,2356.14 10689.92,2352.28 10694.11,2348.43 10698.3,2344.58 10702.5,2340.73 10706.69,2336.89 10710.89,2333.04 10715.08,2329.19 10719.27,2325.34 10723.46,2321.49 10727.65,2317.63 10731.84,2298.38 10736.03,2290.68 10740.22,2286.84 10744.42,2282.99 10748.61,2279.14 10752.81,2275.29 10757,2271.44 10849.22,2271.44 10853.42,2275.29 10857.61,2279.14 10861.81,2282.99 10866,2286.84 10870.19,2290.68 10874.39,2294.53 10878.58,2298.38 10882.78,2302.23 10886.95,2306.08 10891.15,2309.93 10895.34,2313.78 10899.54,2317.63 10903.73,2321.49 10907.92,2325.34 10912.11,2329.19 10916.31,2333.04 10920.5,2336.89 10924.7,2340.73 10928.89,2344.58 10933.08,2348.43 10937.28,2352.28 10941.45,2356.14 10945.65,2359.99 10949.84,2363.84 10958.23,2367.69 10975,2371.54 10983.39,2375.39 10987.58,2379.24 10995.96,2383.09 11000.15,2386.93 11042.08,2390.78 11046.26,2394.63 11050.46,2398.48 11058.84,2402.33 11063.04,2406.19 11067.23,2410.04 11151.09,2413.89 11159.46,2417.74 11163.65,2421.59 11167.85,2425.44 11176.23,2429.29 11209.76,2429.29 11213.96,2425.44 11222.35,2421.59 11226.54,2417.74 11234.93,2413.89 11272.65,2410.04 11276.85,2406.19 11281.04,2402.33 11285.24,2398.48 11289.43,2394.63 11293.62,2390.78 11297.81,2386.93 11302.01,2383.09 11306.2,2379.24 11310.39,2375.39 11314.57,2371.54 11318.77,2367.69 11322.96,2363.84 11327.15,2359.99 11331.35,2356.14 11335.54,2352.28 11339.74,2344.58 11343.93,2336.89 11343.93,2202.13 11339.74,2190.57 11335.54,2179.03 11331.35,2163.63 11327.15,2159.78 11322.96,2155.93 11318.77,2152.07 11297.81,2148.22 11293.62,2144.37 11289.43,2140.53 11281.04,2136.69 11276.85,2132.83 11272.65,2128.98 11234.93,2125.13 11226.54,2121.28 11222.35,2117.43 11213.96,2113.57 11209.76,2109.72 11146.89,2105.87 11138.5,2102.02 11134.31,2098.17 11130.12,2094.32 11125.93,2090.48 11121.73,2086.63 11117.54,2082.78 11113.34,2078.93 11109.15,2075.08 11100.76,2071.22 11084,2067.37 11075.62,2063.52 11071.43,2059.67 11067.23,2055.82 11063.04,2051.97 11058.84,2048.12 11054.65,2040.43 11050.46,2021.17 11046.26,2017.32 11042.08,2013.47 11037.89,2009.62 11033.7,2005.77 11029.5,2001.92 11025.31,1998.07 11021.11,1994.22 11016.93,1990.38 11012.73,1986.52 11008.54,1982.67 11004.34,1978.82 11000.15,1974.97 10995.96,1971.12 10991.78,1967.27 10987.58,1963.42 10983.39,1959.57 10979.2,1955.72 10975,1951.87 10970.81,1948.01 10966.61,1944.18 10962.42,1940.33 10958.23,1936.47 10954.04,1932.62 10949.84,1928.77 10945.65,1924.92 10941.45,1921.07 10933.08,1917.22 10928.89,1913.37 10907.92,1909.52 10903.73,1905.67 10899.54,1901.81 10895.34,1897.96 10891.15,1894.12 10886.95,1890.27 10882.78,1886.42 10878.58,1882.57 10874.39,1878.72 10870.19,1874.87 10861.81,1871.02 10824.08,1867.17 10815.69,1863.31 10811.5,1859.46 10803.11,1855.61 10798.92,1847.91 10794.72,1844.07 10790.53,1840.22 10786.34,1836.37 10782.15,1832.52 10777.96,1828.67 10773.78,1820.96 10769.58,1805.56 10765.39,1801.71 10761.19,1797.87 10757,1794.02 10752.81,1790.17 10748.61,1786.31 10744.42,1782.46 10740.22,1778.61 10736.03,1774.76 10731.84,1770.91 10727.65,1767.06 10723.46,1759.36 10719.27,1755.51 10715.08,1751.65 10710.89,1747.82 10706.69,1743.97 10702.5,1740.11 10698.3,1736.26 10694.11,1732.41 10689.92,1728.56 10685.72,1724.71 10681.53,1720.86 10677.34,1717.01 10673.15,1713.16 10668.96,1709.31 10664.77,1705.46 10656.39,1701.6 10652.19,1697.76 10643.8,1693.91 10627.03,1690.06 10618.64,1686.21 10614.46,1682.36 10610.27,1678.51 10606.07,1674.66 10601.89,1670.81 10597.69,1666.95 10593.5,1663.11 10589.3,1659.26 10580.92,1655.4 10564.14,1651.55 10559.95,1647.71 10555.76,1643.86 10547.38,1640.01 10543.19,1632.31 10539,1628.46 10534.8,1624.61 10530.61,1620.76 10522.22,1616.9 10518.03,1609.2 10513.83,1605.35 10505.45,1601.51 10501.26,1597.66 10497.07,1593.81 10492.88,1589.96 10488.69,1586.11 10484.5,1582.26 10480.3,1578.41 10471.91,1574.56 10455.14,1570.7 10446.75,1566.85 10442.57,1563 10438.38,1559.15 10434.19,1555.3 10430,1551.46 10425.8,1547.61 10421.61,1543.76 10417.41,1539.91 10413.22,1536.06 10409.03,1532.2 10404.83,1524.5 10400.64,1505.24 10396.45,1501.41 10392.25,1497.56 10388.07,1489.85 10383.88,1486 10375.49,1482.15 10371.3,1478.3 10362.91,1474.45 10346.14,1470.59 10337.75,1466.75 10333.57,1462.9 10329.38,1459.04 10320.99,1455.19 10304.22,1451.35 10295.83,1447.5 10291.64,1443.65 10287.44,1439.8 10283.26,1435.95 10279.07,1432.1 10274.88,1428.25 10270.69,1424.4 10266.49,1420.54 10262.3,1416.69 10258.11,1412.84 10253.91,1408.99 10249.72,1405.15 10241.33,1401.3 10237.14,1393.6 10232.94,1389.75 10228.76,1385.9 10224.57,1382.05 10220.38,1378.2 10216.19,1374.34 10211.99,1370.49 10207.8,1366.64 10203.6,1362.79 10199.41,1358.94 10195.22,1355.1 10191.02,1351.25 10186.83,1347.4 10182.63,1343.55 10178.44,1339.7 10174.26,1335.84 10170.07,1331.99 10165.87,1328.14 10161.69,1324.29 10157.49,1320.44 10153.3,1316.59 10149.1,1312.74 10144.91,1297.35 10140.72,1285.79 10136.52,1281.94 10132.33,1278.09 10128.13,1274.24 10123.94,1270.39 10119.76,1266.54 10115.57,1262.69 10111.37,1258.83 10107.18,1255 10102.99,1247.29 10094.6,1243.44 10090.41,1239.59 10086.21,1235.74 10082.02,1231.89 10077.83,1228.04 10073.63,1224.19 10069.46,1220.33 10065.26,1216.48 10061.07,1212.63 10056.87,1208.8 10052.68,1204.94 10048.49,1201.09 10044.3,1197.24 10040.1,1193.39 10035.91,1189.54 10031.71,1185.69 10027.52,1181.84 10019.13,1177.98 10002.37,1174.13 9993.98,1170.28 9989.8,1166.43 9981.41,1162.58 9977.21,1154.89 9973.02,1151.04 9968.83,1147.19 9964.63,1143.34 9960.45,1139.48 9956.26,1135.63 9952.07,1131.78 9947.87,1127.93 9943.68,1124.08 9939.48,1120.23 9935.29,1116.38 9931.1,1112.53 9926.91,1108.69 9922.71,1104.84 9918.52,1100.99 9910.13,1097.14 9893.37,1093.29 9884.98,1089.43 9880.79,1085.58 9876.6,1081.73 9872.41,1077.88 9868.21,1074.03 9864.02,1070.18 9859.82,1066.33 9855.65,1062.48 9851.45,1058.64 9847.26,1054.78 9843.06,1050.93 9838.87,1047.09 9830.48,1043.23 9826.29,1039.38 9822.09,1035.53 9817.91,1031.68 9813.71,1027.83 9809.52,1023.98 9805.32,1020.13 9801.15,1016.28 9796.95,1012.44 9792.76,1004.73 9788.56,1000.88 9784.37,997.03 9780.18,989.33 9775.98,950.83 9771.79,946.98 9767.59,943.13 9763.4,935.43 9759.21,931.57 9755.02,927.72 9755.02,912.33 9759.21,908.48 9763.4,904.62 9767.59,896.93 9771.79,893.07 9775.98,889.22 9780.18,866.12 9784.37,862.27 9826.29,858.41 9830.48,854.56 9838.87,850.73 9843.06,846.87 9847.26,843.02 9851.45,839.17 9855.65,835.32 9859.82,831.47 9864.02,827.62 9868.21,823.77 9872.41,819.92 9876.6,816.07 9880.79,812.22 9884.98,808.36 9889.18,804.51 9893.37,800.67 9897.57,796.82 9901.76,792.97 9905.95,789.12 9910.13,785.27 9914.32,781.42 9918.52,777.57 9922.71,773.72 9926.91,769.87 9931.1,766.02 9935.29,762.17 9939.48,754.47 9943.68,750.62 9947.87,746.77 9952.07,731.37 9956.26,727.52 9960.45,723.66 9977.21,719.81 9981.41,715.96 9989.8,712.11 9993.98,708.26 9998.18,704.42 10002.37,700.57 10006.57,696.72 10010.76,692.87 10014.95,689.02 10019.13,685.17 10023.33,681.31 10027.52,677.46 10031.71,673.61 10035.91,669.76 10040.1,665.91 10044.3,662.06 10048.49,658.2 10052.68,654.37 10056.87,650.52 10061.07,646.67 10065.26,642.81 10069.46,638.96 10073.63,635.11 10077.83,627.41 10082.02,623.56 10086.21,619.71 10090.41,615.86 10094.6,612 10098.8,608.15 10102.99,604.31 10107.18,600.46 10111.37,596.61 10115.57,592.76 10119.76,588.91 10123.94,573.51 10128.13,569.66 10132.33,565.81 10136.52,558.11 10140.72,554.26 10144.91,546.56 10149.1,531.16 10153.3,527.3 10157.49,519.6 10161.69,515.75 10165.87,511.9 10165.87,492.66 10161.69,488.81 10157.49,484.96 10153.3,477.25 10149.1,473.4 10144.91,458.01 10140.72,450.31 10136.52,446.46 10132.33,442.61 10128.13,438.75 10119.76,434.9 10107.18,431.06 10090.41,431.06 "/>
    <polygon class="fil0" points="10585.11,2571.75 10576.72,2575.6 10572.53,2579.45 10568.33,2583.29 10564.14,2587.14 10559.95,2594.84 10555.76,2598.69 10551.56,2714.2 10547.38,2718.06 10543.19,2721.91 10539,2729.61 10534.8,2733.44 10530.61,2741.15 10526.41,2756.55 10522.22,2760.4 10518.03,2768.11 10513.83,2771.96 10509.64,2775.81 10509.64,2933.67 10513.83,2937.52 10518.03,2941.36 10522.22,2945.21 10526.41,2949.06 10530.61,2952.91 10534.8,2956.76 10539,2960.61 10547.38,2964.46 10622.83,2964.46 10631.22,2960.61 10635.42,2956.76 10643.8,2952.91 10648,2949.06 10668.96,2945.21 10673.15,2941.36 10677.34,2937.52 10681.53,2933.67 10681.53,2856.66 10677.34,2848.96 10673.15,2845.1 10668.96,2841.25 10664.77,2833.56 10664.77,2756.55 10668.96,2748.85 10673.15,2745 10677.34,2741.15 10681.53,2733.44 10681.53,2637.19 10677.34,2629.5 10673.15,2625.65 10668.96,2621.8 10664.77,2614.1 10660.58,2598.69 10656.39,2594.84 10652.19,2590.99 10648,2587.14 10643.8,2583.29 10639.61,2579.45 10635.42,2575.6 10631.22,2571.75 10622.83,2567.9 10589.3,2567.9 "/>
    <polygon class="fil0" points="8379.93,2810.46 8371.54,2814.31 8367.35,2818.16 8363.15,2822.01 8358.96,2825.86 8354.77,2829.7 8350.57,2833.56 8346.39,2837.42 8346.39,2872.06 8350.57,2875.91 8354.77,2879.76 8358.96,2887.47 8363.15,2891.31 8367.35,2895.16 8371.54,2914.41 8375.74,2922.11 8379.93,2925.96 8384.12,2929.81 8388.31,2937.52 8388.31,2952.91 8384.12,2960.61 8379.93,2964.46 8375.74,2968.31 8371.54,2976.02 8371.54,3033.78 8371.54,3053.02 8371.54,3172.38 8375.74,3176.23 8379.93,3180.08 8384.12,3183.93 8438.62,3183.93 8447.01,3180.08 8451.2,3176.23 8459.58,3172.38 8463.77,3164.67 8467.96,3160.82 8472.15,3156.97 8476.35,3153.12 8480.54,3149.27 8484.74,3145.42 8488.93,3141.57 8493.12,3137.72 8497.31,3133.88 8501.51,3122.32 8505.7,3106.92 8509.9,3103.07 8514.09,3099.22 8518.28,3095.37 8522.46,3091.52 8526.66,3087.67 8530.85,3083.83 8535.04,3079.97 8539.24,3076.12 8543.43,3072.27 8543.43,2976.02 8539.24,2972.17 8535.04,2968.31 8530.85,2960.61 8526.66,2956.76 8522.46,2875.91 8518.28,2872.06 8514.09,2868.21 8509.9,2860.51 8505.7,2856.66 8501.51,2841.25 8497.31,2833.56 8493.12,2829.7 8488.93,2825.86 8484.74,2822.01 8480.54,2818.16 8476.35,2814.31 8467.96,2810.46 8463.77,2806.61 8384.12,2806.61 "/>
    <polygon class="fil0" points="10627.03,3006.81 10622.83,3010.67 10618.64,3014.52 10610.27,3018.37 10568.33,3022.22 10564.14,3026.07 10559.95,3029.92 10551.56,3033.78 10547.38,3037.61 10543.19,3041.46 10522.22,3045.31 10518.03,3049.17 10513.83,3053.02 10509.64,3056.87 10509.64,3153.12 10513.83,3156.97 10518.03,3160.82 10522.22,3168.53 10526.41,3172.38 10530.61,3249.37 10534.8,3253.23 10539,3257.08 10543.19,3260.93 10627.03,3260.93 10631.22,3257.08 10635.42,3253.23 10639.61,3249.37 10643.8,3233.97 10648,3230.13 10652.19,3226.28 10668.96,3222.43 10677.34,3218.58 10681.53,3214.72 10685.72,3210.87 10689.92,3207.02 10694.11,3203.17 10698.3,3199.32 10702.5,3195.47 10706.69,3191.62 10710.89,3187.77 10715.08,3183.93 10719.27,3180.08 10723.46,3176.23 10727.65,3172.38 10727.65,3114.62 10723.46,3110.77 10719.27,3106.92 10715.08,3099.22 10710.89,3095.37 10706.69,3072.27 10706.69,3056.87 10706.69,3033.78 10702.5,3029.92 10698.3,3026.07 10694.11,3022.22 10689.92,3018.37 10685.72,3014.52 10681.53,3010.67 10677.34,3006.81 10668.96,3002.96 10635.42,3002.96 "/>
    <polygon class="fil0" points="8484.74,3287.87 8480.54,3291.72 8476.35,3295.57 8472.15,3299.43 8467.96,3303.28 8463.77,3307.13 8459.58,3310.98 8455.38,3314.83 8451.2,3372.59 8447.01,3376.44 8363.15,3380.29 8354.77,3384.13 8350.57,3387.98 8346.39,3391.83 8342.2,3395.68 8338.01,3399.53 8333.81,3403.38 8329.62,3407.23 8325.43,3411.08 8321.23,3453.44 8317.04,3457.28 8312.85,3464.99 8308.65,3468.84 8304.46,3472.69 8304.46,3488.08 8308.65,3491.93 8312.85,3495.78 8317.04,3503.49 8321.23,3507.34 8325.43,3530.43 8329.62,3534.28 8333.81,3538.13 8338.01,3541.98 8342.2,3545.83 8346.39,3549.69 8350.57,3553.54 8354.77,3557.39 8363.15,3561.24 8438.62,3561.24 8447.01,3557.39 8451.2,3553.54 8459.58,3549.69 8463.77,3545.83 8467.96,3538.13 8472.15,3534.28 8476.35,3530.43 8480.54,3511.19 8484.74,3507.34 8488.93,3503.49 8493.12,3495.78 8497.31,3491.93 8501.51,3488.08 8505.7,3430.33 8509.9,3426.49 8526.66,3422.64 8530.85,3418.79 8535.04,3414.94 8543.43,3411.08 8547.63,3407.23 8551.81,3403.38 8556.01,3395.68 8560.2,3391.83 8564.4,3387.98 8564.4,3295.57 8560.2,3291.72 8556.01,3287.87 8551.81,3284.02 8493.12,3284.02 "/>
    <polygon class="fil0" points="10648,3264.78 10643.8,3268.63 10639.61,3272.48 10635.42,3280.19 10631.22,3284.02 10627.03,3287.87 10622.83,3291.72 10618.64,3295.57 10614.46,3299.43 10610.27,3303.28 10606.07,3307.13 10601.89,3310.98 10597.69,3314.83 10593.5,3330.24 10589.3,3337.93 10585.11,3341.78 10580.92,3345.63 10576.72,3353.33 10572.53,3368.74 10568.33,3376.44 10564.14,3380.29 10559.95,3384.13 10555.76,3391.83 10555.76,3430.33 10559.95,3438.03 10564.14,3441.88 10568.33,3445.73 10572.53,3453.44 10576.72,3557.39 10580.92,3561.24 10585.11,3565.09 10589.3,3568.94 10652.19,3568.94 10664.77,3565.09 10668.96,3561.24 10677.34,3557.39 10681.53,3553.54 10685.72,3549.69 10689.92,3545.83 10694.11,3541.98 10698.3,3538.13 10702.5,3534.28 10706.69,3530.43 10710.89,3526.59 10715.08,3522.74 10719.27,3515.04 10723.46,3511.19 10727.65,3507.34 10727.65,3434.18 10723.46,3430.33 10719.27,3426.49 10715.08,3418.79 10710.89,3414.94 10706.69,3411.08 10706.69,3391.83 10710.89,3387.98 10715.08,3384.13 10731.84,3380.29 10740.22,3376.44 10744.42,3372.59 10748.61,3368.74 10752.81,3364.89 10757,3361.03 10761.19,3357.18 10765.39,3353.33 10769.58,3349.48 10769.58,3314.83 10765.39,3310.98 10761.19,3307.13 10757,3303.28 10752.81,3299.43 10748.61,3295.57 10744.42,3291.72 10740.22,3287.87 10731.84,3284.02 10715.08,3280.19 10710.89,3276.33 10706.69,3272.48 10698.3,3268.63 10694.11,3264.78 10689.92,3260.93 10656.39,3260.93 "/>
    <polygon class="fil1" points="9445.29,1854.28 9441.49,1858.08 9437.69,1861.89 9430.08,1865.68 9414.88,1869.48 9407.28,1873.29 9403.47,1877.09 9395.86,1880.89 9392.06,1884.7 9335.02,1888.5 9327.43,1892.31 9323.62,1896.11 9319.82,1899.91 9312.21,1903.72 9297,1907.52 9293.19,1911.33 9289.39,1915.11 9281.8,1918.92 9277.99,1922.72 9274.19,1926.53 9236.15,1930.33 9228.56,1934.13 9224.76,1937.94 9220.95,1941.74 9217.15,1945.54 9213.35,1949.34 9209.55,1953.15 9205.74,1956.95 9201.93,1960.76 9194.33,1964.54 9175.33,1968.35 9171.52,1972.15 9167.72,1975.95 9163.91,1979.76 9160.11,1994.97 9156.31,2002.58 9152.5,2006.38 9148.7,2010.17 9144.9,2013.98 9141.09,2017.78 9133.5,2021.58 9118.28,2025.39 9114.48,2029.19 9110.68,2033 9106.87,2036.8 9103.07,2040.6 9099.27,2044.41 9095.46,2048.21 9091.66,2052.01 9087.87,2055.82 9084.06,2059.61 9080.26,2063.41 9076.46,2067.22 9072.65,2071.02 9068.85,2074.82 9065.05,2078.63 9057.44,2082.43 9042.22,2086.23 9034.63,2090.04 9030.83,2093.83 9023.23,2097.65 9019.42,2101.45 9015.62,2105.25 9011.81,2109.04 9008.01,2112.85 9004.21,2116.65 9000.41,2120.45 8996.6,2124.26 8992.8,2128.06 8989.01,2131.87 8985.2,2135.67 8960.61,2184.36 8964.2,2244.33 8942.31,2304.05 8922.88,2383.02 8921.18,2453.91 8943.51,2500.6 8947.68,2528.35 8969.99,2546.33 8966.18,2550.13 8966.18,2626.19 8966.18,2645.19 8966.18,2702.24 8969.99,2706.04 8973.79,2709.85 8977.6,2717.44 8981.4,2721.25 8985.2,2736.46 8989.01,2744.07 8992.8,2747.87 8996.6,2751.67 9053.63,2755.47 9057.44,2759.27 9061.24,2763.07 9065.05,2782.1 9068.85,2785.88 9072.65,2789.69 9076.46,2793.49 9095.46,2797.3 9099.27,2801.1 9103.07,2816.32 9106.87,2823.92 9110.68,2827.72 9114.48,2831.53 9156.31,2835.32 9160.11,2839.14 9167.72,2842.94 9171.52,2846.73 9179.13,2850.53 9213.35,2854.34 9220.95,2858.14 9224.76,2861.94 9228.56,2865.75 9232.36,2869.55 9236.15,2873.36 9239.96,2877.16 9243.76,2880.96 9247.56,2884.77 9255.17,2888.57 9312.21,2892.37 9319.82,2896.17 9323.62,2899.96 9327.43,2903.78 9335.02,2907.57 9350.24,2911.37 9354.04,2915.19 9357.83,2918.98 9365.45,2922.78 9369.25,2926.59 9373.06,2930.39 9441.49,2930.39 9449.1,2926.59 9452.9,2922.78 9456.7,2918.98 9460.51,2915.19 9464.31,2911.37 9528.95,2911.37 9532.75,2915.19 9536.56,2918.98 9540.35,2922.78 9544.16,2926.59 9551.76,2930.39 9658.24,2930.39 9662.04,2926.59 9665.85,2922.78 9673.44,2918.98 9677.25,2915.19 9681.05,2911.37 9719.07,2907.57 9722.87,2903.78 9730.48,2899.96 9734.28,2896.17 9741.89,2892.37 9776.11,2888.57 9783.71,2884.77 9787.52,2880.96 9791.32,2877.16 9798.93,2873.36 9855.96,2869.55 9863.57,2865.75 9867.37,2861.94 9871.17,2858.14 9874.98,2854.34 9878.78,2850.53 9882.58,2846.73 9886.38,2842.94 9890.19,2839.14 9893.98,2835.32 9897.8,2831.53 9901.59,2827.72 9905.4,2823.92 9909.2,2820.12 9913,2816.32 9916.8,2812.51 9920.6,2808.71 9924.4,2804.9 9928.21,2801.1 9932.01,2797.3 9935.81,2793.49 9939.62,2789.69 9943.42,2785.88 9947.23,2782.1 9951.03,2778.29 9954.83,2774.49 9958.64,2766.88 9962.43,2763.07 9966.23,2759.27 9970.03,2744.07 9973.84,2736.46 9977.64,2732.67 9981.45,2728.85 9985.25,2725.06 9989.05,2721.25 9992.86,2717.44 9996.66,2713.65 10000.46,2709.85 10004.27,2706.04 10008.07,2702.24 10011.86,2660.41 10015.67,2656.61 10019.47,2649 10023.27,2645.19 10027.07,2641.39 10030.88,2584.36 10034.68,2580.56 10038.48,2572.95 10042.28,2569.15 10046.09,2565.34 10049.89,2386.63 10053.7,2379.02 10057.5,2375.22 10061.3,2371.42 10065.09,2367.61 10068.9,2363.81 10072.7,2360.01 10076.5,2356.2 10080.31,2352.41 10084.11,2348.61 10084.11,2333.39 10080.31,2329.59 10076.5,2321.99 10072.7,2318.19 10068.9,2310.57 10065.09,2291.57 10061.3,2287.77 10057.5,2283.97 10053.7,2276.36 10049.89,2272.56 10046.09,2234.53 10042.28,2230.73 10038.48,2226.92 10034.68,2219.32 10030.88,2215.51 10027.07,2135.67 10023.27,2131.87 10019.47,2128.06 10015.67,2124.26 10011.86,2120.45 10008.07,2116.65 10004.27,2112.85 10000.46,2109.04 9996.66,2105.25 9992.86,2101.45 9989.05,2097.65 9985.25,2093.83 9977.64,2090.04 9973.84,2086.23 9954.83,2082.43 9947.23,2078.63 9943.42,2074.82 9939.62,2071.02 9935.81,2067.22 9932.01,2059.61 9928.21,2036.8 9924.4,2033 9920.6,2029.19 9916.8,2025.39 9913,2021.58 9909.2,2017.78 9905.4,2013.98 9901.59,2010.17 9897.8,2006.38 9893.98,2002.58 9890.19,1998.78 9886.38,1994.97 9882.58,1991.17 9874.98,1987.36 9855.96,1983.56 9852.17,1979.76 9844.56,1975.95 9840.76,1972.15 9833.15,1968.35 9798.93,1964.54 9791.32,1960.76 9787.52,1956.95 9783.71,1953.15 9776.11,1949.34 9760.9,1945.54 9753.3,1941.74 9749.49,1937.94 9745.69,1934.13 9741.89,1930.33 9738.08,1926.53 9734.28,1922.72 9730.48,1918.92 9726.67,1915.11 9722.87,1911.33 9719.07,1907.52 9715.28,1899.91 9707.67,1896.11 9703.87,1892.31 9696.26,1888.5 9681.05,1884.7 9673.44,1880.89 9669.65,1877.09 9665.85,1873.29 9658.24,1869.48 9643.03,1865.68 9635.42,1861.89 9631.61,1858.08 9627.81,1854.28 9620.22,1850.48 9452.9,1850.48 "/>
   </g>
   <path class="fil2" d="M1528.75 2163.45l0 -1263.39 -163.29 0 -428.64 1051.27 -428.64 -1051.27 -159.21 0 0 1263.39 106.14 0 0 -1125.87 461.29 1125.87 44.91 0 457.21 -1125.87 0 1125.87 110.22 0zm1045.06 0l0 -913.74 -97.98 0 0 146.85c-73.48,-104.89 -187.78,-170.16 -318.41,-170.16 -244.94,0 -408.23,191.14 -408.23,480.18 0,293.7 163.29,477.85 408.23,477.85 134.71,0 253.1,-72.26 318.41,-167.83l0 146.85 97.98 0zm-400.06 -67.6c-204.11,0 -318.41,-167.83 -318.41,-389.28 0,-221.44 114.3,-391.61 318.41,-391.61 126.55,0 249.02,79.26 302.09,165.5l0 452.21c-53.07,88.57 -175.54,163.17 -302.09,163.17zm1032.81 438.22c220.44,0 408.22,-100.23 408.22,-379.95l0 -904.42 -97.97 0 0 146.85c-73.48,-104.89 -187.78,-170.16 -318.42,-170.16 -240.85,0 -408.22,188.81 -408.22,477.85 0,293.7 167.37,477.85 408.22,477.85 134.72,0 253.1,-79.25 318.42,-172.49l0 144.52c0,207.46 -146.96,289.04 -310.25,289.04 -138.8,0 -224.52,-32.63 -306.17,-128.2l-57.15 79.25c110.22,109.56 208.2,139.86 363.32,139.86zm8.17 -442.89c-200.03,0 -318.42,-165.5 -318.42,-386.94 0,-221.44 118.39,-389.28 318.42,-389.28 126.55,0 249.02,76.93 302.09,165.5l0 445.22c-53.07,88.57 -175.54,165.5 -302.09,165.5zm1383.88 72.26l0 -641.02c0,-205.13 -102.06,-296.04 -289.84,-296.04 -130.63,0 -261.26,81.58 -326.58,160.84l0 -137.53 -97.97 0 0 913.74 97.97 0 0 -692.3c57.15,-81.58 179.62,-156.18 298,-156.18 130.63,0 220.44,53.61 220.44,228.44l0 620.04 97.97 0zm673.57 20.98c151.04,0 265.35,-51.28 355.16,-146.85l-48.99 -65.27c-77.56,83.91 -183.7,128.2 -298,128.2 -216.36,0 -351.07,-165.5 -359.24,-363.63l763.38 0 0 -25.64c0,-265.73 -151.04,-484.84 -428.63,-484.84 -253.1,0 -440.89,214.45 -440.89,477.85 0,282.05 191.87,480.18 457.21,480.18zm314.33 -524.47l-665.41 0c8.17,-158.51 114.3,-349.65 330.67,-349.65 228.61,0 330.66,193.47 334.74,349.65zm514.36 524.47c73.48,0 118.39,-20.98 155.13,-55.94l-40.82 -76.93c-20.41,23.31 -57.15,44.29 -102.06,44.29 -61.23,0 -93.89,-51.28 -93.89,-123.54l0 -636.36 187.78 0 0 -86.24 -187.78 0 0 -249.42 -97.97 0 0 249.42 -151.04 0 0 86.24 151.04 0 0 650.34c0,125.87 57.15,198.13 179.62,198.13zm669.49 0c269.43,0 440.88,-212.12 440.88,-480.18 0,-265.73 -171.46,-477.85 -440.88,-477.85 -269.43,0 -436.8,212.12 -436.8,477.85 0,268.06 167.37,480.18 436.8,480.18zm0 -88.57c-212.28,0 -334.75,-186.48 -334.75,-391.61 0,-202.8 122.47,-389.28 334.75,-389.28 216.36,0 334.74,186.48 334.74,389.28 0,205.13 -118.39,391.61 -334.74,391.61z"/>
   <path class="fil2" d="M2495.18 3568.94c105.94,0 183.88,-48.1 243.84,-124.47l-48.97 -31.37c-41.96,60.67 -114.93,101.46 -194.87,101.46 -155.89,0 -277.81,-126.57 -277.81,-306.48 0,-182 121.92,-306.46 277.81,-306.46 79.94,0 152.91,40.8 194.87,101.46l47.98 -32.43c-55.97,-74.25 -136.91,-123.41 -242.85,-123.41 -188.87,0 -337.77,146.42 -337.77,360.85 0,214.43 148.9,360.86 337.77,360.86zm485.97 0c39.96,0 62.94,-12.54 81.93,-31.37l-19.98 -41.83c-10.99,12.55 -30.97,24.05 -53.95,24.05 -34,0 -49.98,-28.23 -49.98,-69.03l0 -592.02 -51.96 0 0 600.38c0,69.03 30.97,109.82 93.94,109.82zm411.99 0c79.94,0 140.89,-29.27 188.88,-81.57l-27 -35.57c-40.96,46.02 -96.93,70.09 -157.9,70.09 -113.93,0 -183.87,-91 -188.87,-200.84l403.72 0 0 -14.63c0,-146.44 -80.95,-267.78 -227.83,-267.78 -133.93,0 -231.86,118.2 -231.86,264.65 0,155.84 99.94,265.67 240.85,265.67zm165.89 -290.78l-350.77 0c4.01,-87.86 60.97,-192.46 174.88,-192.46 120.93,0 174.9,106.69 175.89,192.46zm631.85 278.23l0 -505.2 -52.96 0 0 81.57c-38.97,-57.52 -98.93,-94.14 -167.88,-94.14 -127.93,0 -214.87,105.64 -214.87,265.69 0,162.13 86.94,264.63 214.87,264.63 71.94,0 133.91,-40.8 167.88,-93.08l0 80.54 52.96 0zm-211.86 -36.61c-106.91,0 -168.89,-93.08 -168.89,-215.47 0,-122.39 61.98,-216.52 168.89,-216.52 67.97,0 130.93,43.94 158.91,92.06l0 249.98c-27.98,48.12 -90.93,89.96 -158.91,89.96zm787.77 36.61l0 -353.54c0,-114.01 -53.96,-164.22 -151.9,-164.22 -69.96,0 -138.91,44.98 -173.89,88.91l0 -76.35 -51.96 0 0 505.2 51.96 0 0 -381.78c30.99,-46.04 94.93,-86.83 156.9,-86.83 69.94,0 116.91,29.29 116.91,126.57l0 342.04 51.98 0zm686.81 0l0 -643.28 217.85 0 0 -54.38 -493.67 0 0 54.38 217.85 0 0 643.28 57.96 0zm460.98 12.54c79.94,0 140.91,-29.27 188.88,-81.57l-26.98 -35.57c-40.97,46.02 -96.94,70.09 -157.9,70.09 -113.94,0 -183.88,-91 -188.87,-200.84l403.72 0 0 -14.63c0,-146.44 -80.95,-267.78 -227.85,-267.78 -133.93,0 -231.84,118.2 -231.84,264.65 0,155.84 99.94,265.67 240.83,265.67zm165.89 -290.78l-350.75 0c3.99,-87.86 60.95,-192.46 174.86,-192.46 120.93,0 174.9,106.69 175.89,192.46zm430 290.78c83.93,0 131.9,-34.51 170.89,-86.81l-35.97 -33.47c-34.98,50.22 -78.95,71.13 -131.92,71.13 -112.93,0 -181.88,-95.18 -181.88,-216.51 0,-121.35 68.95,-215.48 181.88,-215.48 52.97,0 96.94,19.89 131.92,70.09l35.97 -33.47c-38.99,-51.24 -86.96,-85.78 -170.89,-85.78 -141.91,0 -233.85,117.17 -233.85,264.65 0,147.48 91.94,265.67 233.85,265.67zm700.81 -12.54l0 -355.64c0,-114.01 -53.96,-162.13 -151.92,-162.13 -69.94,0 -138.89,44.98 -173.88,88.91l0 -268.81 -51.95 0 0 697.66 51.95 0 0 -381.78c30.99,-46.04 94.94,-86.83 156.9,-86.83 69.96,0 116.93,27.21 116.93,124.48l0 344.12 51.98 0z"/>
  </g>
 </g>
</svg>
