<svg xmlns="http://www.w3.org/2000/svg" viewBox="0 0 433.39 113.12" width="600"><defs><style>.cls-1,.cls-2{fill:#312783;}.cls-1{fill-rule:evenodd;}</style></defs><title>Queen Mary</title><g id="Page_1" data-name="Page 1"><g id="Capa_1" data-name="Capa 1"><path class="cls-1" d="M51.66,24c13.9,0,25.17,11,25.17,24.56a24.3,24.3,0,0,1-9.5,19.22c11.29,5.74,18.75,6.23,21.18-.17a4.66,4.66,0,0,0-6.06-6.52A2.86,2.86,0,1,1,81.27,61c3.09-3.17,12.4-.89,10.86,7.81-2.6,11.39-18.65,7.33-26,3.15q-1.36-.88-2.7-1.64a25.55,25.55,0,0,1-11.73,2.83c-13.9,0-25.17-11-25.17-24.56S37.76,24,51.66,24ZM17.5,77.81H87A3.16,3.16,0,0,1,90.14,81h0A3.06,3.06,0,0,1,87,84.11a323.89,323.89,0,0,0-69.49,0A3.05,3.05,0,0,1,14.35,81h0a3.16,3.16,0,0,1,3.15-3.15Zm76.92-16a9.56,9.56,0,0,0-17.35-1.16c3-12,9.16-17.12,16.08-6.94C89.06,38.82,94.82,32.35,103.32,26,99.7,38,96.81,49.86,94.42,61.78ZM51.66,0c-3.74,2.62-5,6.23-2.3,11.19-5.85-3.93-10.16,1.74-7.49,8.55,1.85-5.22,8.06-7.48,8.25.47H48.48v1.17a11.46,11.46,0,0,1,6.36,0V20.21H53.2c.19-7.94,6.4-5.69,8.25-.47,2.67-6.82-1.64-12.48-7.49-8.55,2.65-5,1.44-8.57-2.3-11.19ZM8.91,61.78a9.56,9.56,0,0,1,17.35-1.16c-3-12-9.16-17.12-16.08-6.94C14.26,38.82,8.5,32.35,0,26,3.62,38,6.52,49.86,8.91,61.78Zm13.61-.91a2.86,2.86,0,1,1-1.66-.17l-.33-.17c-4.51-1.3-7.39,1.41-6,7.12,2.71,7.19,11,4.64,18.34.7A16.41,16.41,0,0,0,36.65,72c-8.06,3.73-20,7.33-24.64-1.17-4.3-7.9,5.63-15.19,10.51-9.94Zm37.75,7.83c-6.88-3.27-13.42-4.12-19.5-1.78a16.12,16.12,0,0,0,10.9,4.42,15.6,15.6,0,0,0,8.6-2.64ZM39.59,65.75c5.78-4.57,14.14-3.55,23.83.32A25.1,25.1,0,0,0,70.05,48.6c0-12.55-8.24-22.73-18.39-22.73S33.27,36,33.27,48.6a25.22,25.22,0,0,0,6.32,17.15Z"/><path class="cls-2" d="M152.74,65a10.51,10.51,0,0,0-2.56-3.09,5.65,5.65,0,0,0-3-1.14V55.67A8.74,8.74,0,0,1,151.77,57,14.39,14.39,0,0,1,155.85,61a22.14,22.14,0,0,0,2.2-6,34.68,34.68,0,0,0,.75-7.48q0-9.89-3.45-15.3a11.48,11.48,0,0,0-19.44-.09q-3.51,5.35-3.51,14.93T135.91,62a11,11,0,0,0,9.69,5.33,12.65,12.65,0,0,0,3.88-.56A10.52,10.52,0,0,0,152.74,65Zm2.51,4a17.79,17.79,0,0,1-4.6,2.28,16.72,16.72,0,0,1-5,.74,15.86,15.86,0,0,1-13.4-6.76q-5-6.78-5-18.15t5-18.13A16.73,16.73,0,0,1,159,29q5,6.71,5,18.13a37.09,37.09,0,0,1-1.32,10.25,25.14,25.14,0,0,1-4,8.13,9.64,9.64,0,0,0,2.85,3.18,7.14,7.14,0,0,0,3.61,1.15l0,5.33H165a10,10,0,0,1-5.42-1.5A14,14,0,0,1,155.25,69Z"/><path class="cls-2" d="M194.78,36.35V71.19h-4.44V65.92a21.26,21.26,0,0,1-5.75,4.44,13.24,13.24,0,0,1-6,1.41,8.87,8.87,0,0,1-6.75-2.52c-1.58-1.68-2.38-4.06-2.38-7.14V36.35h4.83v24c0,2.6.45,4.45,1.33,5.57A5.16,5.16,0,0,0,180,67.58,10.86,10.86,0,0,0,185,66.29a18.09,18.09,0,0,0,4.89-4v-26Z"/><path class="cls-2" d="M204.18,50.6H221a12.81,12.81,0,0,0-2.31-7.86,7.22,7.22,0,0,0-6-2.88,7.38,7.38,0,0,0-6.11,2.81q-2.22,2.81-2.45,7.93Zm19.19,10.8,3.52,2.21a14,14,0,0,1-5.43,6.16,16.32,16.32,0,0,1-8.4,2q-6.75,0-10.31-4.62t-3.57-13.43q0-8.39,3.61-13.19a12.8,12.8,0,0,1,19.83-.18q3.54,4.61,3.54,12.91v1.47h-22v1.14q0,5.4,2.57,8.58a8.34,8.34,0,0,0,6.83,3.19,10.54,10.54,0,0,0,5.8-1.61,11.32,11.32,0,0,0,4.06-4.63Z"/><path class="cls-2" d="M236.08,50.6h16.87a12.81,12.81,0,0,0-2.31-7.86,7.22,7.22,0,0,0-6-2.88,7.38,7.38,0,0,0-6.11,2.81q-2.22,2.81-2.45,7.93Zm19.19,10.8,3.52,2.21a14,14,0,0,1-5.43,6.16,16.32,16.32,0,0,1-8.4,2q-6.75,0-10.31-4.62t-3.57-13.43q0-8.39,3.61-13.19a12.8,12.8,0,0,1,19.83-.18q3.54,4.61,3.54,12.91v1.47H236v1.14q0,5.4,2.57,8.58a8.34,8.34,0,0,0,6.83,3.19,10.54,10.54,0,0,0,5.8-1.61,11.32,11.32,0,0,0,4.06-4.63Z"/><path class="cls-2" d="M263.26,71.19V36.35h4.15v5.27a20.34,20.34,0,0,1,5.25-4.45,11.15,11.15,0,0,1,5.45-1.43,7.81,7.81,0,0,1,6.25,2.54q2.18,2.53,2.19,7.12V71.19h-4.39v-24q0-3.9-1.23-5.6a4.58,4.58,0,0,0-4-1.69,9.42,9.42,0,0,0-4.72,1.32,17.35,17.35,0,0,0-4.53,4v26Z"/><polygon class="cls-2" points="309.89 71.19 309.89 23.01 318.12 23.01 331.61 63.74 345.19 23.01 352.96 23.01 352.96 71.19 347.8 71.19 347.8 28.74 333.21 71.19 329.61 71.19 315.02 28.74 315.02 71.19 309.89 71.19 309.89 71.19"/><path class="cls-2" d="M377.19,62V52.48c-5.54,1.17-9.47,2.51-11.81,4s-3.5,3.41-3.5,5.73A5,5,0,0,0,363.33,66a5.47,5.47,0,0,0,4,1.4,9.63,9.63,0,0,0,4.52-1.3,26.65,26.65,0,0,0,5.37-4ZM377,66.47a16.28,16.28,0,0,1-5,3.94,12.48,12.48,0,0,1-5.59,1.3A8.71,8.71,0,0,1,359.85,69a9.64,9.64,0,0,1-2.54-6.93,10.26,10.26,0,0,1,4.56-8.73q4.56-3.28,15.32-5.46V45.4a4.88,4.88,0,0,0-1.86-3.92,7.24,7.24,0,0,0-4.81-1.54,8.35,8.35,0,0,0-4.77,1.4,9.85,9.85,0,0,0-3.34,4.06l-4-2.24a13.07,13.07,0,0,1,4.94-5.55,14.19,14.19,0,0,1,7.43-1.87q5.29,0,8.21,2.72a9.92,9.92,0,0,1,2.91,7.62V65.52a19.71,19.71,0,0,0,.17,2.63,18.28,18.28,0,0,0,.51,2.51v.52H377.5l-.5-4.72Z"/><path class="cls-2" d="M386.84,71.19V36.35h4.42v7.94A16.05,16.05,0,0,1,395.09,38a7.57,7.57,0,0,1,5.26-2H401l.38.06,0,4.78h-.56a7.33,7.33,0,0,0-5.67,2.81,20.54,20.54,0,0,0-3.88,8.18V71.19Z"/><path class="cls-2" d="M417.37,70.61l-12.2-34.26H410l9.83,27.84,8.82-27.84h4.77L421.83,71.79q-2.38,7.14-5,9.64a10.26,10.26,0,0,1-7.26,2.49,11.75,11.75,0,0,1-1.54-.1,10,10,0,0,1-1.46-.29l0-4.45a13.75,13.75,0,0,0,1.4.24,10.07,10.07,0,0,0,1.22.08,6.91,6.91,0,0,0,5.3-2q1.81-1.95,2.89-6.83Z"/><path class="cls-2" d="M339.84,108.1V92.68h3.23v1.89a9,9,0,0,1,2-1.59,3.81,3.81,0,0,1,1.83-.53,2.74,2.74,0,0,1,2.44,1,6.9,6.9,0,0,1,.71,3.7V108.1h-3.45v-11a2.69,2.69,0,0,0-.32-1.51,1.2,1.2,0,0,0-1.06-.45,2,2,0,0,0-1,.3,3.56,3.56,0,0,0-1,.8V108.1Z"/><path class="cls-2" d="M332.94,97a2.44,2.44,0,0,0-.42-1.59,1.65,1.65,0,0,0-1.33-.5,1.67,1.67,0,0,0-1.34.5,2.44,2.44,0,0,0-.42,1.59v6.84a2.5,2.5,0,0,0,.42,1.6,1.65,1.65,0,0,0,1.34.51,1.63,1.63,0,0,0,1.33-.51,2.5,2.5,0,0,0,.42-1.6V97Zm3.45,1v5a5.86,5.86,0,0,1-1.27,4.15,6.49,6.49,0,0,1-7.88,0A5.86,5.86,0,0,1,326,102.9v-5a5.85,5.85,0,0,1,1.27-4.14,6.43,6.43,0,0,1,7.86,0,5.82,5.82,0,0,1,1.28,4.14Z"/><path class="cls-2" d="M322.52,87.34V108.1h-3.45v-1.37a5.74,5.74,0,0,1-1.61,1.22,3.84,3.84,0,0,1-1.72.41,2.81,2.81,0,0,1-2.5-1.19,6.72,6.72,0,0,1-.81-3.72V97.17a5.92,5.92,0,0,1,.87-3.55,3.1,3.1,0,0,1,2.64-1.16,3.43,3.43,0,0,1,1.59.39,5.82,5.82,0,0,1,1.54,1.22V87.34Zm-3.45,8.51a4.12,4.12,0,0,0-.91-.55,2.17,2.17,0,0,0-.81-.18,1.18,1.18,0,0,0-1.11.57,4.14,4.14,0,0,0-.34,2v5a6.57,6.57,0,0,0,.29,2.43,1.07,1.07,0,0,0,1.05.62,2.05,2.05,0,0,0,.84-.2,5,5,0,0,0,1-.63v-9Z"/><path class="cls-2" d="M299,108.1V92.68h3.23v1.89a9,9,0,0,1,2-1.59,3.81,3.81,0,0,1,1.83-.53,2.74,2.74,0,0,1,2.44,1,6.9,6.9,0,0,1,.71,3.7V108.1h-3.45v-11a2.69,2.69,0,0,0-.32-1.51,1.2,1.2,0,0,0-1.06-.45,2,2,0,0,0-1,.3,3.56,3.56,0,0,0-1,.8V108.1Z"/><path class="cls-2" d="M292.12,97a2.44,2.44,0,0,0-.42-1.59,1.65,1.65,0,0,0-1.33-.5,1.67,1.67,0,0,0-1.34.5,2.44,2.44,0,0,0-.42,1.59v6.84a2.5,2.5,0,0,0,.42,1.6,1.65,1.65,0,0,0,1.34.51,1.63,1.63,0,0,0,1.33-.51,2.5,2.5,0,0,0,.42-1.6V97Zm3.45,1v5a5.86,5.86,0,0,1-1.27,4.15,6.49,6.49,0,0,1-7.88,0,5.86,5.86,0,0,1-1.27-4.15v-5a5.85,5.85,0,0,1,1.27-4.14,6.43,6.43,0,0,1,7.86,0,5.82,5.82,0,0,1,1.28,4.14Z"/><polygon class="cls-2" points="273.21 108.1 273.21 87.34 276.9 87.34 276.9 105.23 283.65 105.23 283.65 108.1 273.21 108.1 273.21 108.1"/><path class="cls-2" d="M258.12,108.1v-13h-2V92.68h2V90.73A3.68,3.68,0,0,1,259,88a4.43,4.43,0,0,1,3-.78h1.8V89.5H263a1.62,1.62,0,0,0-1.17.32,1.93,1.93,0,0,0-.31,1.29v1.57h2.14v2.38h-2.14v13Z"/><path class="cls-2" d="M250.25,97a2.44,2.44,0,0,0-.42-1.59,1.65,1.65,0,0,0-1.33-.5,1.67,1.67,0,0,0-1.34.5,2.44,2.44,0,0,0-.42,1.59v6.84a2.5,2.5,0,0,0,.42,1.6,1.65,1.65,0,0,0,1.34.51,1.63,1.63,0,0,0,1.33-.51,2.5,2.5,0,0,0,.42-1.6V97Zm3.45,1v5a5.86,5.86,0,0,1-1.27,4.15,6.49,6.49,0,0,1-7.88,0,5.86,5.86,0,0,1-1.27-4.15v-5a5.85,5.85,0,0,1,1.27-4.14,6.43,6.43,0,0,1,7.86,0,5.82,5.82,0,0,1,1.28,4.14Z"/><path class="cls-2" d="M224.53,113.07v-2.58l.45.07.44,0a2.16,2.16,0,0,0,1.7-.62,2.78,2.78,0,0,0,.56-1.9,20,20,0,0,0-.65-3.56l0-.14-2.9-11.67h3.33l2.17,12.92,1.7-12.92h3.26L231,108.43a6.68,6.68,0,0,1-1.82,3.66,5.3,5.3,0,0,1-3.55,1l-.82,0-.29,0Z"/><path class="cls-2" d="M217.05,103.42V95.09h-2V92.68h2V88.55h3.45v4.13H223v2.41h-2.45v8.5a3.49,3.49,0,0,0,.3,1.8,1.3,1.3,0,0,0,1.11.41l.92,0H223v2.33a7.31,7.31,0,0,1-.94.19,7,7,0,0,1-1,.06,4.1,4.1,0,0,1-3.2-1c-.58-.67-.87-2-.87-3.9Z"/><polygon class="cls-2" points="209.34 108.1 209.34 92.68 212.75 92.68 212.75 108.1 209.34 108.1 209.34 108.1"/><polygon class="cls-2" points="209.34 90.24 209.34 87.34 212.75 87.34 212.75 90.24 209.34 90.24 209.34 90.24"/><path class="cls-2" d="M197.31,103.86l3-.23v.14a2.75,2.75,0,0,0,.42,1.66A1.42,1.42,0,0,0,202,106a1.47,1.47,0,0,0,1.08-.43,1.51,1.51,0,0,0,.43-1.11,2.37,2.37,0,0,0-.56-1.41,14.9,14.9,0,0,0-2.19-2.07,11.38,11.38,0,0,1-2.52-2.62,4.33,4.33,0,0,1-.54-2.18,3.39,3.39,0,0,1,1.17-2.77,5.09,5.09,0,0,1,3.34-1,4.56,4.56,0,0,1,3.18,1.07,4.18,4.18,0,0,1,1.29,3l-3,.2a2.8,2.8,0,0,0-.4-1.51,1.24,1.24,0,0,0-1.07-.48,1.53,1.53,0,0,0-1.05.32,1.2,1.2,0,0,0-.36.94q0,1.19,2.12,2.91l.12.1a13.75,13.75,0,0,1,2.94,2.88,4.48,4.48,0,0,1,.75,2.49,3.66,3.66,0,0,1-1.28,2.9,5.77,5.77,0,0,1-6.84,0,4.56,4.56,0,0,1-1.26-3.36Z"/><path class="cls-2" d="M189.15,108.1V92.68h3.2v2A4.78,4.78,0,0,1,194,93a5.13,5.13,0,0,1,2.33-.59l0,3.1a5.88,5.88,0,0,0-.67-.11c-.25,0-.55,0-.89,0a2.2,2.2,0,0,0-1.72.56,3.48,3.48,0,0,0-.49,2.19v9.94Z"/><path class="cls-2" d="M185.95,102.73v.9a4.49,4.49,0,0,1-1.38,3.5,5.57,5.57,0,0,1-3.87,1.25,4.91,4.91,0,0,1-3.78-1.36,5.93,5.93,0,0,1-1.25-4.12v-5a5.8,5.8,0,0,1,1.28-4.14,5.25,5.25,0,0,1,4-1.34A4.87,4.87,0,0,1,184.85,94a7,7,0,0,1,1.3,4.62v2.33h-7v2.9a2.5,2.5,0,0,0,.42,1.6,1.65,1.65,0,0,0,1.34.51,1.63,1.63,0,0,0,1.33-.51,2.49,2.49,0,0,0,.42-1.6v-1.1ZM179.12,97v1.53h3.52V97a2.44,2.44,0,0,0-.42-1.59,1.66,1.66,0,0,0-1.33-.5,1.67,1.67,0,0,0-1.34.5,2.44,2.44,0,0,0-.42,1.59Z"/><path class="cls-2" d="M166.82,108.1l-3.69-15.42h3.3l1.52,8.93c.09.49.18,1.16.28,2s.19,1.82.28,2.89c.09-1,.18-2,.26-2.78s.17-1.51.26-2.1l1.32-9h3.26l-3.48,15.42Z"/><polygon class="cls-2" points="157.27 108.1 157.27 92.68 160.67 92.68 160.67 108.1 157.27 108.1 157.27 108.1"/><polygon class="cls-2" points="157.27 90.24 157.27 87.34 160.67 87.34 160.67 90.24 157.27 90.24 157.27 90.24"/><path class="cls-2" d="M143.52,108.1V92.68h3.23v1.89a9,9,0,0,1,2-1.59,3.81,3.81,0,0,1,1.83-.53,2.74,2.74,0,0,1,2.44,1,6.9,6.9,0,0,1,.71,3.7V108.1h-3.45v-11a2.69,2.69,0,0,0-.32-1.51,1.2,1.2,0,0,0-1.06-.45,2,2,0,0,0-1,.3,3.55,3.55,0,0,0-1,.8V108.1Z"/><path class="cls-2" d="M128.11,101.61V87.34h3.69v15.11a4.57,4.57,0,0,0,.49,2.45,2.06,2.06,0,0,0,3.16,0,4.57,4.57,0,0,0,.49-2.45V87.34h3.65v14.27q0,3.75-1.32,5.31c-.88,1-2.35,1.56-4.4,1.56s-3.54-.52-4.43-1.56-1.33-2.81-1.33-5.31Z"/></g></g></svg>